<svg width="71" height="62" viewBox="0 0 71 62" fill="none" xmlns="http://www.w3.org/2000/svg">
<path d="M45.9538 46.3835C45.2255 47.0475 45.1573 48.1328 45.8 48.8331C46.4079 49.4956 47.6034 49.5218 48.2766 48.8854C48.9396 48.2607 48.9512 47.2015 48.3027 46.5085C47.6222 45.7806 46.6705 45.7297 45.9538 46.3835Z" fill="white"/>
<path d="M49.0782 31.4514C49.7006 30.9603 50.2882 30.4968 50.8802 30.0581C51.076 29.9128 51.3082 29.8953 51.4663 29.8953C51.5359 29.8953 51.6085 29.8997 51.6752 29.9041L51.7217 29.907C51.9016 29.9171 52.0829 29.9215 52.2585 29.9215C54.8714 29.9215 56.9867 28.8289 58.5464 26.6743C59.2457 25.7096 59.8333 24.6054 60.2468 23.4838C60.5311 22.7123 60.4542 21.9205 60.0277 21.2551C59.575 20.5475 58.8046 20.1 57.9109 20.0288C57.406 19.9882 56.965 19.9388 56.5587 19.8763C55.5127 19.715 54.4158 19.4244 53.483 18.3958C52.1453 16.9211 50.3738 16.0538 48.8171 15.4014L48.4123 15.2314L48.0946 15.0978L47.2342 14.7389L48.0322 14.258C48.2425 14.1316 48.4384 14.0139 48.627 13.9021C49.0202 13.6681 49.3597 13.4647 49.6992 13.2526C50.5508 12.7223 50.825 11.7925 50.368 10.9919C50.0779 10.4834 49.5788 10.1914 48.9999 10.1914C48.6778 10.1914 48.3456 10.2844 48.038 10.4616C45.8675 11.7082 43.9118 13.0812 42.1519 14.5965C40.2484 16.1715 40.0207 16.6175 38.403 18.3668C37.5659 19.2167 37.4788 20.1262 38.1244 20.8032C38.7918 21.5035 39.7827 21.4251 40.6286 20.5838C41.3163 19.8995 42.0054 19.2167 42.6931 18.5324L42.6975 18.544C42.918 18.3275 43.1385 18.1139 43.3663 17.9047C43.6013 17.6897 43.9727 17.5502 44.3137 17.5502C44.3761 17.5502 44.437 17.5546 44.4936 17.5648C47.7449 18.1038 50.2418 19.4317 52.1279 21.6241C52.4137 21.9554 52.891 22.2634 53.4075 22.4464C54.0212 22.6644 54.6552 22.8111 55.327 22.9651C55.6055 23.029 55.8943 23.0959 56.1772 23.1671L56.6995 23.2978L56.4992 23.7991C55.8101 25.5309 54.1982 26.6496 52.3948 26.6496C52.2338 26.6496 52.0713 26.6409 51.9103 26.622C51.7507 26.6046 51.5911 26.5958 51.4358 26.5958C50.5537 26.5958 49.7311 26.8821 48.7692 27.5228C47.2357 28.5442 45.9575 29.875 44.746 31.7114L44.4805 32.1139L44.0845 31.8407C43.7609 31.617 43.4243 31.3976 43.0993 31.1869C42.7076 30.9312 42.3086 30.6712 41.9198 30.3951C41.9213 30.3966 41.9227 30.398 41.9242 30.3995C45.0173 33.3023 47.5462 32.8214 47.5462 32.8214L48.4007 31.9846C48.6372 31.7986 48.8606 31.6214 49.0782 31.4514Z" fill="white"/>
<path d="M70.4355 15.8837C69.7101 11.3522 67.4874 7.44685 64.0083 4.59049C60.7178 1.88814 56.5713 0.400391 52.3334 0.400391C48.5003 0.400391 44.7949 1.61936 41.6176 3.92653C40.3191 4.86945 39.1352 6.05209 37.9905 7.19405C37.4551 7.72871 36.9009 8.28225 36.338 8.80965C36.2103 8.93024 36.0826 9.05082 35.9274 9.19757L35.6561 9.45618L35.3181 9.77726L34.9931 9.44165C34.5752 9.01014 34.1632 8.57574 33.7642 8.15585C32.8807 7.22456 32.0464 6.34557 31.1556 5.49854C27.6838 2.1976 23.4851 0.490468 18.6755 0.426541C18.5957 0.425088 18.5145 0.425087 18.4347 0.425087C14.5624 0.425087 10.8512 1.63388 7.70287 3.92362C4.54731 6.21771 2.25789 9.37627 1.08417 13.0608C0.789649 13.9833 0.596686 14.9699 0.410979 15.9244C0.326831 16.3574 0.238333 16.8048 0.142578 17.2436V20.3426C0.149832 20.3673 0.157074 20.392 0.165779 20.4167C0.2035 20.5358 0.244129 20.6709 0.261539 20.8235C0.741765 25.0921 2.50307 28.7824 5.4976 31.7884C13.8878 40.2122 22.4332 48.7609 30.6986 57.0292L33.8803 60.2125C34.5099 60.8416 34.9989 61.135 35.4211 61.135C35.8461 61.135 36.3191 60.8532 36.9531 60.2197C37.239 59.9335 37.5204 59.6531 37.8019 59.3727L37.8207 59.3785C39.7765 57.4665 40.187 57.0074 42.1167 55.0678C43.1047 54.0741 43.2048 53.1035 42.4213 52.2986C41.6219 51.4778 40.6992 51.549 39.6749 52.5616C38.565 53.6585 37.4595 54.7584 36.3569 55.864L35.6953 56.5251L35.6851 56.5425C35.5676 56.6616 35.4486 56.7808 35.3311 56.9014L35.3064 56.9174C35.0424 56.8026 34.7406 56.4946 34.5868 56.342C34.1907 55.9454 33.7932 55.5487 33.3957 55.1506C32.5528 54.308 31.6953 53.4508 30.8379 52.5863L23.4792 45.2086C21.9849 43.7136 20.4891 42.2215 18.9933 40.7279C15.3575 37.1001 11.5984 33.3502 7.93646 29.625C3.78417 25.4015 2.42474 20.222 4.0076 14.6444C5.5658 9.15398 9.33796 5.51017 14.915 4.10959C16.2251 3.77979 17.5265 3.61416 18.7814 3.61416C22.4593 3.61416 25.8441 5.01764 28.8415 7.78392C30.0631 8.91135 31.2441 10.1143 32.3859 11.2781C32.9155 11.8186 33.4639 12.3765 34.0065 12.9184C34.5099 13.4211 34.9728 13.6652 35.4182 13.6652C35.8694 13.6652 36.3365 13.4167 36.8472 12.9068C37.3724 12.3823 37.9034 11.8433 38.4156 11.3217C39.511 10.2073 40.6455 9.05519 41.8076 7.96698C44.9081 5.06558 48.3582 3.59381 52.0636 3.59381C53.7219 3.59381 55.4426 3.89456 57.1778 4.48588C62.7911 6.40078 66.2716 10.5487 67.2437 16.4823C68.046 21.3843 66.6343 25.7604 63.0464 29.4928C61.6594 30.9355 60.1868 32.3782 58.8868 33.6524L54.2848 37.8716C53.4129 38.7448 52.5395 39.6194 51.6733 40.4998C50.7332 41.4558 50.636 42.4772 51.3599 43.237C52.11 44.0245 53.2228 43.9359 54.1731 42.9901C55.0494 42.1183 55.9301 41.2481 56.8049 40.3749L56.8223 40.3778C59.7646 37.4473 62.7548 34.45 65.6434 31.4353C69.7855 27.1145 71.396 21.8826 70.4355 15.8837Z" fill="white"/>
<path d="M57.9104 34.0968C57.8727 34.0968 57.8364 34.0939 57.8016 34.0896C55.4251 33.7903 53.0124 33.4605 50.6795 33.1423L49.1561 32.9345C49.0806 32.9244 49.0153 32.9098 48.8964 32.8822C48.8253 32.8663 48.7295 32.843 48.5946 32.814C48.5946 32.814 46.192 33.3399 41.9295 30.3964C41.928 30.3949 41.9266 30.3935 41.9251 30.392C41.5769 30.145 41.2345 29.8864 40.9139 29.6045C40.1667 28.9493 39.4906 28.2083 38.8363 27.4921C38.8363 27.4921 35.3746 24.2158 34.4606 20.7028V20.7013C34.3547 20.4688 34.2517 20.2378 34.1588 20.0025C33.1708 17.5355 31.8346 15.7165 30.0718 14.4423C28.4628 13.28 26.7508 12.7148 24.8357 12.7148C23.5518 12.7148 22.2112 12.9676 20.7371 13.4863L20.6109 13.5299C20.1757 13.6825 19.7259 13.8394 19.3646 14.0704C18.233 14.7968 17.0549 14.8898 16.1554 14.8898C16.0277 14.8898 15.9001 14.8883 15.7724 14.884L15.3458 14.8709C14.8496 14.8549 14.3375 14.839 13.8384 14.839C13.0158 14.839 12.3542 14.884 11.7565 14.9828C10.384 15.208 9.23637 16.0027 8.60816 17.1592C7.96979 18.3346 7.93062 19.7584 8.5008 21.0631C8.86061 21.8883 9.38291 22.6845 10.0097 23.3688C12.2483 25.8111 14.8627 27.3787 17.7803 28.0311C19.4546 28.4045 20.7458 29.3488 21.7295 30.9165C22.8176 32.6527 23.5532 34.6882 23.913 36.9663C24.2133 38.8637 24.4469 40.8004 24.6732 42.6717C24.7705 43.4752 24.8706 44.3048 24.9736 45.1198L25.0998 46.8328L30.8378 52.5847C30.1139 51.8554 29.3899 51.1217 28.6761 50.388C28.3468 50.0494 28.1262 49.5075 28.1262 49.0411C28.1277 45.2593 28.0102 40.8091 27.1339 36.481C26.6362 34.0242 25.8063 30.8627 23.7955 28.2069C22.4535 26.4358 20.8053 25.3636 18.7553 24.9292C16.3904 24.4279 14.3012 23.1901 12.3687 21.1473C12.0771 20.8393 11.8131 20.4718 11.6056 20.0853C11.24 19.4024 11.3444 18.952 11.4968 18.6949C11.6491 18.4363 11.9959 18.1268 12.7735 18.121C13.0782 18.1181 13.3829 18.1152 13.6875 18.1123C14.2214 18.1065 14.7742 18.1007 15.3197 18.1007C16.0364 18.1007 16.6313 18.1108 17.1928 18.1326C17.2842 18.1355 17.3741 18.1384 17.4641 18.1384C18.4303 18.1384 19.1963 17.9191 19.8797 17.4498C20.1336 17.2754 20.4063 17.1534 20.6704 17.0372C20.7821 16.9878 20.8938 16.9384 21.0055 16.8832L21.5336 16.6245L21.67 17.197C21.744 17.5079 21.8137 17.8159 21.8804 18.121C22.0327 18.8097 22.1778 19.4606 22.3795 20.0926C22.5812 20.7246 22.8829 21.4045 23.3008 22.1731C23.6127 22.747 24.1567 23.0884 24.7559 23.0884C25.0243 23.0884 25.2841 23.0201 25.5307 22.8879C26.3345 22.4506 26.5941 21.4771 26.1342 20.6229C25.4814 19.4126 25.1187 18.2009 25.0215 16.9209C25.0127 16.812 25.0214 16.7117 25.0287 16.6158C25.0316 16.5766 25.036 16.5359 25.0374 16.4909L25.0621 15.994L25.5568 16.0463C26.8495 16.1814 27.984 16.7597 29.0243 17.8144C29.9891 18.7908 30.5999 19.9502 31.2209 21.3885C33.5422 26.77 36.5744 30.6942 40.4917 33.3849C42.8246 34.9875 45.4768 35.8984 48.6033 36.173C49.9453 36.2907 51.2801 36.4839 52.5699 36.6699C53.1488 36.7542 53.6943 36.8326 54.2427 36.9053L55.1277 37.0229C54.8463 37.3034 54.5677 37.5867 54.2877 37.8685L58.8897 33.6494C58.6793 33.8557 58.2978 34.0968 57.9104 34.0968Z" fill="#FFC20E"/>
</svg>
