<svg width="58" height="71" viewBox="0 0 58 71" fill="none" xmlns="http://www.w3.org/2000/svg">
<path d="M56.2184 50.3294C53.8115 49.2964 51.9225 47.6735 50.6051 45.3969C48.0139 40.922 48.3273 34.7516 52.2982 30.9001C53.1034 30.1199 54.0581 29.4864 54.9794 28.8384C56.1386 28.0219 56.3054 26.9758 55.3842 25.8993C55.2072 25.6929 55.0243 25.491 54.8401 25.2919C50.3483 20.4495 44.973 18.1031 38.3296 19.601C36.5059 20.0122 34.746 20.711 32.9688 21.314C31.473 21.821 29.9583 22.007 28.4335 21.5668C26.6968 21.0641 24.9877 20.4611 23.2583 19.9323C20.9631 19.2305 18.6287 18.9109 16.2291 19.2901C12.9603 19.8073 10.1413 21.2646 7.64735 23.3988C4.45116 26.1346 2.32569 29.5256 1.37104 33.6445C1.31446 33.8872 1.26225 34.1298 1.21292 34.3724C1.18245 34.4611 1.15634 34.5526 1.14038 34.647C0.945968 35.7498 0.735591 36.9978 0.66305 37.8898C0.597762 38.6788 0.622409 39.5854 0.645623 40.4614C0.651426 40.6968 0.658696 40.9264 0.661597 41.1458C0.679007 42.1453 1.49294 42.9415 2.48676 42.9415C2.49836 42.9415 2.50852 42.9415 2.52012 42.9415C3.52845 42.9241 4.3322 42.0901 4.31334 41.0804C4.30898 40.8508 4.3032 40.6111 4.29594 40.3641C4.28144 39.7989 4.26546 39.1785 4.27852 38.6526C4.29883 38.6526 4.31913 38.6497 4.33944 38.6512C4.3467 38.1935 4.36413 37.7736 4.39604 37.3712C4.50195 36.6011 4.65721 35.728 4.73555 35.2834C4.74716 35.2209 4.7544 35.1584 4.75875 35.096C4.90529 34.4945 5.09534 33.8712 5.33763 33.1651C7.29046 27.4596 10.9901 23.8289 17.0488 22.7581C19.1496 22.3862 21.1836 22.9107 23.1771 23.5761C24.6149 24.0555 26.0425 24.5771 27.5049 24.9621C30.2165 25.677 32.8396 25.228 35.3989 24.1921C37.2937 23.4265 39.2306 22.8206 41.2893 22.684C44.7815 22.453 47.7557 23.7054 50.4165 25.86C50.7792 26.1535 51.1144 26.4804 51.3247 26.6693C50.5326 27.5512 49.7825 28.3604 49.06 29.1944C44.1286 34.8926 44.1982 43.7493 49.1949 49.4141C50.344 50.7173 51.6396 51.8317 53.147 52.6932C53.4937 52.8908 53.7288 53.0811 53.4966 53.5461C51.5452 57.4558 49.2762 61.1504 46.2178 64.3061C45.7013 64.8393 45.1079 65.3057 44.5174 65.7604C42.4282 67.3687 40.2215 67.3455 37.8639 66.3459C36.2694 65.6703 34.6256 65.0078 32.9383 64.6766C29.6493 64.0329 26.469 64.6402 23.4295 66.0495C22.6548 66.4098 21.838 66.715 21.0095 66.9213C18.7825 67.4763 16.9255 66.6205 15.2454 65.2461C13.2403 63.6058 11.7402 61.5383 10.3459 59.3939C10.2995 59.2283 10.2284 59.067 10.1326 58.913C9.45076 57.835 8.79931 56.5637 8.22333 55.4421L8.11016 55.2212C7.64879 54.3219 6.54617 53.9689 5.651 54.4309C4.75439 54.8929 4.40039 55.9956 4.86176 56.8935L4.97493 57.1143C5.55526 58.2461 6.27778 59.654 7.04672 60.87C7.13667 61.0124 7.24402 61.1373 7.36154 61.2449C8.06665 62.3243 8.81674 63.382 9.61905 64.4121C11.8736 67.3034 14.4518 69.7645 18.2254 70.5229H21.2141C22.9957 69.8793 24.7672 69.1994 26.5633 68.6008C29.4897 67.6244 32.3754 67.7668 35.2292 68.9771C36.5973 69.5568 38.0177 70.0115 39.4148 70.5229H42.2672C44.3651 70.1031 46.2047 69.1412 47.7354 67.6738C48.941 66.5188 50.106 65.2969 51.1361 63.985C53.678 60.7465 55.7527 57.2175 57.4081 53.44C58.1146 51.8302 57.8317 51.021 56.2184 50.3294Z" fill="white"/>
<path d="M29.8699 19.1492C30.4778 19.1361 31.0929 19.0794 31.6892 18.9632C36.3696 18.045 39.7558 15.3557 42.0685 11.2484C43.5236 8.66377 44.2505 5.88733 44.0416 2.90312C43.9067 0.979507 43.1145 0.366382 41.2444 0.677298C37.3373 1.32964 34.086 3.18933 31.5151 6.16918C29.156 8.90205 27.7415 12.0635 27.666 15.9572C27.6994 16.3117 27.7182 16.8798 27.8111 17.4363C28.0084 18.6174 28.6744 19.1753 29.8699 19.1492ZM31.2728 14.5886C31.9997 10.4464 34.3166 7.45644 37.964 5.46745C38.7489 5.0403 39.5991 4.73519 40.5248 4.32838C40.2129 9.43815 36.7337 13.8782 32.0882 15.2845C31.2191 15.5475 31.1161 15.4807 31.2728 14.5886Z" fill="#FFC20E"/>
<path d="M5.3383 48.7676C5.3383 47.8044 4.55775 47.0227 3.59585 47.0227C2.63394 47.0227 1.85339 47.8044 1.85339 48.7676C1.85339 49.7309 2.63394 50.5125 3.59585 50.5125C4.5592 50.5111 5.3383 49.7309 5.3383 48.7676Z" fill="white"/>
</svg>
