<svg width="16" height="16" viewBox="0 0 16 16" fill="none" xmlns="http://www.w3.org/2000/svg">
<path d="M10.0469 1.00379C10.0628 0.944266 10.0902 0.888453 10.1277 0.839544C10.1651 0.790634 10.2118 0.749588 10.2652 0.718751C10.3185 0.687914 10.3774 0.667891 10.4385 0.659828C10.4995 0.651765 10.5616 0.655819 10.6211 0.671759C11.7533 0.967087 12.7863 1.55891 13.6136 2.38627C14.441 3.21363 15.0328 4.24661 15.3281 5.37879C15.3441 5.4383 15.3481 5.50036 15.3401 5.56143C15.332 5.62251 15.312 5.68139 15.2811 5.73472C15.2503 5.78805 15.2093 5.83478 15.1603 5.87224C15.1114 5.90969 15.0556 5.93714 14.9961 5.95301C14.9566 5.96353 14.9159 5.96878 14.875 5.96863C14.7717 5.9687 14.6713 5.93465 14.5894 5.87178C14.5074 5.80892 14.4486 5.72075 14.4219 5.62098C14.1683 4.64847 13.66 3.76116 12.9494 3.05051C12.2387 2.33985 11.3514 1.83156 10.3789 1.57801C10.3194 1.56214 10.2636 1.53469 10.2147 1.49724C10.1658 1.45978 10.1247 1.41305 10.0939 1.35972C10.063 1.30639 10.043 1.24751 10.035 1.18643C10.0269 1.12536 10.0309 1.0633 10.0469 1.00379ZM9.75391 4.07801C10.8906 4.38113 11.6188 5.10926 11.9219 6.24598C11.9486 6.34575 12.0074 6.43392 12.0894 6.49678C12.1713 6.55965 12.2717 6.5937 12.375 6.59363C12.4159 6.59378 12.4566 6.58853 12.4961 6.57801C12.5556 6.56214 12.6114 6.53469 12.6603 6.49724C12.7093 6.45978 12.7503 6.41305 12.7811 6.35972C12.812 6.30639 12.832 6.24751 12.8401 6.18643C12.8481 6.12536 12.8441 6.0633 12.8281 6.00379C12.4375 4.54207 11.4578 3.56238 9.9961 3.17176C9.9366 3.15586 9.87454 3.15183 9.81348 3.15991C9.75242 3.16799 9.69355 3.18802 9.64023 3.21885C9.53254 3.28112 9.454 3.38361 9.42188 3.50379C9.38977 3.62397 9.40671 3.75198 9.46897 3.85967C9.53124 3.96735 9.63374 4.04589 9.75391 4.07801ZM15.9602 11.6561C15.8263 12.6774 15.3251 13.615 14.5503 14.2936C13.7755 14.9723 12.78 15.3455 11.75 15.3436C5.63282 15.3436 0.656258 10.3671 0.656258 4.24988C0.654285 3.22023 1.02721 2.22507 1.70538 1.45029C2.38354 0.67551 3.32056 0.174103 4.34141 0.0397277C4.57641 0.0111696 4.81433 0.0596252 5.01944 0.177818C5.22456 0.29601 5.38578 0.477558 5.47891 0.695196L7.12735 4.37488C7.20014 4.54147 7.23025 4.72357 7.21497 4.90471C7.1997 5.08586 7.13951 5.26034 7.03985 5.41238C7.0298 5.42786 7.01884 5.44273 7.00704 5.45691L5.36095 7.41473C5.35095 7.43502 5.34575 7.45734 5.34575 7.47996C5.34575 7.50258 5.35095 7.5249 5.36095 7.5452C5.95938 8.7702 7.24376 10.0452 8.48595 10.6429C8.50669 10.6523 8.52934 10.6568 8.55212 10.656C8.5749 10.6552 8.59718 10.6491 8.61719 10.6382L10.5461 8.99754C10.5599 8.98555 10.5745 8.97459 10.5899 8.96473C10.7412 8.86381 10.9154 8.80224 11.0965 8.7856C11.2777 8.76896 11.4601 8.79777 11.6274 8.86942L15.318 10.5233C15.5327 10.6185 15.7111 10.7803 15.8268 10.9847C15.9424 11.1891 15.9892 11.4254 15.9602 11.6585V11.6561ZM15.0313 11.5405C15.0339 11.5078 15.0262 11.4752 15.0092 11.4471C14.9922 11.4191 14.9669 11.3971 14.9367 11.3843L11.2453 9.73035C11.2252 9.72257 11.2035 9.71924 11.182 9.72059C11.1604 9.72194 11.1394 9.72793 11.1203 9.73816L9.19219 11.3788C9.17813 11.3905 9.16329 11.4014 9.14845 11.4116C8.99117 11.5165 8.8094 11.5788 8.62085 11.5925C8.43231 11.6062 8.24344 11.5708 8.07266 11.4897C6.63829 10.7968 5.2086 9.38035 4.51563 7.95926C4.43413 7.78947 4.39785 7.60152 4.4103 7.41359C4.42276 7.22567 4.48353 7.04415 4.58673 6.8866C4.59679 6.87093 4.60802 6.85605 4.62032 6.84207L6.26563 4.88426C6.27503 4.8638 6.2799 4.84154 6.2799 4.81903C6.2799 4.79651 6.27503 4.77425 6.26563 4.75379L4.62032 1.07098C4.60946 1.04142 4.58993 1.01583 4.56428 0.997571C4.53862 0.979308 4.50805 0.969222 4.47657 0.968634H4.4586C3.66403 1.07433 2.93508 1.46562 2.40789 2.06944C1.8807 2.67325 1.59131 3.44831 1.59376 4.24988C1.59376 9.84988 6.15001 14.4061 11.75 14.4061C12.5517 14.4086 13.3269 14.1191 13.9307 13.5917C14.5345 13.0644 14.9257 12.3352 15.0313 11.5405Z" fill="#F5B61A"/>
</svg>
