<svg width="17" height="16" viewBox="0 0 17 16" fill="none" xmlns="http://www.w3.org/2000/svg">
<path opacity="0.3" d="M16.6235 0.366529C16.5042 0.254025 16.3625 0.164768 16.2065 0.103869C16.0505 0.0429689 15.8833 0.0116217 15.7144 0.0116217C15.5455 0.0116217 15.3783 0.0429689 15.2223 0.103869C15.0663 0.164768 14.9246 0.254025 14.8053 0.366529L8.5 6.28884L2.19465 0.354393C2.07527 0.242036 1.93355 0.15291 1.77757 0.0921034C1.6216 0.0312965 1.45442 1.18387e-09 1.2856 0C1.11677 -1.18387e-09 0.949595 0.0312965 0.793619 0.0921034C0.637644 0.15291 0.495921 0.242036 0.376542 0.354393C0.257163 0.466749 0.162467 0.600135 0.0978598 0.746936C0.0332526 0.893737 -1.25786e-09 1.05108 0 1.20997C1.25786e-09 1.36887 0.0332526 1.52621 0.0978598 1.67301C0.162467 1.81981 0.257163 1.9532 0.376542 2.06555L6.68189 8L0.376542 13.9344C0.257163 14.0468 0.162467 14.1802 0.0978598 14.327C0.0332526 14.4738 0 14.6311 0 14.79C0 14.9489 0.0332526 15.1063 0.0978598 15.2531C0.162467 15.3999 0.257163 15.5333 0.376542 15.6456C0.495921 15.758 0.637644 15.8471 0.793619 15.9079C0.949595 15.9687 1.11677 16 1.2856 16C1.45442 16 1.6216 15.9687 1.77757 15.9079C1.93355 15.8471 2.07527 15.758 2.19465 15.6456L8.5 9.71116L14.8053 15.6456C14.9247 15.758 15.0665 15.8471 15.2224 15.9079C15.3784 15.9687 15.5456 16 15.7144 16C15.8832 16 16.0504 15.9687 16.2064 15.9079C16.3624 15.8471 16.5041 15.758 16.6235 15.6456C16.7428 15.5333 16.8375 15.3999 16.9021 15.2531C16.9667 15.1063 17 14.9489 17 14.79C17 14.6311 16.9667 14.4738 16.9021 14.327C16.8375 14.1802 16.7428 14.0468 16.6235 13.9344L10.3181 8L16.6235 2.06555C17.1134 1.60439 17.1134 0.827692 16.6235 0.366529Z" fill="#1E1E1E"/>
</svg>
