<svg width="12" height="11" viewBox="0 0 12 11" fill="none" xmlns="http://www.w3.org/2000/svg">
<path d="M11.7342 0.251988C11.65 0.174642 11.55 0.113278 11.4399 0.0714097C11.3298 0.0295411 11.2117 0.00798993 11.0925 0.00798993C10.9733 0.00798993 10.8553 0.0295411 10.7452 0.0714097C10.6351 0.113278 10.535 0.174642 10.4508 0.251988L6 4.32358L1.54916 0.243645C1.4649 0.1664 1.36486 0.105126 1.25476 0.0633211C1.14466 0.0215164 1.02665 8.13908e-10 0.90748 0C0.788308 -8.13909e-10 0.670302 0.0215164 0.560202 0.0633211C0.450101 0.105126 0.350062 0.1664 0.265794 0.243645C0.181527 0.32089 0.114683 0.412593 0.0690775 0.513518C0.0234724 0.614444 -8.879e-10 0.722615 0 0.831856C8.879e-10 0.941097 0.0234724 1.04927 0.0690775 1.15019C0.114683 1.25112 0.181527 1.34282 0.265794 1.42007L4.71663 5.5L0.265794 9.57993C0.181527 9.65718 0.114683 9.74888 0.0690775 9.84981C0.0234724 9.95073 0 10.0589 0 10.1681C0 10.2774 0.0234724 10.3856 0.0690775 10.4865C0.114683 10.5874 0.181527 10.6791 0.265794 10.7564C0.350062 10.8336 0.450101 10.8949 0.560202 10.9367C0.670302 10.9785 0.788308 11 0.90748 11C1.02665 11 1.14466 10.9785 1.25476 10.9367C1.36486 10.8949 1.4649 10.8336 1.54916 10.7564L6 6.67642L10.4508 10.7564C10.5351 10.8336 10.6351 10.8949 10.7452 10.9367C10.8553 10.9785 10.9733 11 11.0925 11C11.2117 11 11.3297 10.9785 11.4398 10.9367C11.5499 10.8949 11.6499 10.8336 11.7342 10.7564C11.8185 10.6791 11.8853 10.5874 11.9309 10.4865C11.9765 10.3856 12 10.2774 12 10.1681C12 10.0589 11.9765 9.95073 11.9309 9.84981C11.8853 9.74888 11.8185 9.65718 11.7342 9.57993L7.28337 5.5L11.7342 1.42007C12.0801 1.10302 12.0801 0.569038 11.7342 0.251988Z" fill="#F5B61A"/>
</svg>
