<svg width="73" height="55" viewBox="0 0 73 55" fill="none" xmlns="http://www.w3.org/2000/svg">
<path d="M21.7562 41.7287V50.892H4.07054V24.73H17.8433L17.823 3.80859L17.7505 4.33453H2.74592C1.27188 4.33453 0.643666 4.952 0.643666 6.40052C0.642215 21.6964 0.642215 36.9909 0.643666 52.2868C0.643666 53.7019 1.27768 54.3324 2.6966 54.3324C9.51117 54.3339 16.3257 54.3339 23.1403 54.3324C24.5563 54.3324 25.1874 53.699 25.1889 52.2809C25.1903 50.0479 25.1903 47.8134 25.1903 45.5803V41.6735H21.5125L21.7562 41.7287ZM17.8128 21.2431H4.0923V16.2554H17.8128V21.2431ZM4.0923 7.78221H17.8128V12.7714H4.0923V7.78221Z" fill="white"/>
<path d="M12.87 47.412C13.3213 47.4207 13.7521 47.2507 14.0873 46.9252C14.4224 46.5984 14.6081 46.1683 14.6081 45.715C14.6096 44.8026 13.8407 44.0253 12.9281 44.0166C12.9237 44.0166 12.9179 44.0166 12.9136 44.0166C12.0083 44.0166 11.235 44.7765 11.219 45.6845C11.203 46.5955 11.9604 47.3873 12.87 47.412Z" fill="white"/>
<path d="M17.8461 24.7305H17.8418L17.8461 28.0953V24.7305Z" fill="#FCC110"/>
<path d="M70.1512 20.2877C69.2082 20.2557 68.4726 19.5032 68.4987 18.5966C68.5263 17.674 69.3852 16.8502 70.2789 16.888C71.2234 16.9272 71.9387 17.7394 71.8922 18.72C71.8472 19.6848 71.1407 20.3197 70.1512 20.2877Z" fill="#FCC110"/>
<path d="M36.8403 41.6592V50.9358H36.4225C35.9988 50.9358 35.5795 50.9344 35.1631 50.9344C34.2027 50.9329 33.2553 50.93 32.3079 50.9387C31.5244 50.946 30.9238 51.3426 30.6583 52.0269C30.4508 52.5616 30.5031 53.1006 30.8063 53.5437C31.1472 54.0435 31.7435 54.3312 32.4414 54.3312C37.8225 54.3355 43.2037 54.3341 48.5863 54.3341H53.6598C54.0486 54.3341 54.4375 54.3355 54.8248 54.3384C55.7577 54.3428 56.7225 54.3472 57.667 54.3239C58.5361 54.3021 59.2412 53.628 59.3079 52.7548C59.3718 51.9208 58.7914 51.1581 57.9586 50.9808C57.7425 50.9343 57.4987 50.9358 57.2405 50.9372H57.062C56.1828 50.9329 55.3022 50.9344 54.4288 50.9344H53.0229V41.6243L58.1937 41.6258C61.4914 41.6272 64.7877 41.6287 68.084 41.6214C69.8149 41.6185 71.2352 40.6262 71.7909 39.0338C71.7909 39.0324 71.7923 39.0309 71.7923 39.0295C71.8968 38.7273 71.9679 38.4135 71.9926 38.0953L72.0042 37.9456V32.6586L72.0027 32.66C72.0085 30.5519 72.0027 28.066 71.9897 26.3662C71.9795 25.0644 71.3469 24.2958 70.3285 24.2726C69.2737 24.2479 68.5715 25.0731 68.5671 26.3764C68.5599 28.5237 68.5425 34.9774 68.57 37.1233L68.5744 37.1204V38.1723H21.2903V3.5313H68.5744V6.19297L68.5526 6.19588C68.5526 7.59354 68.5584 8.99121 68.5613 10.3889C68.5613 10.4964 68.5671 10.5981 68.5744 10.6969V10.8117C68.5773 10.8102 68.5816 10.8073 68.5845 10.8059C68.7006 11.9115 69.2839 12.5057 70.2661 12.5173C71.3179 12.5304 71.9026 11.9246 71.9781 10.6853C71.9868 10.6896 71.9969 10.694 72.0056 10.6998V6.6056V5.65395V3.29157L71.9868 3.24073C71.9403 3.12159 71.8736 2.92109 71.833 2.79905C71.2671 1.1079 69.8773 0.103968 68.0884 0.103968C51.7317 0.0981565 36.5821 0.0981565 21.7734 0.103968C19.6813 0.103968 18.1449 1.46094 17.859 3.5589L17.8242 3.81024L17.8445 24.7317H17.8474V28.0966V28.1038V35.7532C17.8474 36.3504 17.846 36.9489 17.8489 37.5475C17.8561 39.7036 18.9646 41.0969 21.0581 41.5764C21.135 41.5938 21.2119 41.6112 21.3004 41.6301L21.5137 41.6766H25.1916V41.6606H36.8403V41.6592ZM40.3339 41.6751H49.5438V50.8966H40.3339V41.6751Z" fill="#FFC20E"/>
<path d="M70.279 16.886C69.3853 16.8482 68.5264 17.672 68.4988 18.5946C68.4712 19.5012 69.2083 20.2552 70.1513 20.2858C71.1408 20.3192 71.8473 19.6828 71.8923 18.7181C71.9387 17.7389 71.2235 16.9267 70.279 16.886Z" fill="#FFC20E"/>
<path d="M68.5215 6.20043L68.553 6.19595C68.553 6.19296 68.553 6.18997 68.553 6.18848C68.5425 6.19146 68.532 6.19446 68.5215 6.20043Z" fill="#FCC110"/>
</svg>
