<svg width="73" height="69" viewBox="0 0 73 69" fill="none" xmlns="http://www.w3.org/2000/svg">
<path d="M35.0586 53.825C36.0438 52.5566 37.5526 51.788 39.0949 51.7677C41.4641 51.7357 43.8739 51.743 46.2054 51.7488C48.3135 51.7546 50.4201 51.7546 52.5282 51.7503C55.1934 51.7445 57.9485 51.7386 60.6572 51.7662C62.1791 51.7808 63.5574 52.4215 64.5382 53.5707C65.4624 54.6531 65.9077 56.0798 65.7801 57.5255H69.3651C69.3956 54.6357 68.4641 52.3459 66.52 50.5342C64.6542 48.7951 62.3155 48.0323 59.3848 48.2038C59.3848 48.2023 59.3848 48.2009 59.3848 48.2009C59.2629 46.1872 59.1324 44.175 59.0032 42.1613C58.6855 37.2128 58.3562 32.0957 58.1385 27.0601C58.0007 23.8841 56.9866 21.3067 54.9482 18.9501C51.4342 14.8849 47.9595 10.6643 44.6008 6.58175C43.607 5.3744 42.6132 4.16706 41.6179 2.96263C40.2483 1.30489 38.5784 0.5 36.5109 0.5C36.5066 0.5 36.5008 0.5 36.4964 0.5C32.8331 0.505812 29.1712 0.505812 25.5078 0.505812C22.744 0.505812 19.9801 0.505812 17.2148 0.508717C16.8144 0.508717 16.3429 0.523246 15.8888 0.624948C13.3687 1.18866 11.7322 3.2779 11.7205 5.94829C11.7046 9.74466 11.7046 13.5221 11.722 17.1747C11.7234 17.4885 11.7162 17.8038 11.7089 18.1176C11.6814 19.2944 11.6538 20.509 12.0818 21.6771C12.076 21.6815 12.0716 21.6844 12.0658 21.6888C11.8874 21.8166 11.7176 21.9372 11.5682 22.097C10.3916 23.3436 9.1337 24.6832 7.91065 26.03C7.71624 26.2435 7.38981 26.6692 7.37966 27.1153C7.33613 28.9401 7.33468 30.5876 7.3753 32.1495C7.39851 33.0009 8.06153 33.63 8.99006 33.6794C9.92295 33.7273 10.6498 33.1738 10.7934 32.2977C10.8703 31.8371 10.9458 31.2342 10.8559 30.653C10.5599 28.757 11.1329 27.2853 12.6084 26.1506C12.7985 26.0053 12.9421 25.8309 13.0829 25.6624C13.1989 25.5229 13.3092 25.3907 13.4282 25.2963C13.6371 25.1321 13.8736 25.0246 14.0303 25.0231C16.0353 24.9926 18.0462 24.9926 20.0048 25.0231C20.176 25.026 20.427 25.1408 20.5634 25.2788C21.3845 26.1041 22.1593 26.9395 22.8659 27.7589C23.008 27.9245 23.114 28.2049 23.1227 28.4403C23.143 29.0113 23.1415 29.5982 23.1386 30.1649C23.1357 30.7402 23.1343 31.3359 23.1546 31.9243C23.1938 32.9965 23.9119 33.7084 24.9594 33.6823C25.9866 33.6619 26.6598 32.9428 26.6743 31.8487C26.6903 30.6269 26.7019 29.0142 26.6641 27.3739C26.6554 27.0354 26.5365 26.5181 26.2289 26.1767C25.1364 24.9708 24.0091 23.7707 22.9195 22.6113C22.6105 22.2815 22.3015 21.9532 21.9939 21.6263C22.3929 19.6068 22.3494 17.5321 22.3073 15.5242C22.2797 14.2282 22.2521 12.8916 22.3421 11.5738L24.0933 11.7554C26.9746 12.0547 29.9546 12.3627 32.8665 12.6911C32.9477 12.6998 33.1552 12.8524 33.2988 13.0703C34.4058 14.76 35.507 16.4541 36.6082 18.1481C38.1373 20.5003 39.7202 22.9324 41.2915 25.3152C41.6484 25.8556 41.7804 26.3888 41.7339 27.0935C41.496 30.7053 41.2711 34.3782 41.0535 37.929C40.9621 39.4182 40.8707 40.906 40.7779 42.3952C40.6908 43.7841 40.6008 45.1745 40.5094 46.5911L40.405 48.2067C37.4496 48.0469 35.108 48.8213 33.2509 50.5691C31.33 52.3779 30.3899 54.717 30.4522 57.5255H34.0474C33.8414 56.2629 34.2012 54.9306 35.0586 53.825ZM30.9673 4.1351C30.9064 4.27748 30.8512 4.41841 30.8005 4.56079C30.7889 4.59276 30.7787 4.62327 30.7686 4.65523C30.7236 4.78744 30.6815 4.9182 30.6452 5.05041C30.6409 5.06785 30.6351 5.08528 30.6307 5.10272C30.5916 5.24655 30.5596 5.39039 30.5306 5.53422C30.5233 5.56764 30.5176 5.5996 30.5118 5.63302C30.4856 5.77831 30.4624 5.92505 30.445 6.06888C30.432 6.19092 30.4218 6.31442 30.416 6.43791C30.4116 6.53961 30.4088 6.64277 30.4088 6.74447C30.4088 6.75464 30.4102 6.76481 30.4102 6.77498C30.4102 6.91155 30.4145 7.04812 30.4247 7.18324C30.4523 7.55808 30.5132 7.93873 30.6075 8.31503C30.6481 8.47921 30.6989 8.64483 30.754 8.81046C30.7613 8.8308 30.7657 8.85114 30.7729 8.87148L30.181 8.81337C29.4904 8.74508 28.8215 8.6797 28.1353 8.61142L27.8683 8.58527L27.6376 8.56202C27.23 8.51989 26.8223 8.47775 26.4146 8.43417L26.1114 8.4022C25.0029 8.28307 23.8568 8.15957 22.7251 8.06949C22.6555 8.06368 22.5931 8.05496 22.5336 8.04479C22.4988 8.03753 22.4669 8.02881 22.4378 8.01864C22.4306 8.01574 22.4219 8.01428 22.4146 8.01283L18.7585 7.61038L18.7658 14.4215H18.7614L18.7629 14.853C18.7643 15.4777 18.7658 16.1039 18.7658 16.7286V17.2909C18.7644 18.0595 18.7614 18.8266 18.7556 19.5937V19.6765C18.7527 20.1182 18.6149 20.5177 18.361 20.8316C18.2232 21.0016 18.0549 21.141 17.8605 21.2442C17.7633 21.2965 17.6603 21.3386 17.5529 21.372C17.3889 21.4229 17.2134 21.449 17.0349 21.4505C16.5692 21.4461 16.1354 21.2878 15.809 20.9827C15.7292 20.9086 15.6581 20.8272 15.5943 20.74C15.4985 20.6064 15.4231 20.4596 15.3723 20.3042C15.352 20.2446 15.3404 20.1836 15.3273 20.1211C15.3215 20.095 15.3143 20.0688 15.3099 20.0412C15.2968 19.9584 15.2896 19.8741 15.2882 19.7884C15.2882 19.787 15.2882 19.7855 15.2882 19.784C15.278 18.9298 15.2722 18.0755 15.2707 17.2183C15.2707 17.1965 15.2707 17.1747 15.2707 17.1529L15.2693 16.4497C15.2678 15.7349 15.2678 15.0172 15.2693 14.2965V14.2733L15.2678 5.74634L15.291 5.56473C15.2939 5.54149 15.2983 5.51679 15.3026 5.49354C15.307 5.47175 15.3114 5.44995 15.3157 5.42671C15.3172 5.41799 15.3186 5.41218 15.3201 5.40346C15.3288 5.36278 15.3404 5.3221 15.3534 5.28287L15.3622 5.25236C15.3752 5.21459 15.3897 5.17681 15.4056 5.13904L15.4216 5.10126C15.4231 5.09691 15.426 5.09109 15.4289 5.08673C15.4405 5.06058 15.4536 5.03443 15.4681 5.00828C15.4724 4.99956 15.4767 4.9923 15.4811 4.98213L15.4927 4.95888C15.5101 4.92837 15.529 4.89786 15.5478 4.8688C15.5507 4.86299 15.5536 4.86009 15.5565 4.85427L15.5769 4.82231C15.5972 4.79325 15.6175 4.7671 15.6378 4.7395L15.6392 4.73804L15.6755 4.69301C15.6958 4.66831 15.7176 4.64506 15.7408 4.62036L15.7843 4.57532C15.8061 4.55353 15.8293 4.53174 15.8525 4.5114C15.8699 4.49541 15.8874 4.48089 15.9048 4.46636C15.928 4.44747 15.9497 4.42858 15.9759 4.40969C15.9947 4.39517 16.0136 4.38209 16.0368 4.36756C16.06 4.35158 16.0832 4.3356 16.1064 4.32107C16.1253 4.30945 16.1456 4.29782 16.179 4.27894L16.1804 4.27748C16.1833 4.27603 16.1833 4.27603 16.1862 4.27458C16.2051 4.26441 16.2239 4.25278 16.2457 4.24261C16.2674 4.23244 16.2892 4.22227 16.311 4.2121L16.3386 4.19903C16.356 4.19031 16.3748 4.18305 16.3922 4.17578C16.4154 4.16706 16.4401 4.15835 16.4764 4.14672L16.5446 4.12348C16.5692 4.11621 16.5939 4.11185 16.6389 4.10023L16.7042 4.0857C16.7361 4.07989 16.7695 4.07553 16.8115 4.07117L16.8681 4.06391C16.9232 4.05955 16.9798 4.05519 17.0407 4.0581H29.5817L29.5614 4.11185H30.9847C30.9746 4.11621 30.9717 4.12638 30.9673 4.1351ZM55.8375 48.1588H43.9697L44.9635 32.0376C48.2424 34.2213 51.5605 34.2227 54.8437 32.0434L55.8375 48.1588ZM49.8978 21.0916C52.4658 21.0916 54.4171 23.0458 54.4418 25.6479C54.465 28.0393 52.3729 30.159 49.966 30.1837C49.9515 30.1837 49.937 30.1837 49.9225 30.1837C48.7604 30.1837 47.5895 29.6869 46.7045 28.8151C45.8485 27.9725 45.3538 26.8625 45.3465 25.7699C45.3378 24.4797 45.8079 23.2884 46.6697 22.4152C47.5068 21.5667 48.6457 21.096 49.8746 21.0902C49.8818 21.0916 49.8891 21.0916 49.8978 21.0916ZM39.5795 16.2027L37.4758 12.9671L37.4816 12.9657L34.7685 8.78722L34.799 8.76397L34.5523 8.45741C34.5175 8.41528 34.4841 8.36879 34.4508 8.31939C34.429 8.28888 34.4072 8.25256 34.3869 8.21914C34.3739 8.1988 34.3623 8.18137 34.3492 8.15957L34.3013 8.07966C34.2854 8.05061 34.2709 8.0201 34.2564 7.99104L34.2418 7.96198C34.2244 7.92711 34.2085 7.8937 34.194 7.86028C34.178 7.82541 34.165 7.78909 34.1505 7.75131C34.149 7.74841 34.149 7.74695 34.1476 7.74405C34.133 7.70482 34.1185 7.66414 34.1055 7.62637C34.0939 7.58859 34.0823 7.55082 34.0707 7.51304C34.0576 7.468 34.0474 7.42151 34.0373 7.37647L34.0315 7.35177C34.0257 7.32417 34.0184 7.29802 34.0141 7.27041C34.0039 7.21665 33.9967 7.15999 33.9894 7.10624L33.9778 7.01616C33.9705 6.92898 33.9647 6.84036 33.9647 6.75173C33.9647 6.5585 33.9836 6.36817 34.0199 6.18366C34.0721 5.91778 34.1635 5.66353 34.2897 5.42961C34.4131 5.20151 34.5697 4.99375 34.754 4.81359C34.8773 4.69301 35.0137 4.58549 35.1573 4.49251C35.6114 4.20048 36.1569 4.04647 36.7315 4.0581C36.82 4.05955 36.9114 4.06536 37.0086 4.07844L37.0985 4.09442C37.1217 4.09878 37.145 4.10314 37.1682 4.1075C37.2059 4.11476 37.2436 4.12057 37.2813 4.12929C37.3031 4.1351 37.3249 4.14091 37.3466 4.14672L37.3829 4.15689C37.4264 4.16997 37.47 4.18305 37.5135 4.19757C37.5236 4.20048 37.5338 4.20339 37.5454 4.20774C37.5773 4.21937 37.6092 4.23244 37.6499 4.24842C37.7006 4.26876 37.75 4.29056 37.8007 4.3138C37.8341 4.32979 37.8675 4.34722 37.9023 4.36466C37.9168 4.37192 37.9313 4.38064 37.9458 4.38935C37.9792 4.40824 38.0126 4.42713 38.0488 4.44892C38.0793 4.46781 38.1098 4.48524 38.1403 4.50558C38.1867 4.53609 38.2316 4.56951 38.2766 4.60438L38.3071 4.62763C38.3259 4.6407 38.3433 4.65523 38.3607 4.66976C38.4086 4.70899 38.4536 4.75112 38.4986 4.79325C38.4986 4.79325 38.4986 4.79325 38.5001 4.79325L38.5668 4.85427C38.6321 4.91965 38.6945 4.98649 38.7525 5.05768L49.1216 17.5553C49.0984 17.5582 49.0766 17.5626 49.0534 17.5655C48.9461 17.58 48.8416 17.5975 48.7371 17.6149C48.6878 17.6236 48.637 17.6309 48.5877 17.6396C48.4353 17.6687 48.2845 17.6992 48.1379 17.734C47.4169 17.904 46.7379 18.1568 46.1198 18.4852C45.4989 18.815 44.9185 19.232 44.3977 19.723C43.8826 20.2083 43.4068 20.7836 42.9831 21.4331L39.5795 16.2027Z" fill="white"/>
<path d="M2.38102 57.5469C0.751738 57.5469 0.143849 58.1601 0.143849 59.8091C0.142399 61.9463 0.142399 64.0849 0.143849 66.2221C0.143849 67.9321 0.718367 68.5089 2.41584 68.5089C11.0933 68.5089 17.493 68.5089 26.1718 68.5089H26.2951C26.4939 68.5104 26.6985 68.5104 26.9088 68.4871C27.7764 68.3898 28.3785 67.7694 28.4424 66.9049C28.512 65.9707 28.0115 65.2617 27.1381 65.0554C26.7812 64.9711 26.4083 64.9639 26.0862 64.9639C19.2513 64.961 14.0486 64.961 7.7172 64.961H3.74193V61.1341H68.5971V64.961H64.3984C57.4823 64.961 51.8632 64.961 44.4045 64.9639C44.049 64.9639 43.7008 64.9711 43.3555 65.0496C42.4807 65.2486 41.9569 65.9678 42.0222 66.8831C42.0744 67.6241 42.485 68.5075 44.139 68.5089H51.0507C57.4547 68.5075 62.9838 68.5075 70.0073 68.522C70.0117 68.522 70.0146 68.522 70.019 68.522C70.6892 68.522 71.6337 68.3912 72.1473 67.2885L72.1836 67.2115V58.8182L72.1473 58.7412C71.5742 57.5164 70.4818 57.5295 69.604 57.5382C69.5242 57.5397 69.4459 57.5397 69.369 57.5397C69.369 57.5353 69.369 57.5295 69.369 57.5251H65.7839H34.0557H30.4605C30.4605 57.5324 30.4605 57.5397 30.4605 57.5469H2.38102Z" fill="#FFC20E"/>
<path d="M35.1123 64.9803C34.1722 65.0224 33.3829 65.8738 33.4236 66.8036C33.4656 67.7611 34.2346 68.4991 35.182 68.4991C35.1936 68.4991 35.2052 68.4991 35.2153 68.4991C36.1874 68.4817 36.9505 67.7102 36.952 66.7455C36.9534 66.2777 36.7518 65.8171 36.4007 65.4801C36.0481 65.1401 35.5795 64.9585 35.1123 64.9803Z" fill="#FCC110"/>
</svg>
