<svg width="63" height="71" viewBox="0 0 63 71" fill="none" xmlns="http://www.w3.org/2000/svg">
<path d="M43.0836 14.1752C37.9288 8.70658 31.5582 6.37181 24.1821 7.68811C15.9254 9.16133 10.4384 14.1258 7.72965 22.1021C7.61069 22.4537 3.99665 35.8347 14.537 44.4982C14.7633 44.6842 14.9969 44.8353 15.2421 44.9196C15.2334 44.9617 15.2247 45.0024 15.2145 45.0445C15.3422 45.1302 15.4626 45.213 15.5801 45.2973C22.4527 50.1921 31.532 50.4783 38.705 46.0296C39.2592 45.6867 39.6683 45.2566 39.5958 44.5563C39.4957 43.58 38.4873 43.0962 37.5443 43.5698C36.5563 44.0653 35.6176 44.6827 34.5918 45.0765C28.1153 47.5653 22.077 46.7255 16.4869 42.6051C16.4854 42.6037 16.484 42.6008 16.4825 42.5993C16.4129 42.531 16.3404 42.4627 16.2678 42.3945C16.2475 42.3669 16.2315 42.3378 16.2185 42.3102C16.2141 42.3175 16.2083 42.3262 16.204 42.3334C15.4887 41.6637 14.727 41.036 14.0988 40.2936C7.03761 31.9439 10.6705 21.9801 10.6386 21.9728C11.2769 20.2221 12.1881 18.5963 13.4082 17.0301C13.6099 17.2858 13.7593 17.5168 13.9494 17.7072C19.3813 23.154 24.8176 28.5965 30.2539 34.0404C31.1461 34.9339 31.9774 35.0705 32.5955 34.4269C33.2092 33.7876 33.0743 33.019 32.1878 32.1328C26.7037 26.6409 21.2195 21.1505 15.7325 15.6615C15.5584 15.4872 15.3538 15.3433 15.1187 15.1472C16.5725 13.7364 18.1278 12.6875 19.9747 11.7968C20.1125 11.9843 20.2387 12.208 20.4128 12.3824C23.7178 15.7007 27.0272 19.0148 30.3395 22.3259C30.5469 22.5322 30.7616 22.7414 31.0054 22.8968C31.5335 23.2354 32.1878 23.1467 32.6245 22.7138C33.0424 22.2997 33.1454 21.6038 32.8276 21.0924C32.6753 20.8468 32.4678 20.6289 32.2618 20.4211C29.2586 17.4079 26.2539 14.399 23.2449 11.3915C23.0708 11.2172 22.8706 11.0704 22.6819 10.9106C22.6979 10.822 22.7124 10.7348 22.7284 10.6462C24.069 10.4558 25.4066 10.1362 26.753 10.097C33.7242 9.89503 39.1721 12.7107 43.04 18.5426C43.1155 18.6559 43.1866 18.7707 43.2678 18.8796C43.7887 19.5712 44.5185 19.7441 45.1612 19.3315C45.7879 18.9276 45.9983 18.1096 45.5253 17.418C44.7622 16.3037 44.0078 15.1544 43.0836 14.1752Z" fill="white"/>
<path d="M41.4295 48.7664C36.942 51.755 32.0005 53.1222 26.615 52.8984C21.9346 52.7037 17.6575 51.2959 13.7766 48.6807C13.762 48.7069 13.7461 48.733 13.7301 48.7592C7.70192 44.7056 3.21594 37.8321 2.83582 29.295C2.73282 26.9849 3.20143 24.7271 3.67875 22.6248C3.70051 22.6219 3.72082 22.619 3.67875 22.6248C5.83469 12.6 15.1128 3.62408 27.5827 3.56451C39.7378 3.50639 49.1044 12.0813 51.4924 21.9623C51.2748 22.0785 51.0572 22.1962 50.8396 22.3139L54.3506 20.9656C54.1736 20.8523 53.9806 20.5559 53.9154 20.3423C52.8562 16.8569 51.1849 13.7012 48.8737 10.8899C44.8694 6.01696 39.7393 3.056 33.637 1.52176C27.1504 -0.109821 20.1776 1.92857 18.6499 2.44724C15.2143 3.64587 12.0109 5.27599 9.29638 7.69939C4.59422 11.8997 1.6824 17.1184 0.5551 23.3193C0.309909 24.6705 0.26494 26.058 0.127111 27.428C0.103897 27.6503 0.0719854 27.8726 0.0429688 28.0949L0.140163 30.5386C0.301206 31.5164 0.414373 32.5058 0.631998 33.472C2.64866 42.4188 7.39288 48.7374 14.7921 52.4829C17.5705 53.9576 20.4794 54.9295 23.5653 55.3974V62.0821C22.615 62.2608 21.6909 62.3523 20.8189 62.6138C18.2161 63.394 16.2764 65.9656 16.1646 68.6825C16.1197 69.7576 16.6565 70.3751 17.7228 70.378C24.3473 70.3882 30.9718 70.3882 37.5963 70.3795C38.7614 70.378 39.2953 69.6937 39.1734 68.4442C38.8354 64.9559 35.9598 62.3 32.4445 62.2288C32.2442 62.2245 32.0426 62.2288 31.7451 62.2288V60.7222C31.7451 59.1153 31.7538 57.507 31.7379 55.9001C31.735 55.5485 31.822 55.3698 32.1978 55.3088C35.4636 54.7799 38.5205 53.6568 41.3917 52.018C41.4759 51.97 41.5702 51.9337 41.7298 51.8625V48.2405C41.6529 48.4425 41.5804 48.6662 41.4295 48.7664ZM26.3727 55.717H28.99V62.1838H26.3727V55.717ZM32.7665 64.9733C34.2928 64.9951 35.6668 66.1283 36.1746 67.6146H19.2099C19.5465 66.2315 21.0293 64.9951 22.5991 64.9719C25.9882 64.9239 29.3788 64.9239 32.7665 64.9733Z" fill="white"/>
<path d="M33.9476 37.1403C33.9302 37.8522 34.5439 38.4798 35.2708 38.4944C36.0093 38.5089 36.6201 37.9234 36.6331 37.1897C36.6462 36.456 36.0542 35.8458 35.3201 35.8342C34.5918 35.8225 33.965 36.4197 33.9476 37.1403Z" fill="white"/>
<path d="M41.7842 52.624C41.7842 57.0161 41.7827 61.4081 41.7842 65.8002C41.7856 68.7248 43.4425 70.3797 46.3703 70.3811C50.1918 70.3826 54.0118 70.3826 57.8333 70.3811C60.7553 70.3797 62.4063 68.7205 62.4063 65.7871C62.4078 59.7867 62.4063 53.7878 62.4063 47.7874C62.4063 45.611 61.9958 45.0066 59.9646 44.2279C59.9646 42.4103 59.9544 40.5768 59.9689 38.7447C59.9776 37.5824 59.6381 36.6249 58.6051 35.9668C58.4383 35.8607 58.3483 35.5178 58.3469 35.2839C58.3309 32.0004 58.2859 28.7169 58.3527 25.4363C58.3991 23.18 56.7394 21.1213 54.4761 21.0152C54.4369 21.0138 54.3934 20.9934 54.3499 20.9658L50.8388 22.3141C49.9915 22.7718 49.1414 23.2323 48.2825 23.6798C46.6401 24.537 45.8349 25.8766 45.848 27.7377C45.8654 30.2512 45.861 32.7646 45.8392 35.2767C45.8363 35.5237 45.7174 35.8738 45.5317 35.9988C44.5944 36.6322 44.2245 37.517 44.2245 38.6038C44.2245 40.4823 44.2245 42.3595 44.2245 44.2235C42.1541 45.0429 41.7871 45.5936 41.7842 47.8513C41.7842 47.9414 41.8132 48.0446 41.7784 48.1201C41.7609 48.1579 41.745 48.1971 41.7305 48.2378V51.8569C41.7493 51.8482 41.7639 51.8424 41.7842 51.8322V52.624ZM49.5853 26.064C50.8533 25.4189 52.0938 24.7186 53.3531 24.0561C54.6545 23.3718 55.6164 23.9428 55.6208 25.4044C55.628 28.6196 55.6237 31.8348 55.6222 35.0515C55.6222 35.2069 55.6092 35.3609 55.599 35.5803H48.5683V34.9367C48.5683 32.5583 48.5857 30.1814 48.5581 27.8045C48.5479 26.9836 48.8497 26.4388 49.5853 26.064ZM46.9956 38.3655H57.221V44.2569H46.9956V38.3655ZM44.4958 47.0421H59.6613C59.673 47.2876 59.6904 47.507 59.6918 47.7264C59.6933 53.75 59.6933 59.7736 59.6933 65.7973C59.6933 67.2167 59.245 67.6642 57.8202 67.6642C53.9987 67.6657 50.1772 67.6657 46.3557 67.6642C44.9484 67.6642 44.4987 67.2051 44.4972 65.7798C44.4958 59.7795 44.4972 53.7776 44.4972 47.7772V47.0421H44.4958Z" fill="#FFC20E"/>
</svg>
