<svg width="16" height="15" viewBox="0 0 16 15" fill="none" xmlns="http://www.w3.org/2000/svg">
<path d="M8 14.7498L6.9125 13.7748C5.65 12.6373 4.60625 11.6561 3.78125 10.8311C2.95625 10.0061 2.3 9.26531 1.8125 8.60881C1.325 7.95281 0.9845 7.3498 0.791 6.7998C0.597 6.2498 0.5 5.6873 0.5 5.1123C0.5 3.9373 0.89375 2.95605 1.68125 2.16855C2.46875 1.38105 3.45 0.987305 4.625 0.987305C5.275 0.987305 5.89375 1.1248 6.48125 1.3998C7.06875 1.6748 7.575 2.0623 8 2.5623C8.425 2.0623 8.93125 1.6748 9.51875 1.3998C10.1062 1.1248 10.725 0.987305 11.375 0.987305C12.55 0.987305 13.5312 1.38105 14.3187 2.16855C15.1062 2.95605 15.5 3.9373 15.5 5.1123C15.5 5.6873 15.4033 6.2498 15.2098 6.7998C15.0158 7.3498 14.675 7.95281 14.1875 8.60881C13.7 9.26531 13.0437 10.0061 12.2188 10.8311C11.3938 11.6561 10.35 12.6373 9.0875 13.7748L8 14.7498ZM8 12.7248C9.2 11.6498 10.1875 10.7278 10.9625 9.95881C11.7375 9.1903 12.35 8.5218 12.8 7.9533C13.25 7.3843 13.5625 6.8778 13.7375 6.4338C13.9125 5.9903 14 5.5498 14 5.1123C14 4.3623 13.75 3.7373 13.25 3.2373C12.75 2.7373 12.125 2.4873 11.375 2.4873C10.7875 2.4873 10.2437 2.6528 9.74375 2.9838C9.24375 3.3153 8.9 3.7373 8.7125 4.2498H7.2875C7.1 3.7373 6.75625 3.3153 6.25625 2.9838C5.75625 2.6528 5.2125 2.4873 4.625 2.4873C3.875 2.4873 3.25 2.7373 2.75 3.2373C2.25 3.7373 2 4.3623 2 5.1123C2 5.5498 2.0875 5.9903 2.2625 6.4338C2.4375 6.8778 2.75 7.3843 3.2 7.9533C3.65 8.5218 4.2625 9.1903 5.0375 9.95881C5.8125 10.7278 6.8 11.6498 8 12.7248Z" fill="#F5B61A"/>
</svg>
