<svg width="21" height="24" viewBox="0 0 21 24" fill="none" xmlns="http://www.w3.org/2000/svg">
<path d="M18.5827 19.583H6.66602C6.07018 19.583 5.55993 19.3707 5.13527 18.946C4.7106 18.5213 4.49863 18.0115 4.49935 17.4163V2.24968C4.49935 1.65384 4.71168 1.14359 5.13635 0.718926C5.56102 0.29426 6.07091 0.0822874 6.66602 0.0830097H13.3556C13.6445 0.0830097 13.92 0.137176 14.1822 0.24551C14.4444 0.353843 14.6744 0.507315 14.8723 0.705926L20.1264 5.96009C20.325 6.1587 20.4785 6.38909 20.5869 6.65126C20.6952 6.91343 20.7494 7.18859 20.7494 7.47676V17.4163C20.7494 18.0122 20.537 18.5224 20.1124 18.9471C19.6877 19.3718 19.1778 19.5837 18.5827 19.583ZM13.166 2.24968H6.66602V17.4163H18.5827V7.66634H14.2494C13.9424 7.66634 13.6849 7.56234 13.4769 7.35434C13.2689 7.14634 13.1653 6.88923 13.166 6.58301V2.24968ZM2.33268 23.9163C1.73685 23.9163 1.2266 23.704 0.801934 23.2793C0.377267 22.8547 0.165295 22.3448 0.166017 21.7497V7.66634C0.166017 7.3594 0.270018 7.10193 0.478018 6.89393C0.686018 6.68593 0.943129 6.58229 1.24935 6.58301C1.5563 6.58301 1.81377 6.68701 2.02177 6.89501C2.22977 7.10301 2.33341 7.36012 2.33268 7.66634V21.7497H13.166C13.473 21.7497 13.7304 21.8537 13.9384 22.0617C14.1464 22.2697 14.2501 22.5268 14.2494 22.833C14.2494 23.14 14.1454 23.3974 13.9374 23.6054C13.7294 23.8134 13.4722 23.9171 13.166 23.9163H2.33268Z" fill="#1E1E1E"/>
</svg>
