<svg width="66" height="72" viewBox="0 0 66 72" fill="none" xmlns="http://www.w3.org/2000/svg">
<path d="M27.7323 43.1781C28.1081 42.2439 27.8498 41.545 27.0722 41.2501C26.2727 40.9464 25.6634 41.3489 25.276 42.3223C24.9249 43.2028 24.4853 44.0483 24.0849 44.9084C23.992 44.8997 23.9006 44.8925 23.8078 44.8837C22.6979 43.1781 21.588 41.4709 20.4723 39.7565C21.0323 39.1536 21.5909 38.5928 22.106 37.9927C23.2927 36.6125 24.0559 35.0085 24.4911 33.2506C24.642 32.6389 24.7407 31.9851 24.1226 31.526C23.3159 30.9274 22.3468 31.2921 22.0566 32.3396C21.604 33.9697 20.9264 35.4691 19.7527 36.7113C19.5249 36.9525 19.2725 37.169 18.9867 37.4407C17.7201 35.504 16.5014 33.6239 15.2652 31.7555C14.7705 31.0073 14.2148 30.8213 13.5562 31.1264C12.7335 31.5085 12.5246 32.2626 13.0643 33.1227C14.093 34.7572 15.1535 36.3713 16.1996 37.9942C16.3693 38.2572 16.5362 38.5216 16.7509 38.8572C15.6541 39.4718 14.4963 39.7318 13.2965 39.7609C12.4565 39.7812 11.6135 39.6795 10.772 39.6345C10.2004 39.604 9.72452 39.7464 9.47498 40.3333C9.10212 41.2109 9.5243 41.9576 10.5892 42.1741C12.5406 42.5708 14.476 42.4647 16.3737 41.8501C16.9903 41.6511 17.5939 41.4143 18.2598 41.1745C19.258 42.7015 20.2518 44.2227 21.2775 45.7918L28.0137 46.3773H28.0167C27.4944 46.3119 26.9735 46.2451 26.4526 46.1797C26.8792 45.183 27.3261 44.1878 27.7323 43.1781Z" fill="white"/>
<path d="M38.1641 46.2198C38.4615 46.1181 38.7545 46.0019 39.0317 45.8711C38.6777 46.0091 38.3962 46.1268 38.1641 46.2198Z" fill="black"/>
<path d="M10.3313 48.9834C10.3065 49.0082 10.2831 49.0331 10.2598 49.0579C10.2831 49.0331 10.3079 49.0082 10.3313 48.9834Z" fill="black"/>
<path d="M9.49259 49.9317C9.20243 50.2673 8.96884 50.4053 8.51473 50.2629C5.62177 49.3534 3.79662 47.4008 3.29173 44.4514C2.75782 41.3423 3.73136 38.6239 6.5068 36.9618C7.91121 36.1206 8.37692 35.2286 8.35226 33.6246C8.26376 27.97 13.9989 24.47 19.0565 26.9951C19.1639 27.0489 19.2799 27.0924 19.3771 27.1622C20.2578 27.7985 20.9977 27.6373 21.8421 26.9631C25.4619 24.0792 30.6617 25.0729 32.986 29.0379C34.7357 32.0235 34.0973 35.9434 31.4742 38.2854C31.2406 38.4946 30.9853 38.6792 30.7444 38.8796C29.8696 39.6104 29.7608 40.1073 30.3658 41.0677C31.3944 42.7022 32.4593 44.312 33.5083 45.9334C33.6824 46.2021 33.8507 46.4782 34.1452 46.9504C34.785 46.9111 36.0719 46.7964 37.3733 46.4564C36.9424 46.4666 36.8089 46.038 36.0617 44.9294C35.0665 43.4547 34.1176 41.9481 33.1397 40.4458C33.3516 40.2235 33.5141 40.0478 33.6824 39.8778C37.1469 36.3981 37.604 30.8525 34.7545 26.86C31.6265 22.4766 25.6534 21.3303 21.0267 24.1983C20.7264 24.3843 20.2186 24.5238 19.9342 24.3988C16.9049 23.0622 13.9829 23.299 11.1059 24.8463C7.77918 26.6362 5.72915 29.25 5.66531 33.1713C5.65225 33.9558 5.3055 34.4992 4.64247 34.9598C2.59099 36.3836 1.21994 38.3363 0.572868 40.7495C0.17679 42.2271 0.43939 43.7381 0.716499 45.1997C1.43901 49.0207 3.85467 51.3976 7.40776 52.7081C7.91846 52.897 8.10997 53.1251 8.10127 53.6845C8.09401 54.0753 8.09255 54.4647 8.08965 54.8555C8.11721 54.5591 8.47703 51.0519 10.0889 49.2474C9.88288 49.4726 9.68846 49.705 9.49259 49.9317Z" fill="white"/>
<path d="M41.2237 67.2317C47.5217 67.1983 53.8213 67.2129 60.1193 67.2114C62.5132 67.2114 64.0424 66.1929 64.6546 63.8669C65.0101 62.5157 65.0797 61.0657 65.1029 59.6564C65.1827 54.9215 65.1885 50.1866 65.2117 45.4516C65.2132 45.1175 65.1726 44.7717 65.0812 44.4521C64.9085 43.8506 64.4892 43.5426 63.8465 43.5469C62.947 43.5513 62.5161 44.0351 62.519 45.148C62.5277 48.7482 62.5524 52.347 62.5741 55.9472C62.5785 56.6722 62.6278 57.3987 62.5944 58.1207C62.519 59.732 62.5219 61.3592 62.2665 62.9443C62.0533 64.2722 61.4062 64.6311 60.0671 64.6311C55.4825 64.6325 50.8964 64.6311 46.3117 64.6311C46.0607 64.6311 45.8097 64.6311 45.5254 64.6311C45.5704 64.4756 45.5689 64.4146 45.5979 64.3928C45.8097 64.2344 46.0216 64.0761 46.2435 63.9308C46.2435 63.9308 42.734 66.2525 39.9121 67.624C40.3387 67.4264 40.787 67.2332 41.2237 67.2317Z" fill="white"/>
<path d="M65.2181 32.2428C65.2268 29.3051 64.6726 26.4982 63.4089 23.8249C62.4513 21.7981 61.5953 19.7219 60.7045 17.6647C59.57 15.0408 59.5569 12.2658 59.6062 9.47915C59.615 9.01713 59.7441 8.78758 60.1866 8.64956C61.5417 8.22822 62.1365 7.23011 62.1728 5.8615C62.196 5.01592 62.2032 4.17033 62.1815 3.32476C62.1336 1.44473 61.2225 0.482934 59.3494 0.352175C58.5558 0.296966 57.7579 0.302783 56.9614 0.302783C53.343 0.302783 49.7261 0.286791 46.1077 0.328924C44.8658 0.343453 43.8865 1.2457 43.7617 2.47919C43.6456 3.62696 43.6587 4.79072 43.6587 5.94866C43.6587 7.37103 44.3304 8.31975 45.7131 8.75707C45.8843 8.81083 46.1062 9.05201 46.1178 9.21909C46.334 12.2106 46.1468 15.1556 44.9427 17.9567C44.1432 19.8178 43.3148 21.6674 42.5111 23.5285C41.243 26.4677 40.5495 29.5216 40.5814 32.7412C40.6177 36.3647 40.5887 39.9881 40.5916 43.6131C40.5931 44.7681 40.6264 45.1153 40.2927 45.3507L44.9673 43.4242C44.4653 43.6189 43.9561 43.7903 43.3525 44.0068C43.3525 43.5826 43.3554 43.3196 43.3525 43.0566C43.3206 39.9896 43.2626 36.9211 43.2669 33.8541C43.2698 32.2879 43.3148 30.7144 43.4715 29.1569C43.6833 27.0561 44.7642 25.2342 45.5172 23.3076C45.7508 22.7105 46.07 22.5144 46.6953 22.5173C50.4123 22.542 54.1279 22.5057 57.8449 22.5376C60.4071 22.5609 59.6773 22.0829 60.7814 24.483C62.0117 27.1578 62.7009 29.9357 62.521 32.9039C62.4789 33.6013 62.4876 34.3074 62.5311 35.0048C62.5877 35.9259 63.1405 36.4693 63.9196 36.4475C64.7088 36.4257 65.1977 35.8649 65.2137 34.9249C65.2297 34.0313 65.2152 33.1378 65.2181 32.2428ZM47.087 19.7379C48.7511 16.3062 48.976 12.6711 48.8265 8.9445C51.544 8.9445 54.183 8.9445 56.8351 8.9445C56.9396 10.7998 56.912 12.6435 57.1848 14.4422C57.4532 16.2191 58.0263 17.9494 58.4746 19.7379C54.73 19.7379 50.9607 19.7379 47.087 19.7379ZM58.8199 6.19274C57.4691 6.18257 56.1199 6.19129 54.7692 6.19274C52.2607 6.19274 49.7536 6.19421 47.2451 6.1913C46.276 6.18985 46.2658 6.17386 46.2687 5.2382C46.2702 4.7791 46.3108 4.31563 46.2586 3.86233C46.1788 3.17076 46.4124 2.92378 47.1305 2.93976C49.0833 2.98189 51.0362 2.95428 52.9904 2.95428C54.92 2.95428 56.8482 2.97026 58.7778 2.9441C59.3248 2.93684 59.583 3.07632 59.5438 3.66909C59.5047 4.27058 59.5032 4.8779 59.5438 5.47939C59.5801 6.04165 59.3175 6.19564 58.8199 6.19274Z" fill="white"/>
<path d="M44.9688 43.4226L47.2509 42.6875C46.4805 42.8793 45.7203 43.1321 44.9688 43.4226Z" fill="black"/>
<path d="M62.5352 39.9529C62.528 40.6866 63.117 41.2736 63.8671 41.2809C64.6128 41.2881 65.2077 40.7099 65.2135 39.9718C65.2193 39.2439 64.6143 38.6294 63.8889 38.625C63.1751 38.6207 62.5425 39.241 62.5352 39.9529Z" fill="white"/>
<path d="M39.0312 45.8707C39.6914 45.6121 40.0744 45.506 40.2949 45.3506L39.0312 45.8707Z" fill="#FFC20E"/>
<path d="M38.1632 46.2188C37.9021 46.3074 37.6366 46.3858 37.3711 46.4556C37.5553 46.4512 37.7962 46.3655 38.1632 46.2188Z" fill="#FFC20E"/>
<path d="M10.0859 49.247C10.144 49.183 10.202 49.1191 10.26 49.0566C10.2005 49.1206 10.1425 49.183 10.0859 49.247Z" fill="#FFC20E"/>
<path d="M28.0137 46.3809C28.7565 46.4753 29.5008 46.5668 30.245 46.6467C31.4899 46.7804 32.739 46.8777 34.1812 47.0099C34.1681 46.9896 34.1565 46.9707 34.1434 46.9504C33.8794 46.9664 33.7256 46.9693 33.7256 46.9693L28.0137 46.3809Z" fill="#FFC20E"/>
<path d="M39.0297 45.8713C38.7526 46.002 38.461 46.1182 38.1621 46.2199C37.7951 46.3667 37.5557 46.4524 37.37 46.4568C36.07 46.7967 34.7831 46.913 34.1419 46.9507C34.1549 46.9711 34.1665 46.99 34.1796 47.0103C32.7375 46.8796 31.4883 46.7808 30.2435 46.6471C29.4977 46.5672 28.7549 46.4742 28.0121 46.3812H28.0092L21.273 45.7957C20.4562 45.7957 19.5813 45.7725 18.7093 45.8001C15.9615 45.8887 13.4559 46.772 11.1752 48.2612C10.869 48.4617 10.5934 48.7116 10.3322 48.9833C10.309 49.008 10.2843 49.0327 10.2611 49.0574C10.2016 49.1199 10.148 49.1867 10.087 49.2477C7.86145 51.4445 8.11534 54.5595 8.08778 54.8559C8.07472 56.6647 8.09215 58.4735 8.06748 60.2823C8.03992 62.3062 8.54044 64.1673 9.76059 65.7859C11.5596 68.1715 14.0173 69.6113 16.8261 70.4627C21.0408 71.7383 25.3179 71.7761 29.6269 70.9857C33.1234 70.3435 36.4516 69.1987 39.6782 67.7298C39.7551 67.6949 39.835 67.6586 39.9147 67.6223C42.7366 66.2522 46.2462 63.9291 46.2462 63.9291C48.8635 62.2219 51.34 60.3448 53.4234 57.9912C54.8815 56.3421 55.9697 54.5391 55.9232 52.2247C55.8884 50.4609 55.9319 48.6956 55.8797 46.9333C55.8623 46.342 55.7419 45.7231 55.5243 45.1739C54.7393 43.1921 53.0854 42.4788 51.1123 42.3262C49.7891 42.2245 48.5066 42.3771 47.253 42.6895L44.9709 43.4246L40.2963 45.3511C40.0729 45.5051 39.6913 45.6112 39.0297 45.8713ZM48.4514 44.9123C49.6556 44.5215 50.9236 44.5201 52.1423 45.0111C53.5671 45.5865 53.8456 46.4931 53.0593 47.7934C51.43 50.4841 49.0318 52.3947 46.5726 54.2311C41.3133 58.1597 35.4955 60.865 29.0262 62.0839C27.9178 62.2931 26.7832 62.3672 25.6574 62.4747C24.6795 62.5677 24.2167 62.867 24.15 63.5165C24.0499 64.5015 24.6708 65.0158 25.7415 64.9388C33.8575 64.3461 40.9738 61.1119 47.5403 56.5354C49.4293 55.2191 51.0789 53.5599 52.8388 52.0562C52.9983 51.9196 53.1536 51.7772 53.4234 51.5375C53.6759 52.8044 53.467 53.8301 52.8112 54.7788C51.6056 56.5238 50.1126 57.9955 48.4616 59.3089C43.1269 63.5499 37.2887 66.8072 30.5917 68.3371C25.7517 69.4428 20.9451 69.4805 16.2284 67.6833C14.5585 67.047 13.0525 66.1709 11.9064 64.7543C11.0417 63.6864 10.5992 62.4573 10.4671 61.1061C10.4483 60.9071 10.4991 60.7008 10.531 60.3376C10.8241 60.541 10.9706 60.6209 11.091 60.7298C13.3949 62.8423 16.2038 63.868 19.1939 64.4928C19.9222 64.6453 20.5026 64.2836 20.668 63.6516C20.8522 62.9469 20.5519 62.4384 19.7438 62.19C18.7079 61.8703 17.6357 61.6553 16.6245 61.2761C14.3641 60.4291 12.3489 59.2174 11.194 56.9712C9.73736 54.141 10.441 51.6276 13.1077 49.8943C14.9706 48.684 17.0626 48.1189 19.2215 48.1842C22.1507 48.2729 25.1017 48.4574 27.9874 48.9368C33.09 49.7853 37.9358 49.3349 42.6365 47.0786C44.4936 46.1851 46.4841 45.5502 48.4514 44.9123Z" fill="#FFC20E"/>
<path d="M24.5297 52.814C23.3559 51.7926 21.9094 51.5573 20.4499 51.4425C19.1369 51.521 17.8863 51.7345 16.7692 52.4348C14.7148 53.7221 14.6567 55.9493 16.6386 57.3383C16.8751 57.5039 17.1217 57.6884 17.3916 57.7625C18.2693 58.0008 19.1543 58.3349 20.048 58.3713C21.6294 58.4352 23.1819 58.1592 24.4658 57.1102C25.9646 55.8854 25.9863 54.0824 24.5297 52.814ZM22.6523 55.3754C21.1434 56.2021 19.6418 56.1862 18.1315 55.3885C17.5642 55.0892 17.5076 54.742 18.0909 54.4848C18.8192 54.1637 19.6186 54.0068 20.4282 53.7657C21.2261 54.0054 22.0023 54.1594 22.7074 54.4747C23.2819 54.7304 23.2152 55.066 22.6523 55.3754Z" fill="#FFC20E"/>
</svg>
