<svg width="68" height="73" viewBox="0 0 68 73" fill="none" xmlns="http://www.w3.org/2000/svg">
<path d="M37.0896 65.5331C36.2293 65.4924 35.5184 66.1215 35.4835 66.9511C35.4502 67.7371 36.1727 68.4912 36.9808 68.5159C37.7759 68.5391 38.436 67.8926 38.4635 67.063C38.494 66.1942 37.9369 65.5738 37.0896 65.5331Z" fill="white"/>
<path d="M67.679 66.178C67.0146 60.9418 66.5648 59.656 65.7059 54.2077C64.9892 49.6631 63.1452 45.9162 59.6153 43.0177C56.5163 40.4722 52.9284 39.1167 48.9401 38.7854C48.5716 38.7549 48.058 38.6881 47.8824 38.4425C47.1091 37.3631 46.433 36.2109 45.7134 35.0704C45.8629 34.9353 45.9804 34.822 46.1051 34.7188C48.8632 32.4436 50.6521 29.5742 51.3673 26.0597C51.9259 23.3181 51.6691 20.5387 51.6575 17.7739C51.656 17.3816 51.6821 17.0315 51.7794 16.693L48.1871 18.926C48.383 18.8665 48.5759 18.7967 48.8777 18.6965C48.8429 21.9248 49.1562 25.0485 47.8012 28.0211C45.5567 32.9449 40.3685 35.8681 35.0222 35.13C29.731 34.3992 25.3277 30.1234 24.6618 24.8233C24.4224 22.9171 24.6052 20.9572 24.6197 18.99L21.47 16.3486C21.5701 16.5738 21.7311 16.8063 21.7311 17.0359C21.7282 19.0074 21.6557 20.979 21.6803 22.9491C21.7413 27.7348 23.6071 31.6765 27.298 34.7363C27.4213 34.8394 27.5794 34.9004 27.7071 34.9716C26.9875 36.1049 26.339 37.0812 25.7412 38.088C25.4772 38.5326 25.1827 38.7346 24.6415 38.7636C24.5008 38.7709 24.3615 38.784 24.2222 38.7941C23.8334 38.8217 23.4489 38.8595 23.0688 38.9075C23.0644 38.8668 23.0586 38.8247 23.0543 38.784C22.5668 34.4806 20.1613 31.4542 16.1744 29.7006C14.815 29.1035 13.9285 29.7267 13.9227 31.2276C13.9169 33.2936 13.9314 35.3595 13.9082 37.4255C13.9053 37.6972 13.8125 38.0503 13.6282 38.2217C13.1146 38.6953 12.5314 39.092 11.9554 39.5337C11.4462 39.1443 10.9819 38.7477 10.4756 38.4179C10.0911 38.168 9.98662 37.8672 9.99098 37.4255C10.0127 35.313 10.0113 33.1991 9.99678 31.0866C9.98662 29.7747 9.08856 29.1819 7.86115 29.6483C3.7727 31.2029 0.827511 35.2985 0.744813 39.6717C0.662116 44.071 2.53369 47.4417 6.24347 49.8026C6.44949 49.9334 6.66856 50.2574 6.65841 50.4811C6.51042 53.506 6.32617 56.528 6.14481 59.55C5.95185 62.7768 5.72262 62.261 5.56448 65.4893C5.55723 65.6361 5.54852 65.7828 5.54127 65.931C5.52531 66.2681 5.53546 66.5993 5.57028 66.9262C5.54997 67.3708 5.5964 67.673 5.75309 67.9084C5.75744 67.9229 5.7618 67.9374 5.76615 67.952C6.26814 69.7753 7.55793 71.295 9.34101 72.0621C10.0621 72.3716 12.6475 73.178 15.1008 71.7934C16.5604 70.9696 17.4787 69.909 17.9517 68.6159H27.4706C27.459 68.5883 27.4489 68.5593 27.4373 68.5302C28.0872 68.5288 28.7372 68.5273 29.3886 68.5258C30.5928 68.5229 31.2428 67.9941 31.2544 67.0279C31.266 66.0414 30.6625 65.5227 29.4249 65.5155C27.1007 65.501 24.7764 65.4893 22.4522 65.5184L22.4507 65.5547H18.3275C18.2651 63.9987 18.1302 62.4455 18.0707 60.8895C18.0591 60.5771 17.7791 59.9626 17.7747 59.9001C17.5846 56.7837 17.4076 53.6673 17.1973 50.5523C17.1668 50.1048 17.3902 49.9523 17.7036 49.7518C20.8127 47.757 22.6553 45.0807 23.0601 41.7449C23.578 41.665 24.1061 41.6055 24.6444 41.5662C25.1493 41.5299 25.1595 41.8757 25.2552 42.1648C26.2679 45.2101 27.2719 48.2596 28.2787 51.3078C28.8475 53.0294 29.7006 53.3026 31.1398 52.2304C32.5268 51.1988 33.9138 50.1687 35.4285 49.0442C35.4285 49.0442 36.2366 48.4398 36.7966 48.0345C37.2391 48.3497 39.0381 49.621 39.3863 49.8752C40.5412 50.7194 41.6888 51.5722 42.8466 52.412C43.9768 53.2328 44.9648 52.8987 45.3696 51.5446C46.2908 48.4689 47.2165 45.3946 48.0928 42.3058C48.2654 41.6955 48.5338 41.5779 49.12 41.62C55.3818 42.0791 61.0647 46.5656 62.4996 52.3771C62.9755 54.3022 64.2594 61.4329 64.6918 64.8777C64.7237 65.129 64.7281 65.3847 64.7484 65.6869H58.0847L55.2701 65.5504H50.7043L50.7057 65.5097C48.5425 65.4879 46.3779 65.4951 44.2147 65.5111C43.0729 65.5198 42.3997 66.0763 42.3794 66.9713C42.3576 67.8982 43.0816 68.5157 44.2234 68.52C44.8792 68.5229 45.5364 68.5258 46.1922 68.5287C46.1791 68.5564 46.1661 68.5854 46.1516 68.6116H66.3922C67.045 68.4663 67.534 68.1161 67.7995 67.4841V66.4976C67.7559 66.3945 67.6936 66.2899 67.679 66.178ZM20.0699 42.3392C20.0569 42.3871 20.0453 42.4351 20.0308 42.483C19.3793 44.7248 17.7936 46.6411 15.5172 47.7134C14.6235 48.1347 14.284 48.7173 14.3464 49.7009C14.5887 53.5612 14.8208 53.6789 15.0471 57.5392C15.0645 57.8356 15.0805 58.1305 15.0979 58.4269C15.243 60.9026 15.3866 63.3783 15.5245 65.854C15.581 66.8826 15.2662 67.7936 14.7207 68.4837C14.6844 68.5287 14.6482 68.5723 14.609 68.6159C13.6935 69.6649 12.2151 70.1356 10.7338 69.6068C10.152 69.399 9.65003 69.0547 9.25686 68.6159C9.21768 68.5723 9.17996 68.5287 9.14369 68.4837C8.59817 67.811 8.2993 66.9393 8.35008 65.992C8.50677 63.0761 8.69248 60.1616 8.87383 57.2471C8.9014 56.8113 8.92751 60.118 8.95508 59.6822C9.16255 56.2853 9.36276 52.8871 9.58184 49.4902C9.61666 48.9498 9.46722 48.5633 9.18141 48.2596C8.97974 48.0461 8.70989 47.8732 8.38781 47.7206C2.93702 45.1301 1.85905 37.9747 6.29135 33.8878C6.52929 33.6684 6.79044 33.4781 7.18796 33.1541C7.18796 35.0297 7.20973 36.7151 7.17781 38.4004C7.16475 39.1298 7.4259 39.6484 8.00913 40.0727C8.95653 40.7628 9.87201 41.4965 10.8034 42.2084C11.6986 42.8927 12.1846 42.9029 13.0667 42.2331C14.0199 41.511 14.9528 40.7599 15.9176 40.0552C16.5038 39.6266 16.7504 39.0862 16.7403 38.3714C16.7214 36.9156 16.733 35.4598 16.7359 34.004C16.7359 33.7803 16.7548 33.5565 16.7707 33.2049C18.5509 34.5256 19.6564 36.1528 20.1294 38.1868C20.2208 38.5762 20.2817 38.967 20.318 39.3535C20.3209 39.3855 20.3238 39.4189 20.3253 39.4508C20.4123 40.4417 20.3209 41.4166 20.0699 42.3392ZM30.5827 49.1328C30.4942 48.928 30.4144 48.774 30.3607 48.6098C29.512 46.0556 28.6763 43.4986 27.8116 40.9502C27.6694 40.5318 27.6912 40.2136 27.9451 39.8431C28.4964 39.0368 28.9984 38.197 29.57 37.2919C31.3835 40.2034 33.1361 43.0191 34.925 45.8915C33.4742 46.9768 32.0553 48.0345 30.5827 49.1328ZM33.1129 37.6391C35.5663 38.197 37.8789 38.1636 40.3424 37.6377C39.1165 39.6848 37.9819 41.5808 36.8024 43.5509C35.5605 41.5604 34.3766 39.6644 33.1129 37.6391ZM45.6481 40.7003C44.8328 43.484 43.9985 46.2634 43.1425 49.1328C41.6482 48.0374 40.2075 46.9811 38.7001 45.8755C40.399 43.0366 42.0762 40.231 43.8085 37.3355C44.4425 38.3336 45.017 39.2169 45.5611 40.1163C45.6568 40.2717 45.6989 40.526 45.6481 40.7003Z" fill="white"/>
<path d="M24.6235 18.7752C24.8643 18.845 25.1501 18.9307 25.4388 19.0106C26.2919 19.2445 27.1581 19.3549 27.9865 18.9757C30.7866 17.6928 33.7681 17.4531 36.7771 17.4575C39.715 17.4618 42.6211 17.7306 45.3631 18.9539C46.2801 19.3636 47.2478 19.2126 48.1865 18.9292L51.7787 16.6962C51.8556 16.4288 51.9746 16.1688 52.1676 15.9029C53.189 14.4892 53.1454 13.4112 52.1705 11.9511C52.0718 11.4832 51.3348 8.32468 48.8582 5.38115C46.4252 2.48992 41.8144 -0.738372 33.6665 0.297531L33.6839 0.43991C33.3807 0.477685 33.0789 0.527082 32.7815 0.593915C27.2393 1.84048 23.7138 5.38696 21.7073 10.5999C21.4766 11.1985 21.0791 11.7331 20.8542 12.3332C20.6482 12.8882 20.374 13.5333 20.4842 14.0636C20.6496 14.8597 21.1284 15.5905 21.4694 16.3504L24.6191 18.9917C24.622 18.9191 24.6235 18.8464 24.6235 18.7752ZM31.1812 4.01544C32.1098 3.59992 33.0659 3.36165 34.0394 3.22944L34.0437 3.26576C40.6479 2.42745 44.4549 4.78402 46.608 7.33818C47.1419 7.97164 47.5742 8.61671 47.9224 9.22837C47.9659 9.30392 48.0066 9.37802 48.0472 9.45357C40.3781 7.23067 32.8802 7.25101 25.3054 9.47246C26.6996 6.9924 28.6162 5.16321 31.1812 4.01544ZM23.6978 13.5202C25.3039 12.4465 27.0826 11.8087 28.9542 11.4353C34.8823 10.2497 40.7858 10.2338 46.5993 12.0615C47.8267 12.4479 48.9583 13.1352 50.1088 13.6713C49.4864 15.592 47.2739 16.6686 45.6461 16.0337C42.4151 14.774 39.0288 14.5721 35.6193 14.6534C32.6785 14.7246 29.7783 15.0748 27.0536 16.3126C26.8563 16.4027 26.5792 16.4347 26.3746 16.3736C25.2241 16.0293 24.2506 15.406 23.5223 14.4297C23.2423 14.0563 23.2814 13.7977 23.6978 13.5202Z" fill="#FFC20E"/>
</svg>
