<svg width="73" height="59" viewBox="0 0 73 59" fill="none" xmlns="http://www.w3.org/2000/svg">
<path d="M70.4071 26.3186C60.1076 17.8019 49.5702 9.09768 40.2747 1.41776C39.3012 0.61287 38.0695 0.169742 36.8087 0.169742C35.545 0.169742 34.3089 0.615776 33.3281 1.42358C31.3768 3.03337 29.4283 4.64606 27.4798 6.26021C26.2002 7.31936 24.9205 8.37996 23.6395 9.43765C23.4886 9.5626 23.3348 9.67447 23.1404 9.81831C23.0388 9.8924 22.9286 9.97376 22.8009 10.0697L22.4193 10.3559V9.87933C22.4193 9.33305 22.4237 8.80565 22.428 8.29424C22.4367 7.20603 22.444 6.17739 22.4106 5.15457C22.3294 2.68032 20.6841 0.67825 18.3192 0.175554C17.5576 0.0128316 16.7335 -0.000244141 16.0211 -0.000244141C15.8978 -0.000244141 15.7745 -0.000244384 15.6526 0.00120849C15.5293 0.00120849 15.406 0.00266113 15.2841 0.00266113H15.1405H15.1086C11.4873 0.00266113 9.32262 2.18634 9.31827 5.84468L9.31682 7.16244C9.31102 11.4165 9.30521 15.8158 9.33278 20.1425C9.33858 20.975 9.09194 21.5111 8.48259 21.992C6.96212 23.192 5.4489 24.4546 3.985 25.6765C3.63535 25.9685 3.28715 26.2591 2.9375 26.5497C1.81165 27.4868 1.1138 28.7914 0.970171 30.2254C0.827989 31.6565 1.25453 33.06 2.17291 34.1744C3.21026 35.434 4.73509 36.1575 6.35567 36.1575C7.61354 36.1575 8.80613 35.7333 9.8043 34.9328C10.0031 34.7729 10.2004 34.6131 10.4398 34.4213L10.8547 34.0872L11.2421 33.7748V34.2732V39.3989C11.2406 43.2331 11.2406 46.9946 11.2435 50.7561C11.2464 53.1344 12.0255 55.1772 13.501 56.6635C14.9765 58.1512 17.0048 58.9387 19.3668 58.9416C24.0515 58.9459 28.7377 58.9474 33.4224 58.9474C40.3226 58.9474 47.3316 58.943 54.2535 58.9343C55.0384 58.9329 55.7595 58.8559 56.3993 58.7033C60.0554 57.8301 62.3347 54.8081 62.3463 50.8156C62.3579 47.2256 62.355 43.5745 62.3521 40.044C62.3506 38.4967 62.3506 36.9494 62.3506 35.402V34.2426V33.7399L62.7394 34.0581L63.1776 34.4184C63.4228 34.6189 63.6201 34.7817 63.8174 34.9415C64.804 35.7406 65.9893 36.1633 67.2443 36.1633C69.0448 36.1633 70.7219 35.2698 71.7317 33.7719C73.3755 31.3296 72.8445 28.3338 70.4071 26.3186ZM12.7161 5.81708C12.7248 4.12012 13.4241 3.42128 15.1289 3.40385L15.4118 3.40094C15.6454 3.39804 15.8789 3.39513 16.1125 3.39513C16.4622 3.39513 16.7509 3.4024 17.0208 3.41547C18.2438 3.48085 18.9895 4.20293 19.0127 5.35071C19.0577 7.44721 19.0461 9.57713 19.036 11.6388L19.0302 12.7894C19.0287 13.0088 18.9228 13.3197 18.7226 13.4868C17.279 14.6971 15.8224 15.8986 14.2801 17.1713L13.1006 18.1448L12.7103 18.4673V17.9617V16.2734V12.5686C12.7103 11.9003 12.7089 11.232 12.7089 10.5636C12.7089 9.00615 12.7074 7.39926 12.7161 5.81708ZM69.0201 31.5243C68.7532 31.8817 68.476 32.2507 68.1017 32.4992C67.8333 32.6779 67.5417 32.768 67.237 32.768C66.7887 32.768 66.323 32.5747 65.8544 32.1912C64.4384 31.0361 62.9933 29.868 61.5976 28.7377C60.9578 28.2205 60.318 27.7018 59.6796 27.1846L52.9463 21.7275C48.0831 17.7859 43.2214 13.8442 38.3567 9.90403C37.6806 9.35629 37.2323 9.13255 36.8101 9.13255C36.3894 9.13255 35.944 9.35484 35.2722 9.89821L33.9854 10.9399L32.9161 11.8058L32.9321 11.8262L32.7492 11.97C30.9502 13.3851 29.0075 14.9397 26.8095 16.7238C25.7925 17.5491 25.5647 18.4891 26.1828 19.3027C26.4976 19.7182 26.9227 19.9361 27.4116 19.9361C27.8904 19.9361 28.4054 19.7284 28.9031 19.3332C29.2614 19.0484 29.6183 18.7651 29.9767 18.4818C31.5451 17.2396 33.1656 15.9553 34.734 14.6622L34.927 14.5038L34.9502 14.5358L35.3695 14.1958C35.6088 14.0026 35.8468 13.8094 36.0847 13.6147C36.356 13.3938 36.5794 13.295 36.8072 13.295C37.0365 13.295 37.2613 13.3953 37.537 13.619C44.3878 19.1908 51.3417 24.8222 58.2056 30.3576C58.7351 30.7848 58.9499 31.2337 58.947 31.9064C58.931 36.3086 58.9325 40.785 58.9325 45.1145C58.9325 46.9902 58.9325 48.8659 58.9325 50.7415C58.931 53.7635 57.2045 55.5012 54.1969 55.507C53.1262 55.5099 52.057 55.5099 50.9862 55.5099C50.1549 55.5099 49.3236 55.5099 48.4923 55.5084C47.6609 55.5084 46.8296 55.507 45.9983 55.507H45.0509H44.8129V55.4358H41.3861H41.1481H30.4801H30.2422H26.6224L26.5919 55.4387C26.5107 55.4474 26.4323 55.4561 26.3569 55.4648C26.1944 55.4852 26.0406 55.5041 25.881 55.5041L24.4853 55.507C23.609 55.5099 22.7341 55.5113 21.8578 55.5113C20.819 55.5113 19.95 55.5084 19.123 55.5012C16.5101 55.4794 14.682 53.656 14.6777 51.0641C14.6631 43.3101 14.6689 37.3416 14.6951 31.7132C14.6965 31.2933 14.9577 30.7659 15.303 30.4855L15.3697 30.4303L15.361 30.3852L15.4742 30.2937L16.1807 29.7256L17.5532 28.6229C18.6471 27.7439 18.859 26.8562 18.1814 25.9845C17.8318 25.5341 17.4458 25.3147 17.0033 25.3147C16.5623 25.3147 16.0559 25.537 15.5003 25.9758L15.168 26.2387L14.9025 26.4479L14.5993 26.6877L14.5906 26.6455L13.6229 27.4301L11.6643 29.0181C10.5471 29.9116 9.61714 30.6627 8.75535 31.3688V31.3703L8.58125 31.517L8.26497 31.7742L7.90081 32.0691C7.34369 32.521 6.84895 32.7316 6.34116 32.7316C6.01472 32.7316 5.68538 32.6387 5.3633 32.4541C4.51891 31.9732 4.17797 31.1625 4.45217 30.285C4.59871 29.8143 4.96287 29.313 5.4518 28.9077C10.7894 24.4778 16.2286 19.9885 21.4879 15.6458C23.0838 14.328 24.6812 13.0103 26.2771 11.6911C29.0119 9.43329 31.7424 7.17116 34.4743 4.91048L35.236 4.27993C35.8076 3.80775 36.3038 3.58691 36.7985 3.58691C37.2918 3.58691 37.7851 3.80484 38.3509 4.27267C48.218 12.4219 58.0852 20.5711 67.9523 28.7188C68.0002 28.758 68.048 28.7973 68.0959 28.8365C68.6327 29.2723 69.3524 29.6835 69.3378 30.5712C69.3422 30.577 69.1376 31.3688 69.0201 31.5243Z" fill="white"/>
<path d="M22.0926 20.981C21.7662 20.981 21.4339 21.0957 21.1351 21.3137C20.7477 21.5941 20.4938 21.9994 20.4227 22.4556C20.3545 22.8842 20.459 23.3143 20.7143 23.6644C21.0016 24.0582 21.5268 24.3022 22.0854 24.3022C22.4669 24.3022 22.8296 24.1875 23.1068 23.9782C23.8061 23.4523 23.9294 22.4266 23.381 21.6914C23.04 21.2338 22.583 20.981 22.0926 20.981Z" fill="white"/>
<path d="M52.8442 46.3621C52.8689 46.3621 52.8936 46.3621 52.9197 46.3606C53.8743 46.3272 54.5257 45.6008 54.5417 44.5562C54.5548 43.6874 54.5519 42.8025 54.549 41.9483C54.5475 41.5662 54.5461 41.1826 54.5461 40.8005C54.5461 40.3486 54.5475 40.0755 54.549 39.8518C54.5519 39.4551 54.5533 39.2168 54.5432 38.4163C54.5301 37.3078 53.8801 36.577 52.8878 36.5552H52.8428C51.8562 36.5552 51.1569 37.2845 51.141 38.3277C51.1032 40.8528 51.0989 42.0529 51.1439 44.639C51.1627 45.6676 51.8461 46.3621 52.8442 46.3621Z" fill="white"/>
<path d="M44.8136 52.233C44.8136 49.8285 44.8136 47.4748 44.8136 45.1197C44.8136 44.6475 44.8151 44.1753 44.8165 43.7032C44.8209 42.5685 44.8252 41.396 44.8006 40.2438C44.7266 36.8644 42.0149 34.1621 38.6272 34.0938C37.9163 34.0793 37.1532 34.072 36.2276 34.072C35.6037 34.072 34.9784 34.0749 34.3545 34.0778L33.5029 34.0822C29.5073 34.0982 26.8175 36.7845 26.8102 40.7683C26.8044 43.8877 26.8059 47.0607 26.8073 50.1278C26.8073 51.4891 26.8088 52.849 26.8088 54.2104V55.2027V55.4192L26.623 55.4366H30.2414V55.1983V53.2965V49.1645C30.2414 48.3204 30.24 47.4763 30.24 46.6307C30.2385 44.6286 30.2356 42.5568 30.2458 40.5199C30.2545 38.7459 31.4413 37.54 33.1982 37.5182C34.1166 37.5066 35.0147 37.5008 35.8678 37.5008C36.7687 37.5008 37.6552 37.5081 38.5025 37.5197C40.1492 37.5444 41.3534 38.6893 41.3679 40.2395C41.3998 43.8281 41.394 47.4893 41.3896 51.03C41.3882 52.4146 41.3853 53.8021 41.3853 55.1969V55.4351H44.8122V55.2681L44.8136 52.233Z" fill="#FFC20E"/>
</svg>
