<svg width="72" height="59" viewBox="0 0 72 59" fill="none" xmlns="http://www.w3.org/2000/svg">
<path d="M44.3738 18.6607L44.2998 18.5968L44.3433 18.5096L44.3883 18.4181C44.4115 18.3716 44.426 18.3396 44.4434 18.3091C45.2109 16.8577 45.2544 15.2493 44.5638 13.8967C43.8994 12.5935 42.6342 11.7218 41.0906 11.5053C40.4594 11.4167 39.7819 11.376 38.9593 11.376C38.3224 11.376 37.6738 11.4007 37.0456 11.4254C36.8222 11.4341 36.5973 11.4428 36.3753 11.4501C35.676 11.4733 35.1059 12.1358 35.1044 12.9247C35.0928 17.6219 35.0928 21.982 35.1044 26.2505C35.1073 27.083 35.7616 27.7412 36.5959 27.7514L37.2241 27.7601C37.8697 27.7688 38.5385 27.7775 39.1958 27.7775C40.0358 27.7775 40.7336 27.763 41.3909 27.7325C42.907 27.6627 44.2969 26.9377 45.2066 25.7435C46.1249 24.5361 46.4572 22.983 46.1191 21.4793C45.8798 20.4056 45.3081 19.4845 44.3738 18.6607ZM38.1918 17.3705V14.6217V14.4953H38.318C38.5646 14.4953 38.8084 14.4909 39.0507 14.4866C39.2915 14.4822 39.5324 14.4779 39.7703 14.4779C40.133 14.4779 40.4304 14.488 40.7075 14.5084C41.4388 14.565 42.0017 15.2305 41.9886 16.0252C41.9756 16.7981 41.4155 17.4388 40.7119 17.4853C40.4348 17.5028 40.1359 17.5115 39.7717 17.5115C39.5338 17.5115 39.2944 17.5086 39.0536 17.5042C38.8098 17.5013 38.5646 17.497 38.3166 17.497H38.1903V17.3705H38.1918ZM43.1812 22.7593C43.1348 23.7835 42.3426 24.6015 41.3386 24.6611C40.9919 24.6814 40.6205 24.6916 40.1664 24.6916C39.8646 24.6916 39.5614 24.6872 39.2552 24.6829C38.9433 24.6785 38.6285 24.6742 38.3093 24.6742H38.1831V24.5478V20.7616V20.6352H38.3093C38.6372 20.6352 38.9694 20.6279 39.2901 20.6206C39.6092 20.6134 39.9386 20.6061 40.2621 20.6061C40.7482 20.6061 41.1471 20.6235 41.5171 20.6584C42.5327 20.7572 43.232 21.6406 43.1812 22.7593Z" fill="#FFC20E"/>
<path d="M25.8363 27.7613H25.8552C29.7245 27.7613 32.8816 24.1088 32.8932 19.6208C32.899 17.4401 32.1721 15.3828 30.8489 13.8282C29.5258 12.2751 27.7674 11.415 25.8972 11.4092H25.8784C22.009 11.4092 18.852 15.0603 18.8418 19.5482C18.836 21.729 19.5629 23.7862 20.8875 25.3408C22.2107 26.8969 23.9691 27.7555 25.8363 27.7613ZM22.7634 15.9828C23.5948 15.0123 24.6974 14.4791 25.8682 14.4791C28.2839 14.4835 30.2483 16.7674 30.2555 19.5685C30.2584 20.9328 29.8029 22.2186 28.9701 23.1891C28.1388 24.1596 27.0361 24.6928 25.8639 24.6928H25.8566C23.4482 24.6885 21.4823 22.4046 21.4765 19.6034C21.4751 18.2392 21.9307 16.9534 22.7634 15.9828Z" fill="#FFC20E"/>
<path d="M12.1569 27.756C12.2092 27.7574 12.2614 27.7589 12.3136 27.7589C14.516 27.7589 16.3353 25.9239 16.3702 23.6661C16.389 22.469 16.3847 21.2515 16.3803 20.0746C16.3789 19.5211 16.376 18.9661 16.376 18.4125C16.376 16.9204 16.3774 15.4298 16.3774 13.9377V13.0456C16.3774 12.3627 16.0901 11.8702 15.5229 11.5826C15.2951 11.4663 15.0586 11.4082 14.8207 11.4082C13.9792 11.4082 13.3191 12.1332 13.3176 13.0587C13.3118 15.3528 13.3132 17.6861 13.3132 19.941C13.3132 21.0219 13.3147 22.1028 13.3132 23.1838C13.3132 23.2245 13.3132 23.2666 13.3147 23.3073C13.3176 23.454 13.3191 23.6051 13.2944 23.7562C13.203 24.3054 12.8055 24.6744 12.3064 24.6744C12.1381 24.6744 11.9683 24.6338 11.8 24.5524C11.6129 24.4623 11.4475 24.3345 11.2864 24.211C11.2255 24.163 11.1646 24.1165 11.1022 24.0715C10.8178 23.8666 10.4928 23.7591 10.1606 23.7591C9.72388 23.7591 9.32055 23.9451 9.02603 24.2807C8.50228 24.8778 8.51969 25.7554 9.06666 26.3205C9.93861 27.2271 10.9789 27.7095 12.1569 27.756Z" fill="#FFC20E"/>
<path d="M43.8341 36.5059H10.4881C9.44645 36.5059 8.60352 37.302 8.60352 38.2827C8.60352 39.2649 9.4479 40.0596 10.4881 40.0596H43.8341C44.8758 40.0596 45.7188 39.2634 45.7188 38.2827C45.7188 37.302 44.8758 36.5059 43.8341 36.5059Z" fill="white"/>
<path d="M24.1006 44.3594H10.3525C9.37173 44.3594 8.57812 45.1556 8.57812 46.1363C8.57812 47.1184 9.37318 47.9131 10.3525 47.9131H24.1006C25.0814 47.9131 25.875 47.1169 25.875 46.1363C25.8764 45.1541 25.0814 44.3594 24.1006 44.3594Z" fill="white"/>
<path d="M70.0475 34.0462C69.0406 34.0127 68.3239 34.6593 68.2775 35.64C68.2311 36.6366 68.9579 37.4633 69.9184 37.504C70.8281 37.5418 71.7 36.7049 71.729 35.7664C71.7551 34.8438 71.0065 34.0781 70.0475 34.0462Z" fill="white"/>
<path d="M71.9354 44.1108C71.9252 42.7873 71.281 42.0056 70.2451 41.9809C69.173 41.9562 68.4577 42.7945 68.4534 44.1196C68.449 45.5042 68.4403 46.8887 68.4403 48.2733H68.4243V48.9097C68.4229 51.907 66.6137 54.3144 63.8136 55.0423C63.3261 55.1687 62.8212 55.2341 62.3163 55.2341C59.9123 55.2341 57.7331 53.8277 56.7625 51.6498C56.7277 51.5699 56.6987 51.4871 56.661 51.3709C56.6378 51.2982 56.616 51.2343 56.5884 51.1573L56.5014 50.9045H64.1299L64.1371 50.7621C64.1487 50.5514 64.1603 50.3553 64.1603 50.165C64.1487 40.9407 64.1371 36.7215 64.1226 31.2224L64.1212 30.5686C64.1125 27.4652 64.1038 23.894 64.0922 18.7915C64.0893 17.6321 64.4621 16.9318 65.2876 16.4931C65.6808 16.2839 66.1233 16.2374 66.5179 16.2708C67.5176 16.3914 68.3126 17.1963 68.4156 18.2394C68.4287 18.3658 68.4272 18.4893 68.4258 18.6099V18.9063C68.4258 18.9063 68.3692 24.0582 68.3881 26.6342C68.3982 27.9926 69.0584 28.7946 70.1218 28.8207C71.223 28.8469 71.9557 27.9853 71.96 26.6254C71.9687 24.2151 71.9905 21.8048 71.9513 19.3959C71.9513 19.3959 72.0514 17.9401 71.8512 17.221C71.7656 16.9159 71.6815 16.602 71.5582 16.3173C70.7123 14.3661 69.5139 13.1733 67.4552 12.627C66.988 12.518 66.3859 12.473 65.7301 12.4686C62.9823 12.4512 59.1405 12.4366 56.2098 12.4642V9.37252C56.1982 9.37252 56.188 9.37252 56.1764 9.37252V9.01947C56.1764 4.06661 52.1518 0.036322 47.2059 0.036322H46.4515C46.4602 0.0246989 46.466 0.011623 46.4747 0H11.3645C11.363 0.011623 11.3601 0.0246989 11.3587 0.036322H9.63218C4.68629 0.036322 0.661671 4.06661 0.661671 9.01947V9.98273C0.655868 9.98128 0.648614 9.97983 0.64281 9.97692C0.64281 21.0246 0.641359 38.4969 0.645712 48.9765C0.647163 54.4771 4.94889 58.7893 10.4374 58.7922C26.0846 58.8009 46.4805 58.798 62.1292 58.7936C67.1215 58.7922 71.0329 55.4564 71.8643 50.4933C71.8802 50.4003 71.9702 48.2748 71.9702 48.2748H71.9499C71.9499 46.8858 71.9455 45.4983 71.9354 44.1108ZM54.4702 55.2036C54.3571 55.2094 54.2598 55.2166 54.1713 55.2224C53.9871 55.2355 53.8522 55.2442 53.7187 55.2442C53.7187 55.2442 15.865 55.2457 10.5912 55.2442C6.82191 55.2428 4.1901 52.6102 4.18865 48.8414C4.1872 41.5087 4.1872 30.7531 4.1872 21.6784H4.21186V9.01802C4.21186 6.02509 6.64346 3.59007 9.63218 3.59007H22.6998V3.57554H34.1397V3.59007H47.2073C50.1961 3.59007 52.6277 6.02509 52.6277 9.01802V21.6784H52.6697C52.6712 30.0237 52.6697 38.5332 52.6523 46.9774C52.6465 49.934 52.7887 52.5709 54.608 54.897L54.8329 55.1832L54.4702 55.2036ZM56.2417 46.8728C56.1822 46.726 56.1938 46.5677 56.204 46.4267C56.2069 46.3759 56.2112 46.3279 56.2112 46.2829V16.3478C57.5939 16.3594 59.1622 16.3609 60.7233 16.3609C60.7001 16.4364 60.687 16.4858 60.6827 16.5018C60.6725 16.8839 60.6551 17.2878 60.6377 17.6888C60.6014 18.546 60.5652 19.4177 60.5652 20.2677C60.5695 27.4594 60.5768 30.7153 60.5869 34.4187C60.5942 37.3855 60.6029 40.6152 60.6101 46.325V47.3493L58.7676 47.3522C58.1728 47.3522 57.4705 47.3508 56.7567 47.3348C56.5304 47.3304 56.3157 47.0558 56.2417 46.8728Z" fill="white"/>
</svg>
