<svg width="14" height="14" viewBox="0 0 14 14" fill="none" xmlns="http://www.w3.org/2000/svg">
<path d="M9.49375 10.2062C9.35625 10.0437 9.2875 9.85925 9.2875 9.65275C9.2875 9.44675 9.35625 9.275 9.49375 9.1375L10.8812 7.75H5.5C5.2875 7.75 5.1095 7.678 4.966 7.534C4.822 7.3905 4.75 7.2125 4.75 7C4.75 6.7875 4.822 6.60925 4.966 6.46525C5.1095 6.32175 5.2875 6.25 5.5 6.25H10.8812L9.49375 4.8625C9.34375 4.7125 9.26875 4.5345 9.26875 4.3285C9.26875 4.122 9.34375 3.94375 9.49375 3.79375C9.63125 3.64375 9.80325 3.56875 10.0098 3.56875C10.2158 3.56875 10.3875 3.6375 10.525 3.775L13.225 6.475C13.3 6.55 13.3533 6.63125 13.3848 6.71875C13.4158 6.80625 13.4313 6.9 13.4313 7C13.4313 7.1 13.4158 7.19375 13.3848 7.28125C13.3533 7.36875 13.3 7.45 13.225 7.525L10.525 10.225C10.3625 10.3875 10.1845 10.4592 9.991 10.4403C9.797 10.4218 9.63125 10.3438 9.49375 10.2062ZM1.75 13.75C1.3375 13.75 0.98425 13.6033 0.69025 13.3097C0.39675 13.0157 0.25 12.6625 0.25 12.25V1.75C0.25 1.3375 0.39675 0.98425 0.69025 0.69025C0.98425 0.39675 1.3375 0.25 1.75 0.25H6.25C6.4625 0.25 6.64075 0.32175 6.78475 0.46525C6.92825 0.60925 7 0.7875 7 1C7 1.2125 6.92825 1.3905 6.78475 1.534C6.64075 1.678 6.4625 1.75 6.25 1.75H1.75V12.25H6.25C6.4625 12.25 6.64075 12.322 6.78475 12.466C6.92825 12.6095 7 12.7875 7 13C7 13.2125 6.92825 13.3905 6.78475 13.534C6.64075 13.678 6.4625 13.75 6.25 13.75H1.75Z" fill="#1E1E1E"/>
</svg>
