<svg width="20" height="21" viewBox="0 0 20 21" fill="none" xmlns="http://www.w3.org/2000/svg">
<path d="M17.25 7.03864L10.4246 3.50145C10.2925 3.43304 10.1473 3.39746 10 3.39746C9.85274 3.39746 9.70746 3.43304 9.57539 3.50145L2.75 7.03864C2.48834 7.17325 2.26774 7.38201 2.11312 7.64134C1.9585 7.90067 1.87602 8.20022 1.875 8.50617V16.0781C1.875 16.9841 2.58359 17.7187 3.45781 17.7187H16.5437C17.418 17.7187 18.1266 16.9841 18.1266 16.0781V8.50617C18.1254 8.20005 18.0427 7.90037 17.8878 7.64103C17.7329 7.38169 17.512 7.17302 17.25 7.03864Z" stroke="#F5B61A" stroke-linecap="round" stroke-linejoin="round"/>
<path d="M15.5205 15.0938L10.4713 10.97C10.3067 10.8356 10.1042 10.7627 9.8957 10.7627C9.68722 10.7627 9.48468 10.8356 9.32012 10.97L4.27051 15.0938M12.083 12.0996L17.3955 7.875M2.39551 7.875L7.8252 12.1816" stroke="#F5B61A" stroke-linecap="round" stroke-linejoin="round"/>
</svg>
