<svg width="24" height="29" viewBox="0 0 24 29" fill="none" xmlns="http://www.w3.org/2000/svg">
<path d="M12 14.7771C12.825 14.7771 13.5315 14.4874 14.1195 13.9082C14.7075 13.3289 15.001 12.6334 15 11.8217C15 11.0089 14.706 10.3129 14.118 9.73366C13.53 9.1544 12.824 8.86526 12 8.86624C11.175 8.86624 10.4685 9.15587 9.8805 9.73513C9.2925 10.3144 8.999 11.0099 9 11.8217C9 12.6344 9.294 13.3304 9.882 13.9097C10.47 14.4889 11.176 14.7781 12 14.7771ZM12 29C11.8 29 11.6 28.9631 11.4 28.8892C11.2 28.8153 11.025 28.7168 10.875 28.5936C7.225 25.4166 4.5 22.4671 2.7 19.7451C0.9 17.0232 0 14.4805 0 12.1172C0 8.42293 1.2065 5.47983 3.6195 3.2879C6.0325 1.09597 8.826 0 12 0C15.175 0 17.969 1.09597 20.382 3.2879C22.795 5.47983 24.001 8.42293 24 12.1172C24 14.4815 23.1 17.0247 21.3 19.7466C19.5 22.4685 16.775 25.4175 13.125 28.5936C12.975 28.7168 12.8 28.8153 12.6 28.8892C12.4 28.9631 12.2 29 12 29Z" fill="#F5B61A"/>
</svg>
