<svg width="54" height="69" viewBox="0 0 54 69" fill="none" xmlns="http://www.w3.org/2000/svg">
<path d="M48.1499 32.1677C47.0313 31.0519 45.9157 29.9346 44.8 28.8159C43.0024 27.0143 41.1439 25.1518 39.3057 23.3327C38.8588 22.8896 38.6687 22.4203 38.6702 21.7607L38.6847 28.7011C38.6876 28.6314 38.6948 28.566 38.7007 28.5079C38.7036 28.4817 38.7065 28.4556 38.7094 28.4324L38.7282 28.2406L38.9197 28.2173C38.9415 28.2144 38.9589 28.2115 38.972 28.2086C39.0053 28.2028 39.03 28.1999 39.046 28.1999H39.1461L39.2259 28.274C40.0093 29.0687 40.8232 29.8649 41.6081 30.6364C43.4086 32.4016 45.2715 34.2264 46.9341 36.1747C49.5631 39.2577 50.4495 43.0933 49.5645 47.5769C48.7854 51.5302 47.9744 55.546 47.1895 59.4281C46.8718 61.0001 46.554 62.5735 46.2377 64.1455C46.2261 64.2051 46.2073 64.256 46.187 64.3112C46.1783 64.3359 46.1681 64.3635 46.1565 64.3954L46.1014 64.5582H30.1552L30.1785 64.2981C30.531 60.4291 31.4624 55.5372 35.5814 52.0329C36.095 51.5956 36.729 51.1815 37.4645 50.8023C38.1537 50.4478 38.5831 49.9466 38.676 49.3916C38.7688 48.838 38.5353 48.2525 38.0042 47.6975C34.75 44.2978 31.7642 41.193 28.8771 38.2073C28.0936 37.3981 27.8295 36.551 28.066 35.6197C28.3475 34.5156 29.3428 33.7441 30.4875 33.7441C31.0678 33.7441 31.6162 33.9402 32.0718 34.3136C32.2314 34.4429 32.3736 34.5897 32.5099 34.7306C32.5462 34.7669 32.5825 34.8047 32.6187 34.841C33.5487 35.7796 34.4787 36.7181 35.4087 37.6567C37.4849 39.7532 39.6335 41.9209 41.7532 44.045C42.1449 44.4373 42.6397 44.6537 43.146 44.6537C43.915 44.6537 44.5548 44.1627 44.7782 43.4014C44.9813 42.7098 44.7956 42.0923 44.2138 41.5141L44.1036 41.4051C42.4757 39.788 40.7928 38.1143 39.1664 36.4406C38.8951 36.1617 38.7021 35.6953 38.6963 35.3045L33.9535 31.3134C33.157 30.7729 32.4026 30.4548 31.5887 30.3095C31.2274 30.2455 30.8589 30.2121 30.4947 30.2121C28.3141 30.2121 26.2931 31.3977 25.2181 33.3053C23.9297 35.5921 24.2503 38.4005 26.0175 40.2922C27.8165 42.2187 29.6794 44.1467 31.4813 46.0122C32.095 46.6471 32.7087 47.282 33.321 47.9184C33.4182 48.0201 33.5429 48.1116 33.6866 48.2162C33.7664 48.2758 33.852 48.3382 33.9448 48.4109L34.1857 48.5998L33.9448 48.7872C31.5538 50.644 29.7954 52.9192 28.5695 55.7421L28.5071 55.8859H28.4766C27.9079 57.3577 27.3987 59.123 27.0098 61.2311L26.6994 63.5208L26.5818 64.394L26.5543 64.6003H26.534C26.4208 65.703 26.3381 66.8799 26.2931 68.1366H47.9744C48.784 67.8344 49.2323 67.2547 49.4238 66.2638C49.8909 63.8564 50.3857 61.4127 50.8644 59.0503C51.2939 56.9277 51.7393 54.7338 52.1615 52.5734C52.2616 52.0591 52.3704 51.536 52.4749 51.0319C52.8361 49.2855 53.2104 47.481 53.3352 45.6969C53.6979 40.5116 51.9511 35.9597 48.1499 32.1677Z" fill="#FFC20E"/>
<path d="M38.679 30.2141C38.6746 31.882 38.6703 33.608 38.6979 35.305L38.6834 28.7002C38.6834 28.7147 38.6804 28.7292 38.6804 28.7452C38.6819 29.2363 38.6804 29.7259 38.679 30.2141Z" fill="#FCC110"/>
<path d="M2.58183 26.0636C3.4741 26.1014 4.33009 25.2791 4.35765 24.3594C4.38522 23.4543 3.6511 22.7031 2.70951 22.6712C1.72149 22.6378 1.01782 23.2727 0.972845 24.2359C0.926418 25.2137 1.64024 26.023 2.58183 26.0636Z" fill="white"/>
<path d="M25.3198 64.5999H15.5934C12.7526 64.5999 9.90901 64.5999 7.06828 64.5999C5.32583 64.5999 4.47709 63.7427 4.47418 61.9804C4.47273 61.4806 4.47418 60.9808 4.47418 60.4592V59.7124V59.4741H27.2479L27.2117 59.7444L27.01 61.2307C27.3988 59.1211 27.9081 57.3559 28.4768 55.8855H4.47418V54.9281V44.7957C4.47418 44.3933 4.47418 43.9923 4.47418 43.5913C4.47418 43.4838 4.47418 43.3763 4.47418 43.2688C4.47273 43.2688 4.4713 43.2702 4.46985 43.2702C4.45534 42.0207 4.39874 37.511 4.38714 37.2059L4.38569 37.155C4.38569 35.769 4.37989 34.3829 4.37699 32.9984C4.37409 31.6283 3.77488 30.8888 2.6766 30.8742C1.55801 30.8597 0.968973 31.5484 0.960268 32.9562C0.951563 34.2289 0.94576 35.5017 0.942859 36.7744L0.941406 36.7729V48.4962C0.941406 50.0087 0.941406 51.5211 0.941406 53.0335V62.0138C0.941406 62.2332 0.944316 62.4279 0.95012 62.608C1.01831 64.8687 2.54893 66.9841 4.6715 67.7498C4.96166 67.8544 5.26925 67.9415 5.56667 68.0243C5.69869 68.0607 5.82926 68.0984 5.95984 68.1362H26.2918C26.3368 66.8795 26.4195 65.7026 26.5327 64.5999H25.3198Z" fill="white"/>
<path d="M38.6747 6.04139C38.6616 2.60678 36.1677 0.112198 32.7437 0.10784C29.1369 0.103481 25.5301 0.100586 21.9219 0.100586C16.4784 0.100586 11.5398 0.106398 6.82309 0.119474C6.16442 0.120927 5.46656 0.237148 4.80643 0.45508C2.38644 1.25271 0.942857 3.40588 0.941406 6.21574C0.941406 8.16405 0.941406 10.1109 0.941406 12.0592C0.942857 12.0592 0.94286 12.0592 0.944311 12.0592C0.944311 13.3973 0.948658 14.7369 0.957363 16.075C0.967519 17.4073 1.61459 18.1933 2.65774 18.218C3.73716 18.2427 4.45533 17.3985 4.45968 16.0662C4.46258 15.0289 4.46838 13.9901 4.47128 12.9527H4.47273C4.47273 10.7327 4.47273 8.51275 4.47273 6.2913C4.47273 4.48392 5.30841 3.64125 7.1031 3.64125H19.7964H32.4898C34.2772 3.64125 35.1463 4.50425 35.1463 6.28112C35.1477 12.3847 35.1477 18.4882 35.1463 24.5917V31.0338V32.2441L34.756 31.9201C34.4818 31.692 34.2163 31.4915 33.9537 31.3142L38.6965 35.3053C38.6689 33.6083 38.6732 31.8823 38.6776 30.2144C38.6791 29.7248 38.6805 29.2351 38.6805 28.747C38.6805 28.731 38.682 28.7165 38.6834 28.7019L38.6689 21.7615C38.6907 15.8774 38.6921 10.7356 38.6747 6.04139Z" fill="white"/>
</svg>
