<svg width="58" height="72" viewBox="0 0 58 72" fill="none" xmlns="http://www.w3.org/2000/svg">
<path d="M56.1826 43.0241C54.4981 39.2248 51.7938 36.2755 48.3988 33.945C47.2323 33.1445 45.989 32.4588 44.7529 31.7033C44.8124 31.587 44.8704 31.4635 44.9371 31.3444C46.8885 27.9025 47.598 24.1744 46.9349 20.3185C45.2708 10.6336 39.6082 4.25258 30.4172 0.993773C28.962 0.478001 27.3806 0.322539 25.8572 0H22.7756C22.619 0.0392277 22.4637 0.0973485 22.3041 0.114783C13.4961 1.00685 7.0805 8.53421 8.17443 18.3063C8.37754 20.1195 8.89115 21.8992 9.27272 23.74C9.25676 23.7444 9.2205 23.756 9.17262 23.7705C9.18132 23.7894 9.19002 23.8069 9.19872 23.8257C11.3619 23.4785 12.8737 23.8824 12.8737 23.8824C12.8752 23.8824 12.8766 23.8824 12.8781 23.8839C12.5328 23.7153 12.3398 23.4146 12.1816 23.002C10.6438 18.9804 10.1984 14.8978 11.8842 10.8428C14.0329 5.6764 18.1199 3.06848 23.6041 2.85055C29.7861 2.60646 34.8292 5.24344 38.9307 9.72267C42.4489 13.5641 44.4351 18.0811 44.3336 23.3797C44.2886 25.7566 43.6546 27.9853 42.4606 30.0528C42.2154 30.4785 42.0006 30.6223 41.4754 30.4393C40.9169 30.2446 40.4657 30.0092 40.1102 29.5951C40.6238 30.8461 40.5556 32.1929 40.4207 33.0617C44.5004 34.3533 49.1286 37.2881 51.7996 41.0554C52.5511 42.1146 53.1271 43.2987 53.7625 44.4377C54.0513 44.9535 54.4851 45.3458 55.0378 45.2397C55.4847 45.1555 56.0462 44.8445 56.2362 44.4711C56.4306 44.0876 56.3697 43.4454 56.1826 43.0241Z" fill="white"/>
<path d="M37.081 21.7607C36.6254 18.0719 33.7397 14.4484 30.4449 13.5505C28.7184 13.0798 26.9948 13.1568 25.3989 13.9719C24.1671 14.601 22.9092 14.8494 21.5542 14.7942C20.8781 14.7666 20.2005 14.7782 19.523 14.7927C18.2912 14.8203 17.7501 15.5046 17.9953 16.7163C18.5887 19.6352 17.8763 22.169 15.8016 24.3207C15.6522 24.4747 15.5187 24.5779 15.3693 24.6186C19.7783 26.6904 21.2234 33.0554 21.2234 33.0554C24.8026 34.6303 27.5606 34.1451 31.0687 32.7271C31.7579 25.4438 36.5732 26.7674 36.5732 26.7674C37.0911 25.1067 37.2914 23.4635 37.081 21.7607ZM29.0361 30.4606C26.3361 31.3003 22.9586 31.4732 20.8447 29.5947C19.6986 28.5747 19.3416 27.8992 18.2361 26.7674C20.0932 24.5023 21.1828 20.658 20.9695 17.5953C21.3699 17.5953 21.7138 17.5881 22.0562 17.5968C23.5766 17.6389 24.9999 17.3193 26.3637 16.6088C28.1903 15.6572 30.2345 15.9943 31.7332 17.4021C36.2018 21.5995 34.7539 28.6823 29.0361 30.4606Z" fill="white"/>
<path d="M55.6265 54.9741C54.8561 54.6472 54.1336 54.9784 53.7303 55.8923C52.2257 59.308 49.8348 61.974 46.7779 64.0429C41.1777 67.8364 34.9129 69.1934 28.2391 68.974C28.1056 68.9696 27.9736 68.9261 27.7546 68.8839C28.0839 66.77 28.4074 64.6837 28.7222 62.6685C30.3356 62.5319 31.8793 62.4942 33.391 62.2574C37.4592 61.6195 41.079 60.0098 43.9502 56.966C45.9291 54.8695 47.0564 52.3836 47.1275 49.4691C47.1493 48.5538 46.582 47.948 45.7623 47.932C44.9281 47.916 44.3709 48.4695 44.3361 49.4023C44.2578 51.554 43.4236 53.3846 42.0003 54.9639C41.4098 55.6192 40.7584 56.1901 40.0561 56.6928C40.0532 56.6957 40.0504 56.6986 40.0489 56.7015C38.7969 57.8159 36.3333 58.6324 34.7272 59.0741C34.7287 59.0915 34.7301 59.1075 34.7316 59.1249C34.2209 59.2543 33.7131 59.3603 33.2068 59.4504C33.2039 59.4504 33.1995 59.4518 33.1995 59.4518C30.5895 59.9095 28.0389 59.8383 25.4767 59.3007C22.6302 58.7022 20.5685 59.3763 18.9538 61.4583C17.5929 63.2584 17.4899 64.9118 17.664 66.0189C17.693 66.0377 17.7118 66.0508 17.7133 66.0595C18.2385 68.7851 20.0303 70.6347 22.752 71.1083C24.2653 71.3713 25.7944 71.6008 27.3251 71.704C34.3471 72.1762 40.976 70.8293 47.0492 67.171C51.1217 64.7171 54.3483 61.4554 56.2765 57.0299C56.6813 56.0986 56.4216 55.3097 55.6265 54.9741ZM24.9385 68.7227C23.9925 68.4829 23.077 68.3696 22.2631 68.0195C20.776 67.3802 20.1028 65.6121 20.6338 64.0778C21.1678 62.5334 22.755 61.6065 24.3364 61.9188C24.8543 62.022 25.3693 62.144 25.9439 62.2704C25.6131 64.3902 25.2925 66.4533 24.9385 68.7227Z" fill="white"/>
<path d="M56.3312 48.711C55.5492 48.7066 54.9195 49.3648 54.9442 50.1609C54.9674 50.9353 55.5753 51.5092 56.3587 51.4961C57.1277 51.483 57.7269 50.867 57.7182 50.0999C57.7095 49.3386 57.0856 48.7153 56.3312 48.711Z" fill="white"/>
<path opacity="0.5" d="M40.2169 33.9874C40.2169 33.9874 40.333 33.6257 40.42 33.0605C40.4142 33.059 40.4084 33.0561 40.4026 33.0547C40.3402 33.3714 40.2837 33.6809 40.2169 33.9874Z" fill="#FCC110"/>
<path opacity="0.5" d="M36.5763 26.7666C38.3449 27.4001 39.1951 27.9086 39.7406 29.0273C39.8494 29.2496 39.9742 29.4341 40.1105 29.5939C39.6187 28.3953 38.5944 27.2838 36.5763 26.7666Z" fill="#FCC110"/>
<path d="M33.1993 59.4521C33.1993 59.4521 33.205 59.4502 33.2088 59.4502C33.205 59.4502 33.2012 59.4502 33.1993 59.4521Z" fill="white"/>
<path opacity="0.5" d="M33.1993 59.4521C33.1993 59.4521 33.205 59.4502 33.2088 59.4502C33.205 59.4502 33.2012 59.4502 33.1993 59.4521Z" fill="#FCC110"/>
<path d="M18.9533 61.4567C18.6936 61.7923 18.4441 62.1599 18.2062 62.5682C18.183 62.6074 18.1481 62.6379 18.0161 62.7919C10.289 59.9734 7.60201 47.2345 8.00389 44.8198C8.0271 44.7428 8.04886 44.6615 8.06772 44.5743C8.56826 44.644 9.02094 44.7007 9.47215 44.769C10.8824 44.984 12.2693 44.8445 13.6244 44.4435C17.5083 43.2943 21.3907 42.1407 25.2616 40.9465C27.7976 40.1634 30.0522 38.8819 31.8455 36.8799C33.2325 35.3311 34.0203 33.5324 34.1015 31.433C34.145 30.3172 34.8777 29.5791 35.8831 29.5879C36.8827 29.5966 37.6865 30.4349 37.6401 31.5434C37.4326 36.5181 34.914 39.944 30.5005 42.0535C29.5981 42.4851 28.6449 42.8076 27.7135 43.1766C25.4894 44.0585 24.2532 45.9414 24.4781 48.1062C24.7088 50.3132 26.3265 51.92 28.7044 52.3021C31.7424 52.7889 34.0144 54.9638 34.6151 57.9771C34.6833 58.3214 34.6905 58.6788 34.7268 59.0711C36.3329 58.6294 38.7964 57.8129 40.0485 56.6986C40.0514 56.6957 40.0528 56.6927 40.0557 56.6898C39.2781 57.2477 38.438 57.7228 37.5385 58.1267C37.4878 57.98 37.4573 57.9161 37.4442 57.8492C36.4707 53.1129 33.6329 50.303 28.8538 49.4778C27.9645 49.3237 27.3522 48.6554 27.2652 47.8375C27.1752 46.9788 27.6453 46.2277 28.5245 45.8688C29.4733 45.4809 30.4454 45.1453 31.3812 44.7297C36.1138 42.6289 39.1214 39.0926 40.2168 33.9857C40.2821 33.6777 40.3401 33.3697 40.4025 33.053C40.4083 33.0544 40.4141 33.0573 40.4199 33.0588C40.5548 32.1914 40.623 30.8446 40.1094 29.5922C39.9716 29.4324 39.8483 29.2479 39.7394 29.0256C39.1939 27.9069 38.3423 27.3984 36.5752 26.7649C36.5752 26.7649 31.7598 25.4413 31.0707 32.7246C30.5513 34.269 29.6358 35.3064 28.5201 36.1854C27.0678 37.3288 25.4081 38.0494 23.6352 38.5187C22.4484 38.8325 21.2529 39.11 19.9718 39.4267C21.2326 37.0527 21.5721 34.6293 21.0658 31.9619C21.0658 31.9619 19.7818 26.6894 15.3712 24.6176C15.2203 24.6582 15.0549 24.6335 14.8446 24.5304C14.3672 24.2979 13.8493 24.0902 13.3284 24.0161C13.1529 23.9914 13.0049 23.9449 12.8773 23.8824C12.8758 23.8824 12.8743 23.8824 12.8729 23.8809C12.8729 23.8809 9.02673 22.845 4.8106 25.4965C2.61694 26.9785 1.00363 29.2551 0.401533 31.9226C-0.547313 36.1331 1.16031 40.5266 4.74097 42.9761C5.17041 43.2696 5.29953 43.5631 5.27341 44.0571C5.26761 44.1849 5.27633 44.3099 5.29665 44.4305C6.29772 60.9686 16.867 65.5146 17.6621 66.0188C17.4895 64.9117 17.5924 63.2583 18.9533 61.4567ZM3.08703 35.7132C2.21943 31.3836 5.26473 27.1703 9.72024 26.5368C14.0481 25.9222 18.2395 29.3249 18.4601 33.6298C18.4963 34.3344 19.0607 39.8335 12.7409 41.7775C8.40576 43.1127 3.98364 40.1881 3.08703 35.7132Z" fill="white"/>
<path d="M40.1119 29.5932C39.974 29.4334 39.8507 29.2489 39.7419 29.0266C39.1964 27.9079 38.3447 27.3993 36.5776 26.7659C36.5776 26.7659 31.7623 25.4423 31.0732 32.7256C30.5538 34.27 29.6383 35.3074 28.5226 36.1863C27.0703 37.3298 25.4106 38.0504 23.6376 38.5197C22.4509 38.8335 21.2554 39.111 19.9743 39.4277C21.2351 37.0537 21.5746 34.6303 21.0682 31.9628C21.0682 31.9628 19.7842 26.6903 15.3737 24.6185C14.6323 24.2713 13.8068 24.0098 12.8812 23.8834C12.8797 23.8834 12.8783 23.8834 12.8768 23.8819C12.8768 23.8819 9.03063 22.846 4.81451 25.4975C2.62085 26.9795 1.00754 29.2561 0.405439 31.9236C-0.543406 36.1341 1.16421 40.5275 4.74487 42.9771C5.17432 43.2706 5.30343 43.5641 5.27732 44.058C5.27151 44.1859 5.28024 44.3108 5.30055 44.4314C6.30163 60.9695 16.871 65.5156 17.666 66.0198C17.5369 65.2047 17.5615 64.0932 18.1245 62.8467C18.0592 62.8234 17.9982 62.7958 17.9402 62.7638C10.2725 59.8871 7.60592 47.2282 8.00635 44.8223C8.02956 44.7453 8.05131 44.6639 8.07017 44.5767C8.57071 44.6465 9.0234 44.7031 9.47461 44.7714C10.8848 44.9864 12.2718 44.847 13.6269 44.446C17.5108 43.2967 21.3932 42.1432 25.264 40.9489C27.8001 40.1658 30.0547 38.8843 31.8479 36.8823C33.2349 35.3335 34.0227 33.5348 34.104 31.4354C34.1475 30.3196 34.8801 29.5816 35.8856 29.5903C36.8852 29.599 37.689 30.4373 37.6425 31.5459C37.4351 36.5205 34.9164 39.9464 30.503 42.056C29.6006 42.4875 28.6474 42.81 27.7159 43.1791C25.4918 44.0609 24.2557 45.9439 24.4806 48.1087C24.7113 50.3156 26.3289 51.9225 28.7068 52.3046C31.7449 52.7913 34.0169 54.9662 34.6175 57.9795C34.6857 58.3238 34.693 58.6813 34.7293 59.0735C35.533 58.8527 36.5486 58.536 37.5221 58.1379C37.5192 58.1088 37.5178 58.0798 37.5149 58.0507C37.4815 57.9577 37.4597 57.9054 37.4481 57.8531C36.4746 53.1167 33.6368 50.3069 28.8577 49.4816C27.9684 49.3276 27.3561 48.6593 27.2691 47.8413C27.1791 46.9827 27.6492 46.2315 28.5284 45.8727C29.4772 45.4848 30.4493 45.1492 31.3851 44.7336C36.1177 42.6328 39.1253 39.0965 40.2207 33.9896C40.286 33.6816 40.344 33.3736 40.4064 33.0569C40.4122 33.0583 40.418 33.0612 40.4238 33.0627C40.5587 32.1924 40.6255 30.8441 40.1119 29.5932ZM12.7419 41.7785C8.40531 43.1122 3.98465 40.1876 3.08803 35.7127C2.22043 31.3831 5.26573 27.1698 9.72124 26.5363C14.0491 25.9218 18.2405 29.3244 18.4611 33.6293C18.4973 34.3354 19.0602 39.8345 12.7419 41.7785Z" fill="#FFC20E"/>
</svg>
