<svg width="73" height="72" viewBox="0 0 73 72" fill="none" xmlns="http://www.w3.org/2000/svg">
<path d="M10.5024 61.8348C10.0671 61.8348 9.65657 62.0063 9.34754 62.3186C9.04577 62.6237 8.87603 63.0596 8.88328 63.5129C8.89053 63.9662 9.07333 64.3948 9.38381 64.6897C9.62175 64.9149 9.92643 65.0588 10.2659 65.1067C10.3457 65.1183 10.4284 65.1242 10.5097 65.1242C10.9594 65.1242 11.3889 64.9498 11.6921 64.6447C12.0055 64.328 12.1738 63.911 12.165 63.4693C12.1578 63.0218 11.9707 62.6034 11.6399 62.2925C11.3279 61.9976 10.9231 61.8348 10.5024 61.8348Z" fill="white"/>
<path d="M71.0211 6.48018C69.193 4.96919 67.5318 3.30273 66.0853 1.52586C65.3033 0.566959 64.6055 0.100586 63.9497 0.100586C63.4274 0.100586 62.8848 0.389713 62.2899 0.985393L60.1427 3.13565C53.6908 9.59515 47.0213 16.2755 40.4665 22.8498C40.3606 22.9558 40.2764 23.104 40.1807 23.2754C40.1284 23.3684 40.0733 23.4658 40.0095 23.5675L39.8499 23.8188L39.641 23.6067C39.2507 23.2115 38.8822 22.8352 38.5267 22.4735C37.8028 21.7354 37.1179 21.038 36.4361 20.3566C34.9722 18.895 33.1108 18.0901 31.1942 18.0901C28.7655 18.0901 26.5428 19.3454 25.0963 21.5349C24.8047 21.9766 24.5087 22.4168 24.2128 22.8556C23.3698 24.1094 22.4979 25.4068 21.7333 26.7304C20.6945 28.529 19.4424 29.3659 17.7957 29.3659C17.6681 29.3659 17.536 29.3601 17.404 29.3514C17.3939 29.3499 17.3823 29.3499 17.3721 29.3499C17.2967 29.3499 17.2096 29.3674 17.1168 29.3863C17.0442 29.4008 16.9702 29.4168 16.8919 29.4255C9.30691 30.3016 3.25839 35.6714 1.48256 43.1087C1.33168 43.7378 1.21559 44.3901 1.10243 45.0221L1.07197 45.1892C0.984917 45.6701 0.941406 46.1626 0.941406 46.6508C0.941406 48.5061 1.1126 50.3092 1.4492 52.0076C1.60154 52.7718 1.75821 53.3805 1.94392 53.9225C2.01501 54.1302 2.08901 54.3351 2.16445 54.5385L2.16735 54.5472L2.17026 54.5559C2.55328 55.8897 2.99432 56.9444 3.64865 58.082C3.93737 58.5847 4.96893 59.5233 5.41144 59.6163C5.5217 59.6395 5.63338 59.6512 5.7451 59.6512C6.00915 59.6512 6.26886 59.5887 6.51695 59.4652C7.386 59.0322 7.72549 58.082 7.34247 57.1551C7.28589 57.0171 7.21482 56.8849 7.15098 56.7672L7.13791 56.7439C7.10309 56.6786 7.06973 56.6146 7.03636 56.5493L7.01167 56.4999C6.50243 55.4625 6.0469 54.3946 5.65952 53.3239C5.54781 52.9636 5.44915 52.6134 5.36355 52.272C4.01862 46.8978 4.90653 42.1498 8.00551 38.1616C10.4168 35.0583 13.8002 33.3526 18.0627 33.094C20.9237 32.9197 23.0028 31.7297 24.4174 29.4531C25.3183 28.0031 26.2744 26.5546 27.2001 25.154C27.5163 24.6746 27.8326 24.1951 28.1489 23.7142C28.9367 22.5127 30.0103 21.8516 31.171 21.8516C32.1242 21.8516 33.073 22.2948 33.9131 23.1331C34.5688 23.7869 35.2232 24.4436 35.9036 25.1264L36.8858 26.1115L37.0541 26.28L36.8858 26.4485C36.5449 26.7885 36.2068 27.127 35.8717 27.4641C34.8358 28.5015 33.8579 29.4821 32.838 30.4599C32.7727 30.5224 32.6973 30.5718 32.616 30.6125C32.8162 30.5994 33.0179 30.5892 33.221 30.5892C34.6617 30.5892 36.0226 30.9321 37.2282 31.538L37.4226 31.3433L39.1665 29.5998L44.5462 24.2184L44.7131 24.0513L44.729 24.0673L50.0913 18.7962L50.647 18.2412L50.9081 17.9812L54.0564 14.7122L57.1844 11.5783L57.3513 11.4112L57.5196 11.5783L60.105 14.1557L61.2453 15.2919L61.4151 15.4604L61.2453 15.6289L59.9889 16.8755L58.1057 18.7454L54.8529 21.9373L54.393 22.3965L48.7319 28.067L48.7333 28.0685L48.565 28.237L47.4058 29.3964L46.4686 30.335L46.457 30.3466L43.4102 33.3947L41.4589 35.346L41.2398 35.5653L41.1687 35.4404C41.8042 36.671 42.1654 38.0672 42.1654 39.5491C42.1654 39.8833 42.1451 40.2116 42.1103 40.5356C42.28 40.0925 42.5136 39.7409 42.8487 39.4213C43.6772 38.6324 44.4708 37.8202 45.3122 36.9601C45.6561 36.6085 46.0072 36.2511 46.3656 35.8864L46.5368 35.7121L46.7051 35.8893C47.0895 36.2918 47.4856 36.6899 47.8686 37.0749C48.7377 37.9466 49.6343 38.8474 50.3989 39.8252C50.8762 40.4368 51.0692 41.2214 50.9429 42.0321C50.7892 43.0084 50.2059 43.9034 49.3427 44.4889C47.6989 45.6033 45.5241 47.0634 43.2724 48.4829C41.0396 49.8907 39.8789 51.8928 39.7265 54.6024C39.284 62.4291 33.237 68.1098 25.3473 68.1098C24.9179 68.1098 24.4783 68.0924 24.043 68.059C22.7997 67.9631 21.5462 67.748 20.3173 67.4197L20.3159 67.4226L20.1229 67.3834C19.7718 67.2976 19.4207 67.2105 19.0739 67.1204L19.0493 67.1146C18.4312 66.9562 17.7929 66.7935 17.1646 66.6497C16.8919 66.5887 16.6699 66.5596 16.4639 66.5596C15.9633 66.5596 15.5629 66.7383 15.2379 67.1059C14.7229 67.687 14.6155 68.351 14.9593 68.8362C15.264 69.2692 15.7762 69.5772 16.2288 69.8489C16.3043 69.8939 16.3768 69.9375 16.4479 69.9811C17.7464 70.7802 19.2451 71.1231 20.548 71.3817C21.2864 71.5648 22.0539 71.6621 22.7968 71.7565C23.1392 71.8001 23.4946 71.8452 23.8428 71.8975H26.4863C26.7169 71.8641 26.9461 71.8321 27.1768 71.8001C27.6716 71.7318 28.1837 71.6621 28.6799 71.5677C32.8583 70.7657 36.4549 68.7607 39.078 65.7692C41.7011 62.7777 43.2231 58.948 43.477 54.6939C43.5553 53.3762 44.1197 52.3984 45.2006 51.7083C47.1099 50.4879 49.0308 49.2108 50.8878 47.9744L51.3216 47.6867C53.2092 46.4314 54.4162 44.4773 54.6339 42.3256C54.8515 40.1739 54.0622 38.0193 52.4663 36.4124C51.7743 35.7164 51.0735 35.0162 50.3292 34.2752C49.968 33.9149 49.2019 33.1507 49.2019 33.1507C49.2019 33.1507 49.804 32.462 49.8998 32.3661C57.1293 25.1395 64.3545 17.9056 71.7349 10.5134C72.3906 9.85666 72.6852 9.29875 72.6591 8.75974C72.6286 8.09286 72.1237 7.39113 71.0211 6.48018ZM67.8031 9.00237L64.3936 12.4079L64.2253 12.575L64.0571 12.4065L62.2783 10.6209L60.4271 8.76264L60.2602 8.59557L60.4256 8.42848L63.8003 5.00114L63.9685 4.83116L64.1368 4.9997L66.9427 7.8052L67.8016 8.66385L67.9699 8.83238L67.8031 9.00237Z" fill="white"/>
<path d="M26.4471 57.2001C26.6821 57.4326 27.0143 57.5837 27.3654 57.7435C27.509 57.8089 27.6556 57.8757 27.7978 57.9498C28.6683 57.7813 29.2834 57.3265 29.5373 56.6596C29.842 55.8576 29.6824 55.1588 29.0484 54.5239L26.804 52.2734C24.0154 49.4781 21.1326 46.5883 18.289 43.7552C17.8799 43.3469 17.3706 43.1232 16.8541 43.1232C16.3666 43.1232 15.9024 43.3237 15.5469 43.6898C14.8128 44.4424 14.8491 45.6047 15.6325 46.3921C19.2524 50.036 22.8055 53.6057 26.4471 57.2001Z" fill="#FFC20E"/>
<path d="M37.4782 31.7167C38.9697 32.5115 40.1826 33.7144 41.085 35.2879L41.1677 35.4317C40.3001 33.7508 38.9174 32.3822 37.2272 31.5322L37.1953 31.5642L37.4782 31.7167Z" fill="#FCC110"/>
<path d="M41.1687 35.4327L41.086 35.2889C40.1836 33.714 38.9707 32.5125 37.4792 31.7177L37.1963 31.5666L37.2282 31.5347C36.0226 30.9288 34.6632 30.5859 33.221 30.5859C33.0179 30.5859 32.8163 30.5947 32.6161 30.6092C32.3999 30.7196 32.1416 30.7646 31.9051 30.8068L31.8123 30.8228C28.7409 31.3749 26.244 33.4408 25.1326 36.348C24.0315 39.232 24.5059 42.408 26.405 44.8459C28.1692 47.111 30.4093 48.2587 33.0672 48.2587C33.8333 48.2587 34.6385 48.1614 35.4611 47.9682C38.9301 47.1546 41.1049 44.8619 41.9246 41.1556C41.9754 40.9261 42.0378 40.7212 42.1103 40.5309C42.1451 40.2069 42.1654 39.8771 42.1654 39.5444C42.1654 38.0595 41.8042 36.6633 41.1687 35.4327ZM33.3777 44.506C33.3371 44.506 33.295 44.506 33.2544 44.5045C30.4659 44.4362 28.249 42.1407 28.3114 39.3875C28.3752 36.6168 30.5892 34.4477 33.3545 34.4477C33.4009 34.4477 33.4459 34.4477 33.4923 34.4491C36.2315 34.5189 38.4136 36.8086 38.3584 39.5531C38.3004 42.331 36.114 44.506 33.3777 44.506Z" fill="#FFC20E"/>
</svg>
