<svg width="169" height="83" viewBox="0 0 169 83" fill="none" xmlns="http://www.w3.org/2000/svg">
<path d="M156.667 46.3711H153.458H152.859V45.7431V22.1558C152.859 20.6699 151.664 19.4141 150.249 19.4141C149.568 19.4141 148.918 19.7045 148.417 20.23L141.999 26.9693L141.99 26.9777L141.982 26.9861C141.499 27.4545 141.222 28.1496 141.222 28.8933C141.222 30.3792 142.418 31.635 143.833 31.635C144.523 31.635 145.157 31.353 145.665 30.8191L146.618 29.8184L147.639 28.7456V30.2633V45.7431V46.3711H147.04H143.831C142.416 46.3711 141.221 47.6269 141.221 49.1128C141.221 50.5986 142.416 51.8545 143.831 51.8545H156.667C158.082 51.8545 159.277 50.5986 159.277 49.1128C159.277 47.6269 158.082 46.3711 156.667 46.3711Z" fill="#FFC20E"/>
<path d="M104.255 32.8926H94.628H94.0295V32.2646V25.5254V24.8975H94.628H109.068C110.483 24.8975 111.679 23.6416 111.679 22.1558C111.679 20.6699 110.483 19.4141 109.068 19.4141H91.4191C90.004 19.4141 88.8086 20.6699 88.8086 22.1558V35.6343C88.8086 37.1201 90.004 38.376 91.4191 38.376H104.255C106.354 38.376 108.062 40.1691 108.062 42.3735C108.062 44.578 106.354 46.3711 104.255 46.3711H91.4191C90.004 46.3711 88.8086 47.6269 88.8086 49.1128C88.8086 50.5986 90.004 51.8545 91.4191 51.8545H104.255C109.233 51.8545 113.283 47.6017 113.283 42.3735C113.282 37.1453 109.233 32.8926 104.255 32.8926Z" fill="#FFC20E"/>
<path d="M133.863 26.0688C133.16 26.0688 132.505 26.3509 132.017 26.8613L127.478 31.6261L127.056 32.071L126.633 31.6261L122.095 26.8613C121.607 26.3492 120.951 26.0672 120.249 26.0672C119.546 26.0672 118.891 26.3492 118.403 26.8613C117.402 27.9123 117.402 29.687 118.403 30.738L122.942 35.5028L123.364 35.9477L122.942 36.3926L118.403 41.1574C117.402 42.2085 117.402 43.9831 118.403 45.0341C118.891 45.5462 119.545 45.8266 120.249 45.8266C120.953 45.8266 121.607 45.5445 122.095 45.0341L126.633 40.2693L127.056 39.8244L127.478 40.2693L132.017 45.0341C132.505 45.5462 133.16 45.8282 133.863 45.8282C134.565 45.8282 135.221 45.5462 135.709 45.0358C136.71 43.9848 136.71 42.2101 135.709 41.1591L131.17 36.3943L130.748 35.9494L131.17 35.5045L135.709 30.7396C136.71 29.6886 136.71 27.914 135.709 26.863C135.221 26.3509 134.565 26.0688 133.863 26.0688Z" fill="#FFC20E"/>
<path d="M158.302 62.2339H79.9512V58.3724H158.302C161.55 58.3724 164.192 55.6441 164.192 52.2896V18.9795C164.192 15.625 161.55 12.8967 158.302 12.8967H79.9512V9.03516H158.302C163.676 9.03516 168.048 13.4961 168.048 18.9795V52.2896C168.048 57.773 163.678 62.2339 158.302 62.2339Z" fill="#FFC20E"/>
<path d="M82.9259 42.2735C82.9142 42.6311 82.8907 43.0005 82.8924 43.3699C82.9158 49.6508 82.9728 55.9317 82.9594 62.2142C82.951 66.5996 79.0077 69.5344 74.9219 68.2265C73.0877 67.6389 71.837 66.378 71.0658 64.6034C70.9149 64.2541 70.5595 63.8613 70.2141 63.7505C60.2452 60.5437 50.2679 57.3705 40.2889 54.194C40.2386 54.1789 40.1749 54.204 39.9871 54.2275C40.2302 55.0133 40.47 55.7772 40.703 56.5428C41.932 60.5538 39.6954 63.6329 35.5224 63.6766C35.0211 63.6816 34.5215 63.6883 33.9112 63.6967C33.9967 64.0644 34.0638 64.3918 34.1493 64.7125C34.9239 67.5969 35.7974 70.4578 36.4563 73.3674C37.5461 78.1692 33.9096 82.6435 29.014 82.6133C28.1237 82.6083 27.2334 82.3732 26.3432 82.2439C25.634 81.8376 24.9265 81.433 24.2173 81.0267C22.3882 79.3646 21.6957 77.1517 21.0821 74.8499C18.9797 66.9522 16.8052 59.073 14.6659 51.1836C14.5753 50.8529 14.572 50.4969 14.5284 50.1595C12.6473 50.1628 10.9556 50.1796 9.26559 50.1645C4.14365 50.1209 0.272472 46.2996 0.20038 41.1621C0.145053 37.1746 0.128284 33.1838 0.155109 29.1963C0.191993 23.9311 4.01456 20.1065 9.26894 20.0629C14.976 20.0142 20.6848 20.0159 26.3918 19.9722C26.9753 19.9672 27.5805 19.8664 28.1338 19.6834C32.0972 18.3705 36.0506 17.024 40.0073 15.6893C40.185 15.6288 40.3644 15.5667 40.5438 15.5113C41.8079 15.1218 42.8055 15.5331 43.171 16.5976C43.5382 17.6687 42.948 18.6727 41.6754 19.1076C40.1011 19.6465 38.5218 20.1703 36.9442 20.7026C34.4779 21.5353 32.0117 22.3681 29.4985 23.2176C29.4935 23.5282 29.4851 23.8035 29.4851 24.0772C29.5136 31.2379 29.5673 38.3985 29.5471 45.5592C29.5438 46.5515 29.8355 46.9393 30.7811 47.2365C43.9355 51.3885 57.0731 55.5875 70.2158 59.7747C70.3046 59.8033 70.3969 59.8184 70.6584 59.8805C70.5897 43.0559 70.5192 26.2817 70.4505 9.40835C67.6573 10.3469 64.9547 11.2569 62.252 12.1652C60.9426 12.605 59.6366 13.0584 58.3222 13.4831C57.0463 13.8945 56.0689 13.4781 55.6983 12.4002C55.3194 11.2938 55.8744 10.3402 57.1804 9.89692C61.3735 8.47654 65.5666 7.05784 69.7681 5.66097C70.3097 5.48132 70.64 5.23284 70.873 4.66872C72.0818 1.73058 74.8566 0.227932 77.8308 0.830669C80.7413 1.41998 82.7129 3.86786 82.7364 7.01083C82.7834 13.2917 82.7968 19.5726 82.8236 25.8552C82.8253 26.1977 82.8354 26.5385 82.8437 26.9851M25.7195 23.7767C25.3507 23.7716 25.1042 23.7649 24.856 23.7649C19.7458 23.7817 14.634 23.7968 9.52379 23.8203C6.03651 23.8371 3.91398 25.9828 3.91901 29.4918C3.92404 33.2291 3.94248 36.9647 3.96428 40.702C3.9844 44.2765 6.1019 46.397 9.65121 46.3886C14.7933 46.3752 19.9353 46.35 25.0774 46.3248C25.3154 46.3231 25.5552 46.2811 25.8117 46.256C25.7832 38.7478 25.7514 31.3101 25.7195 23.7767ZM77.4418 4.57134C77.0713 4.58645 76.3739 4.48907 75.7519 4.66368C74.6856 4.96421 74.2127 5.91617 74.2177 7.38859C74.2915 25.5295 74.367 43.6721 74.4424 61.813C74.4441 62.0631 74.4408 62.3167 74.4676 62.5651C74.6034 63.8562 75.6177 64.7847 76.8567 64.7629C78.1024 64.741 79.0882 63.7992 79.1938 62.5081C79.224 62.1337 79.2089 61.7559 79.2073 61.3781C79.1503 47.9752 79.0932 34.5739 79.0345 21.171C79.0144 16.5254 78.9843 11.8797 78.9809 7.23581C78.9809 6.18312 78.6724 5.33022 77.4418 4.57134ZM18.3761 50.1326C18.3795 50.3005 18.3627 50.3979 18.3862 50.4852C20.7015 59.0024 22.9934 67.5264 25.3808 76.0235C25.6139 76.8512 26.3164 77.6688 27.0155 78.2179C28.2193 79.1631 29.9981 79.0372 31.2505 78.1591C32.5935 77.2189 33.1953 75.6743 32.7578 74.0121C31.7988 70.3672 30.7911 66.7339 29.8019 63.0974C28.6971 59.036 27.6023 54.9713 26.4689 50.9184C26.3817 50.6061 26.0313 50.1393 25.7949 50.1343C23.327 50.089 20.8574 50.1225 18.3761 50.1326ZM30.6369 51.1299C31.4584 54.1033 32.2531 56.986 33.0612 59.9124C33.928 59.9074 34.8971 59.9292 35.8645 59.8889C36.9861 59.8436 37.5343 59.12 37.2208 58.0522C36.7362 56.3984 36.2031 54.7581 35.6566 53.1245C35.5811 52.8978 35.3431 52.6359 35.1217 52.562C33.6497 52.0634 32.1609 51.6118 30.6369 51.1299Z" fill="white"/>
<path d="M48.4742 16.0841C47.594 15.5536 47.2956 14.4136 47.812 13.5388C48.3234 12.6708 49.4869 12.3636 50.3637 12.8656C51.2792 13.3877 51.5793 14.5798 51.021 15.483C50.4777 16.3611 49.3712 16.623 48.4742 16.0841Z" fill="white"/>
</svg>
