<svg width="12" height="12" viewBox="0 0 12 12" fill="none" xmlns="http://www.w3.org/2000/svg">
<path d="M6 12C5.75714 12 5.55343 11.9177 5.38886 11.7531C5.22429 11.5886 5.14229 11.3851 5.14286 11.1429V6.85714H0.857145C0.614288 6.85714 0.410574 6.77486 0.246003 6.61029C0.0814316 6.44571 -0.000568462 6.24229 2.96589e-06 6C2.96589e-06 5.75714 0.0822887 5.55343 0.24686 5.38886C0.411431 5.22429 0.61486 5.14229 0.857145 5.14286H5.14286V0.857145C5.14286 0.614288 5.22514 0.410574 5.38971 0.246003C5.55429 0.0814316 5.75771 -0.000568462 6 2.96589e-06C6.24286 2.96589e-06 6.44657 0.0822887 6.61114 0.24686C6.77571 0.411431 6.85771 0.61486 6.85714 0.857145V5.14286H11.1429C11.3857 5.14286 11.5894 5.22514 11.754 5.38971C11.9186 5.55429 12.0006 5.75771 12 6C12 6.24286 11.9177 6.44657 11.7531 6.61114C11.5886 6.77571 11.3851 6.85771 11.1429 6.85714H6.85714V11.1429C6.85714 11.3857 6.77486 11.5894 6.61029 11.754C6.44571 11.9186 6.24229 12.0006 6 12Z" fill="#1E1E1E"/>
</svg>
