<svg width="196" height="181" viewBox="0 0 196 181" fill="none" xmlns="http://www.w3.org/2000/svg">
<g clip-path="url(#clip0_165_2204)">
<path d="M117.392 96.7285H66.9941V180.882H117.392V96.7285Z" fill="#455A64"/>
<g opacity="0.3">
<path d="M117.392 96.7285H66.9941V180.882H117.392V96.7285Z" fill="black"/>
</g>
<path d="M127.854 96.7285H77.457V180.882H127.854V96.7285Z" fill="#455A64"/>
<path d="M77.2987 137.991C77.3364 138.037 75.0839 139.854 72.2703 142.049C69.4567 144.243 67.1456 145.98 67.1079 145.934C67.0702 145.888 69.3227 144.071 72.1363 141.877C74.9541 139.682 77.2652 137.945 77.2987 137.991Z" fill="#455A64"/>
<path d="M77.2987 133.246C77.3364 133.292 75.0839 135.109 72.2703 137.303C69.4567 139.498 67.1456 141.235 67.1079 141.189C67.0702 141.143 69.3227 139.326 72.1363 137.131C74.9541 134.941 77.2652 133.2 77.2987 133.246Z" fill="#455A64"/>
<path d="M77.2987 128.504C77.3364 128.55 75.0839 130.367 72.2703 132.561C69.4567 134.756 67.1456 136.493 67.1079 136.447C67.0702 136.401 69.3227 134.584 72.1363 132.389C74.9541 130.195 77.2652 128.454 77.2987 128.504Z" fill="#455A64"/>
<path d="M77.2987 123.759C77.3364 123.805 75.0839 125.622 72.2703 127.816C69.4567 130.011 67.1456 131.748 67.1079 131.702C67.0702 131.655 69.3227 129.839 72.1363 127.644C74.9541 125.45 77.2652 123.713 77.2987 123.759Z" fill="#455A64"/>
<path d="M77.2987 119.014C77.3364 119.06 75.0839 120.877 72.2703 123.071C69.4567 125.266 67.1456 127.003 67.1079 126.956C67.0702 126.91 69.3227 125.093 72.1363 122.899C74.9541 120.709 77.2652 118.967 77.2987 119.014Z" fill="#455A64"/>
<path d="M77.2987 114.272C77.3364 114.318 75.0839 116.135 72.2703 118.329C69.4567 120.524 67.1456 122.261 67.1079 122.214C67.0702 122.168 69.3227 120.351 72.1363 118.157C74.9541 115.963 77.2652 114.221 77.2987 114.272Z" fill="#455A64"/>
<path d="M77.2987 109.526C77.3364 109.572 75.0839 111.389 72.2703 113.584C69.4567 115.778 67.1456 117.515 67.1079 117.469C67.0702 117.423 69.3227 115.606 72.1363 113.412C74.9541 111.217 77.2652 109.48 77.2987 109.526Z" fill="#455A64"/>
<path d="M77.2987 104.78C77.3364 104.826 75.0839 106.643 72.2703 108.838C69.4567 111.032 67.1456 112.769 67.1079 112.723C67.0702 112.677 69.3227 110.86 72.1363 108.666C74.9541 106.475 77.2652 104.734 77.2987 104.78Z" fill="#455A64"/>
<path d="M77.2987 100.039C77.3364 100.085 75.0839 101.902 72.2703 104.097C69.4567 106.291 67.1456 108.028 67.1079 107.982C67.0702 107.936 69.3227 106.119 72.1363 103.925C74.9541 101.73 77.2652 99.9888 77.2987 100.039Z" fill="#455A64"/>
<path d="M75.2344 96.9044C75.2721 96.9506 73.4843 98.4066 71.2402 100.156C68.996 101.906 67.1496 103.282 67.1119 103.236C67.0742 103.19 68.862 101.734 71.1062 99.9843C73.3462 98.2388 75.1968 96.8583 75.2344 96.9044Z" fill="#455A64"/>
<path d="M69.2597 96.8167C69.2974 96.8629 68.8452 97.2783 68.2507 97.7398C67.6561 98.2014 67.1453 98.5371 67.1077 98.4909C67.07 98.4448 67.5222 98.0294 68.1167 97.5678C68.7112 97.1063 69.222 96.7706 69.2597 96.8167Z" fill="#455A64"/>
<path d="M67.0864 151.952C67.0487 151.905 69.3013 150.089 72.1148 147.894C74.9284 145.7 77.2396 143.963 77.2773 144.009C77.3149 144.055 75.0624 145.872 72.2488 148.066C69.4311 150.261 67.1199 152.002 67.0864 151.952Z" fill="#455A64"/>
<path d="M67.397 157.956C67.3593 157.909 69.6118 156.093 72.4254 153.898C75.239 151.704 77.5501 149.966 77.5878 150.013C77.6255 150.059 75.3729 151.876 72.5594 154.07C69.7458 156.265 67.4346 158.002 67.397 157.956Z" fill="#455A64"/>
<path d="M67.1118 163.465C67.0741 163.419 69.3267 161.602 72.1402 159.408C74.9538 157.213 77.265 155.476 77.3026 155.522C77.3403 155.569 75.0878 157.385 72.2742 159.58C69.4606 161.774 67.1495 163.511 67.1118 163.465Z" fill="#455A64"/>
<path d="M67.1118 168.21C67.0741 168.164 69.3267 166.347 72.1402 164.153C74.9538 161.958 77.265 160.221 77.3026 160.268C77.3403 160.314 75.0878 162.131 72.2742 164.325C69.4606 166.519 67.1495 168.257 67.1118 168.21Z" fill="#455A64"/>
<path d="M67.1118 172.952C67.0741 172.905 69.3267 171.089 72.1402 168.894C74.9538 166.7 77.265 164.963 77.3026 165.009C77.3403 165.055 75.0878 166.872 72.2742 169.066C69.4606 171.261 67.1495 173.002 67.1118 172.952Z" fill="#455A64"/>
<path d="M67.1118 177.698C67.0741 177.652 69.3267 175.835 72.1402 173.64C74.9538 171.446 77.265 169.709 77.3026 169.755C77.3403 169.801 75.0878 171.618 72.2742 173.812C69.4606 176.007 67.1495 177.744 67.1118 177.698Z" fill="#455A64"/>
<path d="M69.1803 180.832C69.1426 180.786 70.9304 179.33 73.1746 177.58C75.4187 175.83 77.2651 174.454 77.3028 174.5C77.3405 174.546 75.5527 176.002 73.3085 177.752C71.0644 179.498 69.2138 180.878 69.1803 180.832Z" fill="#455A64"/>
<path d="M75.1506 180.92C75.1129 180.873 75.5651 180.458 76.1597 179.997C76.7542 179.535 77.265 179.199 77.3027 179.245C77.3404 179.292 76.8882 179.707 76.2936 180.169C75.6991 180.63 75.1883 180.966 75.1506 180.92Z" fill="#455A64"/>
<path d="M187.099 121.359H142.701V180.866H187.099V121.359Z" fill="#455A64"/>
<g opacity="0.3">
<path d="M187.099 121.359H142.701V180.866H187.099V121.359Z" fill="black"/>
</g>
<path d="M195.999 121.359H151.602V180.866H195.999V121.359Z" fill="#455A64"/>
<path d="M151.602 157.65C151.64 157.696 149.672 159.29 147.21 161.212C144.748 163.134 142.722 164.648 142.684 164.602C142.646 164.556 144.614 162.962 147.076 161.04C149.538 159.118 151.564 157.599 151.602 157.65Z" fill="#455A64"/>
<path d="M151.602 153.496C151.64 153.542 149.672 155.137 147.21 157.058C144.748 158.98 142.722 160.495 142.684 160.449C142.646 160.403 144.614 158.808 147.076 156.886C149.538 154.965 151.564 153.45 151.602 153.496Z" fill="#455A64"/>
<path d="M151.602 149.342C151.64 149.388 149.672 150.982 147.21 152.904C144.748 154.826 142.722 156.341 142.684 156.294C142.646 156.248 144.614 154.654 147.076 152.732C149.538 150.815 151.564 149.296 151.602 149.342Z" fill="#455A64"/>
<path d="M151.602 145.193C151.64 145.239 149.672 146.833 147.21 148.755C144.748 150.677 142.722 152.191 142.684 152.145C142.646 152.099 144.614 150.505 147.076 148.583C149.538 146.661 151.564 145.142 151.602 145.193Z" fill="#455A64"/>
<path d="M151.602 141.038C151.64 141.084 149.672 142.679 147.21 144.6C144.748 146.522 142.722 148.037 142.684 147.991C142.646 147.945 144.614 146.35 147.076 144.428C149.538 142.507 151.564 140.992 151.602 141.038Z" fill="#455A64"/>
<path d="M151.602 136.885C151.64 136.931 149.672 138.525 147.21 140.447C144.748 142.369 142.722 143.884 142.684 143.837C142.646 143.791 144.614 142.197 147.076 140.275C149.538 138.358 151.564 136.839 151.602 136.885Z" fill="#455A64"/>
<path d="M151.602 132.735C151.64 132.781 149.672 134.375 147.21 136.297C144.748 138.219 142.722 139.733 142.684 139.687C142.646 139.641 144.614 138.047 147.076 136.125C149.538 134.203 151.564 132.684 151.602 132.735Z" fill="#455A64"/>
<path d="M151.602 128.58C151.64 128.626 149.672 130.221 147.21 132.142C144.748 134.064 142.722 135.579 142.684 135.533C142.646 135.487 144.614 133.892 147.076 131.97C149.538 130.049 151.564 128.534 151.602 128.58Z" fill="#455A64"/>
<path d="M151.602 124.427C151.64 124.473 149.672 126.067 147.21 127.989C144.748 129.911 142.722 131.426 142.684 131.379C142.646 131.333 144.614 129.739 147.076 127.817C149.538 125.9 151.564 124.381 151.602 124.427Z" fill="#455A64"/>
<path d="M149.789 121.687C149.827 121.733 148.265 123.013 146.302 124.544C144.338 126.076 142.718 127.276 142.68 127.23C142.642 127.183 144.204 125.904 146.168 124.372C148.131 122.841 149.756 121.641 149.789 121.687Z" fill="#455A64"/>
<path d="M144.564 121.611C144.602 121.657 144.208 122.027 143.689 122.429C143.17 122.832 142.718 123.122 142.68 123.076C142.643 123.029 143.036 122.66 143.555 122.257C144.074 121.85 144.527 121.561 144.564 121.611Z" fill="#455A64"/>
<path d="M151.602 173.968C151.64 174.014 149.672 175.608 147.21 177.53C144.748 179.452 142.722 180.967 142.684 180.92C142.646 180.874 144.614 179.28 147.076 177.358C149.538 175.436 151.564 173.922 151.602 173.968Z" fill="#455A64"/>
<path d="M151.602 169.814C151.64 169.86 149.672 171.454 147.21 173.376C144.748 175.298 142.722 176.812 142.684 176.766C142.646 176.72 144.614 175.126 147.076 173.204C149.538 171.286 151.564 169.767 151.602 169.814Z" fill="#455A64"/>
<path d="M151.602 165.664C151.64 165.71 149.672 167.305 147.21 169.227C144.748 171.148 142.722 172.663 142.684 172.617C142.646 172.571 144.614 170.976 147.076 169.055C149.538 167.133 151.564 165.614 151.602 165.664Z" fill="#455A64"/>
<path d="M151.602 161.51C151.64 161.556 149.672 163.15 147.21 165.072C144.748 166.994 142.722 168.509 142.684 168.462C142.646 168.416 144.614 166.822 147.076 164.9C149.538 162.978 151.564 161.464 151.602 161.51Z" fill="#455A64"/>
<path d="M47.6064 140.399H0.00585938V180.92H47.6064V140.399Z" fill="#455A64"/>
<g opacity="0.3">
<path d="M47.6064 140.399H0.00585938V180.92H47.6064V140.399Z" fill="black"/>
</g>
<path d="M56.1709 140.399H8.57031V180.92H56.1709V140.399Z" fill="#455A64"/>
<path d="M8.4078 174.365C8.44548 174.412 6.59489 175.918 4.27117 177.726C1.95165 179.535 0.0382472 180.966 0.000565388 180.915C-0.0371165 180.865 1.81348 179.363 4.13719 177.554C6.46091 175.746 8.37012 174.319 8.4078 174.365Z" fill="#455A64"/>
<path d="M8.4078 170.451C8.44548 170.497 6.59489 172.004 4.27117 173.812C1.95165 175.621 0.0382472 177.051 0.000565388 177.001C-0.0371165 176.951 1.81348 175.449 4.13719 173.64C6.46091 171.832 8.37012 170.405 8.4078 170.451Z" fill="#455A64"/>
<path d="M8.40805 166.54C8.44573 166.587 6.59513 168.093 4.27142 169.901C1.95189 171.71 0.0384914 173.141 0.000809529 173.09C-0.0368723 173.044 1.81372 171.538 4.13744 169.729C6.46115 167.921 8.37036 166.49 8.40805 166.54Z" fill="#455A64"/>
<path d="M8.4078 162.625C8.44548 162.671 6.59489 164.178 4.27117 165.986C1.95165 167.795 0.0382472 169.225 0.000565388 169.175C-0.0371165 169.129 1.81348 167.622 4.13719 165.814C6.46091 164.006 8.37012 162.579 8.4078 162.625Z" fill="#455A64"/>
<path d="M8.4078 158.711C8.44548 158.757 6.59489 160.264 4.27117 162.072C1.95165 163.88 0.0382472 165.311 0.000565388 165.261C-0.0371165 165.215 1.81348 163.708 4.13719 161.9C6.46091 160.092 8.37012 158.665 8.4078 158.711Z" fill="#455A64"/>
<path d="M8.40805 154.796C8.44573 154.842 6.59513 156.348 4.27142 158.157C1.95189 159.965 0.0384914 161.396 0.000809529 161.346C-0.0368723 161.296 1.81372 159.793 4.13744 157.985C6.46115 156.176 8.37036 154.75 8.40805 154.796Z" fill="#455A64"/>
<path d="M8.4078 150.885C8.44548 150.931 6.59489 152.438 4.27117 154.246C1.95165 156.054 0.0382472 157.485 0.000565388 157.435C-0.0371165 157.385 1.81348 155.882 4.13719 154.074C6.46091 152.266 8.37012 150.835 8.4078 150.885Z" fill="#455A64"/>
<path d="M8.4078 146.971C8.44548 147.017 6.59489 148.523 4.27117 150.332C1.95165 152.14 0.0382472 153.571 0.000565388 153.521C-0.0371165 153.475 1.81348 151.968 4.13719 150.16C6.46091 148.351 8.37012 146.925 8.4078 146.971Z" fill="#455A64"/>
<path d="M8.40805 143.056C8.44573 143.102 6.59513 144.608 4.27142 146.417C1.95189 148.225 0.0384914 149.656 0.000809529 149.606C-0.0368723 149.559 1.81372 148.053 4.13744 146.245C6.46115 144.436 8.37036 143.01 8.40805 143.056Z" fill="#455A64"/>
<path d="M6.70361 140.471C6.74129 140.517 5.2717 141.726 3.4211 143.169C1.5705 144.612 0.0422968 145.741 0.004615 145.695C-0.0330668 145.649 1.43652 144.44 3.28712 142.997C5.13772 141.554 6.66593 140.425 6.70361 140.471Z" fill="#455A64"/>
<path d="M1.77593 140.4C1.81361 140.446 1.44517 140.794 0.955305 141.176C0.465441 141.558 0.03838 141.826 0.000698208 141.78C-0.0369836 141.734 0.331461 141.386 0.821325 141.004C1.31119 140.622 1.73825 140.354 1.77593 140.4Z" fill="#455A64"/>
<g opacity="0.3">
<path d="M119.693 93.1626C119.308 93.0032 118.876 93.0493 118.466 93.0955C105.671 94.5179 91.4985 95.4872 78.6992 96.9096V97.0565C86.8971 99.4272 95.4844 100.43 104.005 100.01C104.804 99.9726 105.717 99.9642 106.261 100.552C106.856 101.194 106.697 102.205 106.5 103.057C104.704 110.903 102.904 118.745 101.107 126.592C100.823 127.825 100.626 129.34 101.593 130.158C102.924 131.283 104.884 129.944 106.006 128.61C113.626 119.551 117.08 107.794 120.346 96.4061C120.677 95.2396 120.811 93.6242 119.693 93.1626Z" fill="black"/>
</g>
<path d="M136.023 89.3359C134.725 88.1778 132.937 87.6407 131.2 87.7414L128.252 97.1319C130.412 97.2284 132.569 98.3445 134.654 97.7697C136.328 97.3082 137.601 95.7347 137.832 94.006C138.066 92.2898 137.317 90.494 136.023 89.3359Z" fill="#F5B61A"/>
<path d="M131.25 87.5229C131.255 87.4473 131.573 87.3886 132.142 87.3928C132.712 87.4096 133.557 87.4725 134.558 87.8501C135.559 88.2236 136.651 88.9831 137.497 90.1369C137.92 90.716 138.272 91.4041 138.477 92.172C138.686 92.944 138.72 93.8 138.548 94.635C138.376 95.47 138.012 96.2546 137.476 96.8756C136.94 97.505 136.254 97.9414 135.575 98.1973C134.198 98.7134 132.875 98.6337 131.866 98.4365C130.844 98.2351 130.074 97.9372 129.555 97.719C129.036 97.4924 128.763 97.3288 128.784 97.2532C128.805 97.1777 129.123 97.1987 129.676 97.291C130.229 97.3791 131.016 97.5511 131.975 97.6393C132.925 97.7232 134.081 97.698 135.178 97.2239C135.722 96.9889 136.229 96.6364 136.622 96.1581C137.016 95.6798 137.3 95.0672 137.434 94.4042C137.715 93.0699 137.313 91.7398 136.635 90.7328C135.956 89.7173 135.069 88.9914 134.231 88.5802C133.39 88.1606 132.611 87.9718 132.079 87.825C131.552 87.6949 131.246 87.6026 131.25 87.5229Z" fill="#E0E0E0"/>
<path d="M104.547 122.06L98.6055 138.747L119.284 146.262C119.879 144.239 110.622 136.376 110.622 136.376L114.867 125.84L104.547 122.06Z" fill="#F5B61A"/>
<g opacity="0.6">
<path d="M104.547 133.154C104.107 133.12 103.667 133.468 103.613 133.909C103.559 134.349 103.91 134.798 104.35 134.845C104.79 134.887 105.33 134.484 105.334 134.043C105.338 133.603 104.894 133.095 104.459 133.158" fill="white"/>
</g>
<path d="M98.6055 138.742L99.2042 137.06L118.845 144.91C118.845 144.91 119.619 145.644 119.28 146.257L98.6055 138.742Z" fill="#F5F5F5"/>
<path d="M110.99 136.389C110.948 136.49 110.429 136.351 109.814 136.498C109.194 136.628 108.779 136.972 108.704 136.897C108.616 136.842 108.989 136.293 109.734 136.129C110.479 135.965 111.045 136.305 110.99 136.389Z" fill="#263238"/>
<path d="M112.832 138.08C112.82 138.184 112.321 138.197 111.823 138.503C111.317 138.793 111.061 139.225 110.965 139.183C110.864 139.166 111.007 138.545 111.635 138.18C112.259 137.807 112.866 137.979 112.832 138.08Z" fill="#263238"/>
<path d="M113.125 141.126C113.024 141.113 113.066 140.559 113.527 140.098C113.983 139.636 114.54 139.59 114.553 139.691C114.578 139.796 114.163 139.98 113.795 140.362C113.41 140.735 113.23 141.155 113.125 141.126Z" fill="#263238"/>
<path d="M111.693 133.884C111.618 133.96 111.203 133.653 110.621 133.485C110.039 133.305 109.524 133.334 109.503 133.229C109.47 133.137 110.039 132.919 110.726 133.125C111.413 133.326 111.768 133.821 111.693 133.884Z" fill="#263238"/>
<path d="M112.092 131.244C112.079 131.286 111.656 131.202 111.058 130.862C110.76 130.69 110.425 130.451 110.095 130.136C109.931 129.977 109.768 129.801 109.613 129.603C109.542 129.507 109.45 129.406 109.387 129.247C109.312 129.1 109.345 128.81 109.534 128.693C109.697 128.571 109.91 128.571 110.061 128.622C110.216 128.672 110.329 128.747 110.43 128.815C110.639 128.953 110.827 129.108 110.995 129.272C111.326 129.595 111.564 129.939 111.723 130.245C112.041 130.866 112.071 131.303 112.029 131.311C111.97 131.328 111.853 130.925 111.497 130.38C111.321 130.107 111.079 129.805 110.76 129.524C110.601 129.381 110.425 129.247 110.233 129.125C110.036 128.987 109.848 128.919 109.755 128.995C109.722 129.024 109.714 129.037 109.735 129.121C109.76 129.196 109.827 129.289 109.898 129.381C110.036 129.566 110.183 129.738 110.333 129.893C110.631 130.203 110.928 130.451 111.196 130.64C111.732 131.022 112.113 131.189 112.092 131.244Z" fill="#263238"/>
<path d="M111.907 131.341C111.865 131.345 111.798 130.908 111.995 130.237C112.095 129.906 112.271 129.524 112.548 129.15C112.686 128.966 112.849 128.785 113.037 128.617C113.234 128.458 113.481 128.236 113.887 128.332C114.097 128.399 114.206 128.622 114.214 128.777C114.231 128.94 114.201 129.066 114.181 129.196C114.13 129.452 114.042 129.687 113.929 129.897C113.703 130.313 113.393 130.615 113.1 130.808C112.502 131.198 112.037 131.164 112.041 131.127C112.024 131.064 112.447 130.996 112.945 130.594C113.188 130.396 113.448 130.107 113.628 129.738C113.716 129.553 113.787 129.347 113.825 129.129C113.871 128.898 113.854 128.689 113.762 128.68C113.661 128.643 113.427 128.743 113.276 128.89C113.104 129.037 112.95 129.196 112.816 129.36C112.552 129.687 112.363 130.027 112.242 130.321C111.995 130.929 111.966 131.345 111.907 131.341Z" fill="#263238"/>
<path d="M82.2974 74.6415C78.9102 74.7212 75.6989 75.1995 73.3668 77.6625C70.2727 80.927 66.4501 85.5761 66.2324 88.8027C65.9058 93.6239 68.8073 95.0547 70.9258 96.2295C71.8637 96.7498 72.9313 96.9848 74.0032 96.9428L113.142 96.6449L114.369 90.0028L89.055 83.7508L90.1059 74.2051L82.2974 74.6415Z" fill="#263238"/>
<path d="M90.1059 74.2012L102.419 73.6348C102.419 73.6348 123.689 74.818 128.223 78.9888C132.762 83.1553 132.192 87.8925 130.681 92.4367C129.169 96.9851 115.843 126.063 115.843 126.063C115.843 126.063 116.923 127.913 116.316 129.755C115.374 132.613 112.841 133.074 112.841 133.074L101.004 128.715C101.004 128.715 99.3965 128.148 100.531 126.629C101.666 125.115 102.419 124.829 102.419 124.829V121.8C102.419 121.8 106.577 114.222 106.958 113.181C107.335 112.141 111.321 96.7166 111.321 96.7166L113.967 92.1556C113.967 92.1556 107.565 89.1387 102.013 86.9527L89.0508 83.7512L90.1059 74.2012Z" fill="#263238"/>
<path d="M110.073 128.161C110.048 128.19 109.675 127.892 109.035 127.477C108.394 127.062 107.469 126.545 106.384 126.13C105.296 125.719 104.262 125.488 103.508 125.371C102.754 125.253 102.277 125.228 102.281 125.19C102.281 125.165 102.759 125.136 103.529 125.211C104.299 125.287 105.359 125.496 106.464 125.916C107.569 126.34 108.499 126.89 109.123 127.343C109.755 127.8 110.09 128.144 110.073 128.161Z" fill="#455A64"/>
<path d="M115.989 126.08C115.963 126.101 115.7 125.824 115.302 125.354C114.904 124.884 114.372 124.217 113.816 123.462C113.259 122.702 112.781 121.998 112.455 121.473C112.124 120.953 111.944 120.617 111.969 120.6C111.994 120.583 112.229 120.886 112.589 121.385C113.003 121.951 113.476 122.606 114 123.328C114.531 124.045 115.013 124.691 115.432 125.258C115.792 125.749 116.014 126.059 115.989 126.08Z" fill="#455A64"/>
<path d="M120.326 87.9893C120.334 88.0271 119.891 88.1194 119.204 88.3502C118.517 88.5768 117.592 88.9628 116.654 89.546C115.721 90.1335 114.967 90.7964 114.46 91.3167C113.954 91.8328 113.677 92.1895 113.644 92.1685C113.623 92.1559 113.857 91.7615 114.343 91.2076C114.825 90.6538 115.578 89.953 116.533 89.3572C117.487 88.7614 118.446 88.388 119.154 88.1991C119.87 88.0019 120.322 87.9642 120.326 87.9893Z" fill="#455A64"/>
<path d="M108.219 108.579C108.211 108.575 108.227 108.486 108.269 108.323C108.315 108.134 108.378 107.895 108.449 107.601C108.625 106.947 108.864 106.049 109.157 104.953C109.785 102.7 110.639 99.633 111.581 96.2427C112.071 94.5433 112.494 92.9237 112.967 91.4551C113.515 89.9991 114.39 88.8788 115.194 88.048C116.006 87.2172 116.768 86.655 117.309 86.2983C117.581 86.1263 117.794 85.992 117.945 85.9123C118.096 85.8284 118.175 85.7906 118.179 85.799C118.188 85.8158 117.882 86.0004 117.359 86.3738C116.835 86.7515 116.099 87.3221 115.307 88.1613C114.524 88.9921 113.683 90.1082 113.159 91.5306C112.703 92.9782 112.284 94.6147 111.794 96.3098C110.827 99.6875 109.952 102.746 109.307 105C108.985 106.086 108.721 106.976 108.529 107.626C108.437 107.916 108.365 108.151 108.307 108.335C108.261 108.499 108.227 108.583 108.219 108.579Z" fill="#455A64"/>
<path d="M97.328 86.3653C97.2652 86.3695 97.0056 84.0659 96.7502 81.2127C96.4948 78.3594 96.3357 76.0433 96.3985 76.0391C96.4613 76.0349 96.7209 78.3384 96.9763 81.1917C97.2358 84.0449 97.3908 86.3611 97.328 86.3653Z" fill="#455A64"/>
<path d="M76.8377 92.5252C76.8042 92.542 76.6116 92.1686 76.2264 91.6231C75.8412 91.0776 75.2383 90.3685 74.4386 89.7391C73.6347 89.1139 72.8057 88.6943 72.1819 88.4552C71.558 88.2118 71.1519 88.1195 71.1603 88.0817C71.1645 88.0566 71.5873 88.0985 72.2363 88.3041C72.8853 88.5097 73.752 88.9167 74.5768 89.5587C75.4016 90.2049 76.0045 90.9518 76.3604 91.5308C76.7204 92.114 76.8628 92.5168 76.8377 92.5252Z" fill="#455A64"/>
<path d="M84.3828 84.15C84.3618 84.1836 83.8385 83.8479 82.9341 83.4367C82.0339 83.0213 80.7276 82.5681 79.2287 82.3499C77.7298 82.1359 76.3482 82.2031 75.3684 82.3457C74.3845 82.4884 73.79 82.6604 73.7774 82.6227C73.7732 82.6059 73.9198 82.5513 74.1836 82.4674C74.4515 82.3793 74.8451 82.2786 75.3391 82.1863C76.3272 82.0017 77.7298 81.9052 79.258 82.1233C80.7821 82.3457 82.1051 82.8325 83.0011 83.2898C83.4491 83.5164 83.8008 83.722 84.0311 83.8856C84.2655 84.0451 84.3911 84.1374 84.3828 84.15Z" fill="#455A64"/>
<path d="M113.863 89.9951C113.863 90.0035 113.754 89.9867 113.558 89.9447C113.336 89.8986 113.047 89.8356 112.687 89.7559C111.908 89.5797 110.823 89.3363 109.496 89.0384C106.804 88.4342 103.078 87.6244 98.9453 86.802C94.8129 85.9838 91.0573 85.3082 88.34 84.8383C87.0002 84.6075 85.9032 84.4187 85.1161 84.2844C84.756 84.2215 84.4629 84.1669 84.241 84.1292C84.0401 84.0914 83.9354 84.0662 83.9396 84.0578C83.9396 84.0494 84.0484 84.0578 84.2494 84.083C84.4755 84.1124 84.7644 84.1501 85.1328 84.1963C85.899 84.3012 87.0044 84.4648 88.3693 84.6788C91.0991 85.1068 94.8589 85.7572 98.9956 86.5754C103.128 87.3978 106.854 88.2328 109.538 88.879C110.882 89.2021 111.966 89.4706 112.712 89.6678C113.068 89.7643 113.352 89.8398 113.57 89.8986C113.763 89.9531 113.863 89.9867 113.863 89.9951Z" fill="#455A64"/>
<path d="M89.0544 84.8718C89.0125 84.8844 88.9204 84.3515 88.5143 83.6173C88.3091 83.2522 88.0119 82.8494 87.6183 82.455C87.2289 82.0606 86.7558 81.6661 86.2492 81.2675C85.2276 80.4829 84.1892 79.929 83.444 79.522C82.6945 79.1192 82.2298 78.8675 82.2465 78.8381C82.2591 78.8129 82.749 79.0101 83.5152 79.3752C84.2814 79.7444 85.3406 80.2815 86.3832 81.0829C86.8981 81.4857 87.3713 81.8885 87.7648 82.3039C88.1584 82.7151 88.4557 83.1473 88.6524 83.5333C88.845 83.9236 88.9497 84.2592 89.0041 84.4942C89.0544 84.7376 89.0669 84.8718 89.0544 84.8718Z" fill="#455A64"/>
<path d="M132.645 90.8042C132.695 90.8545 132.042 91.5175 131.531 92.5245C131.012 93.5274 130.853 94.4463 130.786 94.4337C130.731 94.4337 130.79 93.4644 131.33 92.4196C131.862 91.3706 132.611 90.758 132.645 90.8042Z" fill="#263238"/>
<path d="M115.69 58.5378C115.497 57.2539 111.671 53.0076 111.671 53.0076C111.671 53.0076 108.346 44.8423 107.773 42.5723C107.63 42.0058 106.583 39.01 106.202 38.3596C104.867 36.0896 104.201 36.0434 101.907 34.7511L97.4603 32.7874L96.916 31.5748C96.4471 30.53 95.639 29.674 94.6216 29.1537L83.4594 23.4053L80.0094 29.5104C80.0094 29.5104 73.39 32.6447 73.0006 33.1398C71.6399 34.877 72.5693 62.7757 72.5693 62.7757C72.5693 62.7757 71.9036 73.6474 71.1626 76.6978C70.4215 79.7483 69.9902 82.0015 69.9902 82.0015L73.3021 78.1916C75.2406 75.7496 79.5028 74.6292 82.5634 74.6754L108.71 74.7929L107.115 66.9758L128.812 71.5704C128.812 71.5704 132.45 64.4625 132.735 64.3198C133.015 64.1772 115.69 58.5378 115.69 58.5378Z" fill="#F5B61A"/>
<path d="M82.9169 31.9064C82.7326 31.7175 84.9894 37.1555 86.4799 43.0675C87.4094 46.7516 87.6062 52.735 87.6062 56.033L88.1672 65.327V73.4503L100.703 72.5985L98.827 58.945C98.827 58.945 97.2988 50.1377 96.8717 46.7851C96.4781 43.7179 94.6192 31.4238 94.6192 31.4238C94.6192 31.4238 88.1672 37.2646 82.9169 31.9064Z" fill="white"/>
<path d="M110.734 63.6905C110.721 63.6905 110.713 63.5772 110.734 63.3758C110.75 63.1744 110.801 62.8807 110.897 62.5324C111.09 61.8317 111.538 60.8918 112.329 60.0946C113.12 59.2973 114.062 58.8484 114.757 58.6553C115.109 58.5546 115.398 58.5085 115.599 58.4875C115.8 58.4707 115.913 58.4749 115.913 58.4875C115.917 58.5253 115.473 58.5756 114.803 58.8064C114.138 59.0372 113.246 59.4903 112.484 60.254C111.722 61.0177 111.27 61.9114 111.044 62.5785C110.817 63.2499 110.771 63.6947 110.734 63.6905Z" fill="#263238"/>
<path d="M111.378 58.7138C111.348 58.6634 112.173 58.248 113.291 58.1599C114.409 58.0634 115.288 58.3403 115.272 58.3949C115.259 58.462 114.388 58.2942 113.312 58.3865C112.236 58.4704 111.403 58.7809 111.378 58.7138Z" fill="#263238"/>
<path d="M73.3407 32.8839C73.3407 32.8839 67.9019 34.8392 66.2942 41.41C65.1177 46.2018 60.0934 65.7926 61.1276 68.7256C62.1617 71.6585 82.2587 74.5328 82.2587 74.5328L84.6411 64.4625L74.4376 61.6638C74.4376 61.6638 74.5674 52.3363 74.6972 48.4718C74.8145 44.6115 73.3407 32.8839 73.3407 32.8839Z" fill="#F5B61A"/>
<path d="M84.3685 65.877L87.9441 66.8168L85.8256 74.5793L82.3086 74.4241L84.3685 65.877Z" fill="white"/>
<path d="M108.984 72.607L105.76 69.1748L99.1281 67.4922C99.1281 67.4922 93.053 69.3174 92.9065 69.309C92.7599 69.3048 87.6184 67.8992 87.6184 67.8992L85.8223 74.5036L95.0836 75.1414L105.66 74.7176C105.66 74.7176 106.212 74.2015 105.886 73.8532C105.559 73.5008 107.653 74.449 107.9 74.4574C108.142 74.47 108.624 74.6588 108.951 74.2644C109.172 74.0001 109.478 73.1315 108.984 72.607Z" fill="#C78976"/>
<path d="M105.886 73.8574C105.873 73.8909 105.475 73.7609 104.831 73.5553C104.19 73.3497 103.298 73.0769 102.306 72.821C101.309 72.565 100.401 72.3762 99.7393 72.2461C99.0778 72.1119 98.6675 72.0321 98.6717 71.9986C98.6758 71.9692 99.0945 71.9902 99.7644 72.0825C100.434 72.1748 101.36 72.3384 102.364 72.5944C103.369 72.8504 104.257 73.1525 104.889 73.4C105.521 73.6434 105.898 73.828 105.886 73.8574Z" fill="#8B5D54"/>
<path d="M108.984 72.607C108.972 72.6406 108.415 72.435 107.515 72.1329C106.61 71.8266 105.35 71.4531 103.947 71.0629C102.545 70.6475 101.297 70.2279 100.351 70.1734C99.4088 70.0937 98.8352 70.2783 98.8226 70.2321C98.8184 70.2195 98.9566 70.1608 99.2204 70.0979C99.4841 70.0349 99.8735 69.9888 100.359 70.0056C101.335 70.0181 102.624 70.4209 104.01 70.8321C105.413 71.2266 106.677 71.6252 107.569 71.9734C108.017 72.1455 108.373 72.2965 108.616 72.4098C108.859 72.5231 108.993 72.5944 108.984 72.607Z" fill="#8B5D54"/>
<path d="M61.0486 67.6887C61.0653 67.6887 61.0402 67.8565 61.0988 68.1628C61.1658 68.4649 61.3584 68.9013 61.798 69.3041C62.6731 70.1181 64.3395 70.7979 66.4538 71.1797H66.4622L66.4706 71.1839C67.4377 71.5028 68.5389 71.7546 69.7154 72.0231C70.8961 72.2874 72.1605 72.556 73.4961 72.8287C76.1716 73.3784 79.1275 73.9532 82.2635 74.5407L82.1253 74.6288C82.3514 73.6931 82.5942 72.707 82.8371 71.7042C83.4023 69.3922 83.9466 67.1558 84.4658 65.0327L84.5453 65.1711C81.1707 64.2061 78.0892 63.3249 75.4765 62.5781H75.4724L75.4682 62.5739C74.0823 62.0074 72.7048 61.7976 71.5116 61.8815C70.3141 61.9361 69.3051 62.2592 68.5263 62.5822C67.7434 62.9179 67.1865 63.283 66.8097 63.5347C66.6381 63.6606 66.4999 63.7613 66.3952 63.8368C66.2989 63.904 66.2529 63.9375 66.2487 63.9333C66.2445 63.9291 66.2905 63.8914 66.3785 63.8159C66.4664 63.7403 66.6004 63.627 66.7804 63.4886C67.1447 63.22 67.7015 62.8382 68.4845 62.4857C69.2674 62.1417 70.2848 61.8018 71.5032 61.7305C72.7174 61.634 74.1242 61.8312 75.5393 62.4018L75.531 62.3976C78.1478 63.1319 81.2335 64.0005 84.6123 64.9488L84.717 64.9781L84.6918 65.0872C84.1769 67.2104 83.6326 69.4468 83.0715 71.7588C82.8287 72.7616 82.5859 73.7476 82.3598 74.6791L82.3346 74.7882L82.2258 74.7672C79.0898 74.1756 76.1339 73.5924 73.4585 73.0301C72.1229 72.749 70.8584 72.4721 69.6777 72.1993C68.497 71.9224 67.4043 71.6623 66.4203 71.3266L66.4371 71.3308C64.2976 70.9238 62.627 70.2188 61.7436 69.3587C61.2998 68.9349 61.1114 68.4733 61.0611 68.1586C61.0067 67.8565 61.0486 67.6887 61.0486 67.6887Z" fill="#263238"/>
<path d="M74.9776 62.3306C74.9482 62.3599 74.6091 62.0494 73.9936 61.6382C73.3824 61.227 72.478 60.7403 71.3978 60.4256C70.3176 60.1109 69.296 60.0354 68.5591 60.0522C67.8222 60.0689 67.3658 60.1487 67.3575 60.1109C67.3533 60.0857 67.7971 59.9473 68.5507 59.8843C69.3002 59.8214 70.3553 59.8759 71.4648 60.1948C72.5743 60.5221 73.4912 61.0424 74.0899 61.4998C74.697 61.9571 74.9985 62.3138 74.9776 62.3306Z" fill="#263238"/>
<path d="M76.3183 45.9288C76.335 45.9288 76.335 46.147 76.3267 46.5414C76.3183 46.9358 76.2848 47.5064 76.2304 48.2114C76.1173 49.617 75.908 51.5597 75.5395 53.6829C75.1794 55.8102 74.7189 57.711 74.2709 59.0537C74.1578 59.3893 74.0448 59.6872 73.9443 59.9516C73.8355 60.1991 73.7392 60.4173 73.6512 60.6103C73.4628 60.9586 73.354 61.1474 73.3372 61.139C73.3247 61.1306 73.4042 60.9292 73.5675 60.5726C73.6429 60.3754 73.7266 60.153 73.8187 59.9054C73.9066 59.6411 74.0071 59.339 74.1076 59.0033C74.5095 57.6564 74.9408 55.7598 75.3009 53.6409C75.6651 51.5261 75.9038 49.5918 76.0587 48.1946C76.1257 47.5316 76.1843 46.9736 76.2304 46.533C76.2722 46.1428 76.3015 45.9246 76.3183 45.9288Z" fill="#263238"/>
<path d="M85.5371 41.1919C85.5203 41.1961 85.491 41.0744 85.3864 40.8688C85.2775 40.6674 85.0849 40.3821 84.729 40.1513C84.3857 39.9205 83.854 39.7611 83.3097 39.9415C82.7738 40.1135 82.2462 40.6212 82.1122 41.301L82.0494 41.6115L81.9154 41.322C81.4549 40.3317 80.986 39.1862 80.5798 37.9442C79.8429 35.691 79.5247 33.5343 79.5959 31.9776C79.5917 31.5874 79.6503 31.2391 79.6713 30.9286C79.7257 30.6223 79.7634 30.3622 79.8094 30.1482C79.9183 29.7286 79.9895 29.4978 80.002 29.502C80.0565 29.5146 79.7425 30.4335 79.755 31.9776C79.7257 33.5133 80.0648 35.6365 80.7975 37.8687C81.1995 39.0981 81.6559 40.2394 82.1039 41.2296L81.9113 41.2548C82.0745 40.487 82.6649 39.9499 83.2594 39.7737C83.8707 39.5848 84.4485 39.7862 84.8002 40.0422C85.1645 40.3023 85.3529 40.617 85.445 40.8352C85.491 40.9443 85.5162 41.0324 85.5287 41.0954C85.5371 41.1583 85.5413 41.1919 85.5371 41.1919Z" fill="#263238"/>
<path d="M96.3776 42.1783C96.365 42.1783 96.3357 41.9937 96.2813 41.658C96.2352 41.3223 96.1306 40.8272 96.1934 40.1936C96.2771 39.5726 96.5534 38.8173 97.1898 38.2551C97.5039 37.9782 97.9351 37.7977 98.3915 37.7977C98.8437 37.7977 99.3335 37.9824 99.6559 38.3978L99.4717 38.5068C99.3461 38.1712 99.2121 37.8187 99.0781 37.4621C98.3077 35.4019 97.6211 33.5305 97.1354 32.1752C96.9093 31.5248 96.7167 30.9835 96.5702 30.5639C96.4404 30.1821 96.3776 29.9681 96.3902 29.9639C96.4027 29.9597 96.4948 30.1611 96.6497 30.5346C96.813 30.95 97.0266 31.4829 97.2778 32.1206C97.8011 33.4633 98.5087 35.3221 99.2791 37.3865C99.4131 37.7432 99.5429 38.0956 99.6685 38.4313L99.9197 39.1069L99.4842 38.5404C99.2121 38.188 98.7892 38.0201 98.3831 38.0159C97.977 38.0117 97.596 38.167 97.3029 38.4145C96.7125 38.9139 96.4236 39.6356 96.3315 40.2146C96.252 40.8146 96.3357 41.3097 96.3567 41.6496C96.3902 41.9853 96.3902 42.1741 96.3776 42.1783Z" fill="#263238"/>
<path d="M103.796 43.2608C103.854 43.2524 104.788 49.3784 105.881 56.9395C106.974 64.5048 107.811 70.6392 107.752 70.6476C107.694 70.656 106.76 64.5341 105.667 56.9689C104.575 49.4078 103.737 43.2691 103.796 43.2608Z" fill="#263238"/>
<g opacity="0.3">
<path d="M80.7188 38.0195C80.7732 39.7189 81.1416 41.4015 81.8073 42.9581C82.2805 42.3707 82.808 41.7497 83.5323 41.5735C84.4325 41.3553 85.3452 41.9176 85.9984 42.5931C85.8602 41.9176 85.6341 41.242 85.2113 40.7049C84.7884 40.1679 84.152 39.7818 83.4821 39.7986C82.8122 39.8154 82.1465 40.3105 82.0251 40.9903L80.7732 38.0447" fill="black"/>
</g>
<path d="M76.285 40.6672C76.2431 40.6672 76.2557 40.2098 76.1259 39.4965C75.9961 38.7832 75.6779 37.8182 75.0666 36.895C74.7568 36.4377 74.4093 36.0391 74.0702 35.7076C73.7185 35.3845 73.3793 35.116 73.0695 34.9272C72.4582 34.5411 72.0228 34.3901 72.0395 34.3523C72.0437 34.3355 72.1568 34.3649 72.3535 34.4278C72.454 34.4572 72.5713 34.4992 72.7052 34.5663C72.8392 34.6292 72.9941 34.6922 73.1532 34.7929C73.484 34.9691 73.8399 35.2335 74.2125 35.5565C74.5726 35.8922 74.9368 36.2992 75.255 36.7734C75.8873 37.7258 76.1929 38.7371 76.285 39.4755C76.3311 39.8448 76.3436 40.1469 76.3269 40.3525C76.3143 40.5539 76.3018 40.6672 76.285 40.6672Z" fill="#263238"/>
<g opacity="0.3">
<path d="M104.172 45.9834L106.973 65.7588L107.111 66.0735C107.773 59.2719 106.755 52.3109 104.172 45.9834Z" fill="black"/>
</g>
<path d="M119.718 57.3508L110.608 73.3163L88.1619 73.8072L88.1074 74.8268L109.841 74.6632L110.532 74.638L133.481 74.6842L138.12 66.6699L144.044 58.1606C144.433 57.6025 144.031 56.8389 143.353 56.8389L120.447 56.927C120.145 56.927 119.869 57.0906 119.718 57.3508Z" fill="#E0E0E0"/>
<path d="M138.115 66.6699C138.115 66.6699 139.296 67.7525 139.108 68.6714C138.924 69.5903 138.982 70.2742 138.115 70.3372C138.115 70.3372 138.178 71.5204 136.935 71.705C136.935 71.705 137.203 73.1484 135.524 73.396C135.524 73.396 135.009 74.9401 133.954 74.5667C132.899 74.1932 132.216 73.7569 132.216 73.7569L131.906 73.1988C131.906 73.1988 130.353 72.6114 130.734 71.7344C130.968 71.2015 131.772 71.0631 131.772 71.0631C131.772 71.0631 131.437 70.2784 131.873 69.6952C132.245 69.1917 133.46 69.6071 133.46 69.6071C133.46 69.6071 133.388 68.9609 133.845 68.4154C134.259 67.9245 136.189 69.2588 136.189 69.2588L137.245 67.9958L138.115 66.6699Z" fill="#C78976"/>
<path d="M135.528 73.3999C135.494 73.4545 134.628 72.972 133.593 72.33C132.555 71.6838 131.743 71.1173 131.776 71.0628C131.81 71.0083 132.677 71.4908 133.715 72.1328C134.749 72.7789 135.561 73.3454 135.528 73.3999Z" fill="#8B5D54"/>
<path d="M136.939 71.7093C136.905 71.7638 136.101 71.3358 135.143 70.7568C134.184 70.1778 133.43 69.6617 133.464 69.6071C133.497 69.5526 134.301 69.9805 135.26 70.5596C136.219 71.1386 136.968 71.6547 136.939 71.7093Z" fill="#8B5D54"/>
<path d="M135.016 68.541C135.05 68.4781 135.77 68.8557 136.612 69.3886C137.449 69.9257 138.127 70.3411 138.11 70.383C138.077 70.4586 137.327 70.1187 136.49 69.5816C135.649 69.0487 134.991 68.5872 135.016 68.541Z" fill="#8B5D54"/>
<path d="M144.045 57.4431C144.045 57.4473 144.007 57.4515 143.936 57.4557C143.848 57.4599 143.743 57.4641 143.614 57.4683C143.312 57.4725 142.898 57.4809 142.374 57.4893C141.277 57.4977 139.728 57.5103 137.815 57.5271C133.95 57.5354 128.641 57.548 122.78 57.5606C122.411 57.5606 122.047 57.5606 121.687 57.5606C121.344 57.5354 121.03 57.6865 120.854 57.955C120.506 58.5802 120.167 59.1928 119.832 59.7971C119.162 61.0097 118.513 62.1803 117.898 63.2965C116.663 65.5203 115.549 67.526 114.611 69.2169C113.673 70.8869 112.916 72.2422 112.38 73.1989C112.12 73.652 111.911 74.0129 111.764 74.2772C111.697 74.3905 111.643 74.4786 111.597 74.5542C111.559 74.6171 111.538 74.6465 111.534 74.6465C111.53 74.6465 111.546 74.6087 111.576 74.5458C111.613 74.4702 111.664 74.3737 111.722 74.2562C111.865 73.9877 112.057 73.6227 112.304 73.1569C112.828 72.1918 113.564 70.824 114.473 69.1414C115.398 67.4462 116.499 65.4322 117.718 63.2C118.329 62.0838 118.974 60.909 119.64 59.6922C119.975 59.0837 120.318 58.4627 120.665 57.8334C120.879 57.4935 121.306 57.3047 121.687 57.334C122.051 57.334 122.416 57.334 122.78 57.334C128.641 57.3466 133.95 57.3592 137.815 57.3676C139.724 57.3844 141.277 57.397 142.374 57.4054C142.898 57.4138 143.312 57.4222 143.614 57.4264C143.743 57.4305 143.848 57.4347 143.936 57.4389C144.007 57.4389 144.045 57.4389 144.045 57.4431Z" fill="#263238"/>
<path d="M127.894 65.4699C127.488 65.9188 127.48 66.5734 127.874 66.9301C128.267 67.2867 128.916 67.2112 129.322 66.758C129.728 66.3091 129.737 65.6545 129.343 65.2978C128.945 64.9454 128.301 65.0209 127.894 65.4699Z" fill="white"/>
<path d="M94.845 30.5883L94.7194 26.9672C94.7194 26.9672 99.5175 25.914 99.2789 21.0551C99.1617 18.7096 98.5336 13.8927 97.914 9.54568C97.2483 4.86722 93.1074 1.48949 88.4014 1.77901L87.9325 1.80838C82.9082 2.4126 80.618 7.02812 81.3591 12.0423L82.5356 31.1799C82.7408 34.5073 85.5418 37.071 88.8661 36.9703C92.2826 36.8696 94.9622 34.008 94.845 30.5883Z" fill="#C78976"/>
<path d="M94.7137 26.9675C94.7137 26.9675 91.6698 27.3367 88.291 25.4863C88.291 25.4863 89.9323 28.927 94.7388 28.1927L94.7137 26.9675Z" fill="#8B5D54"/>
<path d="M97.3138 14.1062C97.3515 14.4713 97.071 14.8028 96.69 14.8489C96.309 14.8909 95.974 14.6349 95.9363 14.2657C95.9028 13.9006 96.1792 13.5691 96.5602 13.523C96.9412 13.481 97.2761 13.7412 97.3138 14.1062Z" fill="#263238"/>
<path d="M97.0179 11.983C96.9384 12.0795 96.3899 11.7228 95.6446 11.769C94.8994 11.8068 94.376 12.2222 94.2923 12.1382C94.2504 12.1005 94.3257 11.9326 94.556 11.7438C94.7779 11.555 95.1673 11.362 95.6321 11.3368C96.0968 11.3116 96.4987 11.4585 96.7332 11.6179C96.9677 11.7816 97.0556 11.941 97.0179 11.983Z" fill="#263238"/>
<path d="M90.0462 14.4041C90.0797 14.7691 89.8034 15.1006 89.4224 15.1468C89.0414 15.1929 88.7064 14.9328 88.6688 14.5635C88.6353 14.1985 88.9116 13.867 89.2926 13.8208C89.6736 13.7789 90.0128 14.039 90.0462 14.4041Z" fill="#263238"/>
<path d="M89.7074 12.5748C89.6278 12.6713 89.0793 12.3146 88.3341 12.3608C87.5888 12.3986 87.0654 12.814 86.9817 12.73C86.9398 12.6923 87.0152 12.5244 87.2455 12.3356C87.4674 12.1468 87.8568 11.9538 88.3215 11.9286C88.7863 11.9034 89.1882 12.0503 89.4227 12.2097C89.6571 12.3734 89.745 12.5328 89.7074 12.5748Z" fill="#263238"/>
<path d="M92.747 17.9415C92.7428 17.8995 93.1992 17.7904 93.9445 17.6478C94.1329 17.6184 94.3129 17.5681 94.3338 17.4338C94.3715 17.2953 94.2794 17.0939 94.1706 16.8757C93.9654 16.4268 93.7477 15.9526 93.5174 15.4575C92.6089 13.4393 91.939 11.7777 92.0227 11.7399C92.1022 11.7021 92.9061 13.3092 93.8147 15.3274C94.0324 15.8267 94.2417 16.3009 94.4427 16.7541C94.5264 16.968 94.6688 17.203 94.5892 17.4967C94.5474 17.6436 94.4134 17.7527 94.292 17.7946C94.1706 17.8408 94.0659 17.8492 93.9738 17.8576C93.2243 17.9499 92.7554 17.9835 92.747 17.9415Z" fill="#263238"/>
<path d="M90.5905 18.5921C90.7119 18.5795 90.7622 19.3893 91.4907 19.918C92.215 20.4509 93.0733 20.3082 93.0859 20.4215C93.0985 20.4718 92.9017 20.5893 92.5416 20.6229C92.1857 20.6565 91.6582 20.5725 91.2144 20.2495C90.7706 19.9222 90.5612 19.4648 90.511 19.1333C90.4565 18.7977 90.5319 18.5921 90.5905 18.5921Z" fill="#263238"/>
<path d="M89.7192 9.63819C89.6564 9.84379 88.907 9.79344 88.0403 9.95288C87.1694 10.0955 86.4828 10.3935 86.353 10.2214C86.2943 10.1375 86.4074 9.94029 86.6795 9.7263C86.9517 9.51231 87.3871 9.29832 87.9105 9.20601C88.4297 9.11789 88.9153 9.16824 89.2419 9.28153C89.5727 9.39063 89.7443 9.54168 89.7192 9.63819Z" fill="#263238"/>
<path d="M96.6108 9.83897C96.4893 10.0152 95.966 9.87254 95.3505 9.90191C94.7309 9.9103 94.2201 10.0865 94.0861 9.9145C94.0275 9.83058 94.0986 9.65854 94.3164 9.48231C94.5299 9.31028 94.8983 9.15503 95.3254 9.14244C95.7483 9.12986 96.1251 9.25993 96.3512 9.41938C96.5814 9.58302 96.661 9.75505 96.6108 9.83897Z" fill="#263238"/>
<path d="M97.311 7.34692C97.311 7.34692 95.8456 4.38459 94.3383 3.76359C92.5128 3.01252 91.8722 5.00978 90.1556 4.64054C88.439 4.2713 86.6973 3.55379 85.0518 4.96782C83.2515 6.51612 84.1977 7.4644 84.2144 9.62531C84.2772 18.3906 82.837 20.9585 82.1336 16.8717C82.0582 16.4227 80.7854 16.1416 80.4839 14.2492C80.0904 11.7946 79.814 8.8029 80.2537 7.01544C80.6263 5.5091 81.4051 4.43913 82.8412 3.21812C85.1104 1.29638 88.3762 1.05721 90.6078 1.14113C92.8436 1.22924 97.2775 3.52442 97.311 7.34692Z" fill="#263238"/>
<path d="M82.4302 16.7206C82.3549 15.9737 81.6724 15.4199 80.9313 15.5374C80.0312 15.68 79.0598 16.2549 79.2356 18.1221C79.5455 21.4368 82.8029 20.4382 82.7987 20.3459C82.7945 20.283 82.5726 18.1053 82.4302 16.7206Z" fill="#C78976"/>
<path d="M81.9609 19.1667C81.9442 19.1583 81.9065 19.2128 81.8144 19.2674C81.7223 19.3177 81.5632 19.3639 81.3832 19.3177C81.0231 19.2212 80.6756 18.6925 80.6044 18.0967C80.5667 17.7946 80.6044 17.5009 80.6881 17.2533C80.7677 17.0016 80.9059 16.817 81.0817 16.7708C81.2534 16.7121 81.3873 16.8086 81.4376 16.8967C81.492 16.9848 81.4753 17.0519 81.492 17.0561C81.5004 17.0645 81.559 16.9932 81.5171 16.8589C81.4962 16.796 81.4501 16.7204 81.3664 16.6617C81.2827 16.603 81.1613 16.582 81.0398 16.6072C80.7886 16.6491 80.5793 16.9051 80.4872 17.1778C80.3825 17.4505 80.3323 17.782 80.3741 18.1219C80.4579 18.789 80.8556 19.3807 81.3497 19.473C81.5883 19.5107 81.7767 19.4226 81.8688 19.3345C81.9609 19.2464 81.9735 19.1709 81.9609 19.1667Z" fill="#8B5D54"/>
<path d="M82.0988 10.2842C82.5468 10.5527 83.0199 10.8254 83.5433 10.8464C84.0667 10.8674 84.6403 10.5317 84.6947 10.0114C84.7198 9.77646 84.6486 9.51212 84.7868 9.3233C84.9543 9.10092 85.2934 9.14707 85.5739 9.15966C86.5453 9.20162 87.4873 8.45894 87.6758 7.50646C87.9437 7.85892 88.5173 7.80857 88.8732 7.54422C89.2291 7.27988 89.4468 6.87288 89.7148 6.52042C89.9869 6.16796 90.3763 5.84487 90.8159 5.87844C91.0629 5.89942 91.3016 6.02949 91.5444 5.99173C91.9757 5.92459 92.1599 5.4043 92.1976 4.96373C92.2353 4.52315 92.2562 4.01964 92.6121 3.75949C92.9386 3.52032 93.3908 3.62103 93.7928 3.65459C94.1947 3.68816 94.7097 3.56228 94.7851 3.16367C94.8269 2.95387 94.7264 2.74408 94.6008 2.57204C94.0356 1.7916 92.8884 1.49788 92.0175 1.91328C91.624 0.834927 90.5479 0.0460911 89.4091 -0.00426013C88.2661 -0.0546113 87.1273 0.637718 86.6416 1.67831C85.9005 1.08668 84.8705 0.881082 83.9578 1.14962C83.0493 1.41816 82.2914 2.14825 81.99 3.05038C81.1694 2.88674 80.2734 3.25598 79.8002 3.94831C79.3313 4.64064 79.3188 5.6141 79.7668 6.31901C79.1932 6.69665 78.72 7.32184 78.7493 8.00997C78.7786 8.69811 79.4904 9.34008 80.1394 9.1177C79.9049 9.66737 80.1687 10.3807 80.7046 10.6492C81.2405 10.9178 81.9649 10.6954 82.2621 10.1751" fill="#263238"/>
<path d="M92.3273 2.88296C92.3315 2.88296 92.3315 2.90394 92.3315 2.9459C92.3315 2.98786 92.3315 3.0466 92.3231 3.12632C92.3022 3.28157 92.2562 3.51235 92.1222 3.78089C91.9882 4.04523 91.7747 4.35573 91.4355 4.61168C91.1048 4.87183 90.64 5.08163 90.1041 5.08163L90.1544 5.0061C90.2758 5.28303 90.2674 5.6271 90.146 5.92501C90.0287 6.23131 89.8361 6.50825 89.631 6.77679C89.5263 6.90686 89.4342 7.05791 89.2835 7.1796C89.1369 7.29708 88.9569 7.37261 88.7685 7.40618C88.4001 7.47751 87.9688 7.3852 87.6799 7.08728L87.8013 7.04533C87.7595 7.71248 87.4245 8.39222 86.8551 8.83279C86.5536 9.08035 86.1726 9.244 85.7874 9.25658C85.4022 9.27756 85.0422 9.18525 84.6989 9.08875L84.7868 9.04259C84.6361 9.46638 84.3807 9.83562 84.0666 10.1167C83.7568 10.3979 83.3298 10.5741 82.932 10.5028C82.1407 10.3853 81.5796 9.76429 81.4373 9.16008L81.5126 9.18945C81.1358 9.42442 80.7213 9.47058 80.3864 9.42862C80.0431 9.38666 79.7709 9.25658 79.5699 9.12231C79.369 8.98385 79.2476 8.84119 79.1764 8.74048C79.1094 8.63558 79.0801 8.57684 79.0801 8.57265C79.0968 8.56006 79.2057 8.82021 79.5992 9.07616C79.796 9.19784 80.064 9.31533 80.3948 9.34889C80.7213 9.38246 81.1107 9.33211 81.4582 9.10553L81.5168 9.06777L81.5336 9.1391C81.6759 9.70555 82.2119 10.2804 82.9446 10.3811C83.3046 10.444 83.6815 10.2846 83.9745 10.0202C84.2718 9.7559 84.5104 9.39925 84.6528 9.00063L84.6737 8.93769L84.7365 8.95448C85.0715 9.05098 85.4232 9.1349 85.7749 9.11392C86.1308 9.10133 86.4741 8.95448 86.7588 8.7195C87.2989 8.30411 87.6129 7.66632 87.6548 7.03274L87.6673 6.87329L87.7762 6.98658C88.0232 7.24253 88.4042 7.33065 88.7392 7.26771C88.9067 7.23834 89.0658 7.1712 89.1956 7.0705C89.3212 6.974 89.4133 6.82294 89.5221 6.69287C89.7273 6.42852 89.9199 6.15998 90.0287 5.87886C90.146 5.59773 90.1544 5.29562 90.0497 5.04387L90.0162 4.96834H90.0999C90.6065 4.97253 91.0545 4.77952 91.3769 4.53616C91.7077 4.29699 91.9212 4.00327 92.0594 3.74732C92.3357 3.22703 92.3022 2.87457 92.3273 2.88296Z" fill="#455A64"/>
<path d="M93.9777 14.6944C93.9945 14.686 93.8563 14.4301 93.76 13.9182C93.6679 13.4189 93.6637 12.6216 94.1033 11.7992C94.321 11.3964 94.6434 10.9936 95.0914 10.6831C95.5352 10.381 96.0837 10.146 96.6866 10.1041C96.9881 10.0747 97.3021 10.0957 97.6077 10.1628C97.9175 10.2258 98.2232 10.339 98.5121 10.5027C99.0899 10.8174 99.5755 11.3377 99.8728 11.9713C100.158 12.609 100.237 13.3182 100.099 13.9643C100.036 14.2874 99.9231 14.5937 99.7681 14.8707C99.6174 15.1476 99.429 15.3993 99.2113 15.6133C98.7884 16.0497 98.2525 16.3141 97.7333 16.4525C97.21 16.591 96.695 16.5742 96.247 16.4777C95.3426 16.2805 94.7397 15.756 94.4173 15.3616C94.0991 14.9588 93.9945 14.686 93.9777 14.6944C93.9735 14.6944 94.0028 14.7616 94.0614 14.8874C94.0907 14.9504 94.1284 15.0259 94.187 15.1098C94.2415 15.1937 94.3001 15.2944 94.3838 15.3951C94.6978 15.8063 95.3008 16.3518 96.2302 16.57C96.6908 16.6749 97.2225 16.6959 97.7626 16.5574C98.2986 16.419 98.8554 16.1462 99.295 15.6973C99.5211 15.4791 99.7179 15.2189 99.877 14.9294C100.04 14.6441 100.158 14.3252 100.225 13.9895C100.371 13.3182 100.287 12.5797 99.9901 11.9167C99.6802 11.258 99.1736 10.7167 98.5707 10.3936C98.2734 10.2258 97.9552 10.1083 97.6328 10.0453C97.3105 9.9782 96.9881 9.95722 96.674 9.98659C96.046 10.0327 95.4808 10.2761 95.0244 10.595C94.5681 10.9181 94.2373 11.3377 94.0196 11.7531C93.5799 12.6007 93.6009 13.4147 93.7056 13.9224C93.7265 14.0524 93.7642 14.1615 93.7935 14.258C93.8186 14.3546 93.8521 14.4343 93.8814 14.4972C93.9442 14.6315 93.9735 14.6944 93.9777 14.6944Z" fill="#263238"/>
<path d="M85.4367 15.1974C85.4534 15.189 85.3153 14.933 85.219 14.4211C85.1269 13.9218 85.1227 13.1246 85.5623 12.3022C85.78 11.8994 86.1024 11.4965 86.5504 11.186C86.9942 10.8839 87.5427 10.649 88.1456 10.607C88.447 10.5776 88.7611 10.5986 89.0667 10.6657C89.3765 10.7287 89.6822 10.842 89.9711 11.0056C90.5489 11.3203 91.0345 11.8406 91.3318 12.4742C91.6165 13.112 91.6961 13.8211 91.5579 14.4673C91.4951 14.7904 91.382 15.0967 91.2271 15.3736C91.0764 15.6505 90.888 15.9023 90.6703 16.1163C90.2474 16.5526 89.7115 16.817 89.1923 16.9555C88.6689 17.0939 88.154 17.0771 87.706 16.9806C86.8016 16.7834 86.1987 16.2589 85.8763 15.8645C85.5581 15.4617 85.4534 15.1848 85.4367 15.1974C85.4325 15.1974 85.4618 15.2645 85.5204 15.3904C85.5497 15.4533 85.5874 15.5288 85.646 15.6128C85.7005 15.6967 85.7591 15.7974 85.8428 15.8981C86.1568 16.3093 86.7597 16.8547 87.6892 17.0729C88.1498 17.1778 88.6815 17.1988 89.2216 17.0604C89.7575 16.9219 90.3144 16.6492 90.754 16.2002C90.9801 15.982 91.1769 15.7218 91.336 15.4323C91.4993 15.147 91.6165 14.8281 91.6835 14.4924C91.83 13.8211 91.7463 13.0826 91.449 12.4196C91.1392 11.7609 90.6326 11.2196 90.0297 10.8965C89.7324 10.7287 89.4142 10.6112 89.0918 10.5483C88.7694 10.4811 88.447 10.4601 88.133 10.4895C87.505 10.5357 86.9398 10.779 86.4834 11.0979C86.027 11.421 85.6963 11.8406 85.4786 12.256C85.0389 13.1036 85.0599 13.9218 85.1645 14.4253C85.1855 14.5554 85.2232 14.6645 85.2525 14.761C85.2776 14.8575 85.3111 14.9372 85.3404 15.0001C85.4032 15.1344 85.4325 15.1974 85.4367 15.1974Z" fill="#263238"/>
<path d="M91.6742 13.108C91.6951 13.1416 92.0887 12.8395 92.6748 12.8143C93.2568 12.7765 93.6839 13.0409 93.7006 13.0031C93.709 12.9905 93.6169 12.9066 93.4326 12.8227C93.2526 12.7388 92.9763 12.6674 92.6664 12.6842C92.3566 12.701 92.0887 12.7975 91.917 12.9024C91.7495 13.0031 91.6658 13.0954 91.6742 13.108Z" fill="#263238"/>
<path d="M82.1273 15.8438C82.144 15.8774 82.8348 15.5501 83.668 15.1179C84.5012 14.6857 85.1669 14.3081 85.1502 14.2787C85.1334 14.2452 84.4426 14.5725 83.6094 15.0046C82.772 15.4368 82.1105 15.8144 82.1273 15.8438Z" fill="#263238"/>
<path d="M73.3962 166.562H47.2031V171.329H73.3962V166.562Z" fill="#F5B61A"/>
<path d="M49.769 171.363C49.7104 171.363 49.6602 170.305 49.6602 169C49.6602 167.695 49.7104 166.634 49.769 166.634C49.8276 166.634 49.8779 167.691 49.8779 169C49.8779 170.305 49.8318 171.363 49.769 171.363Z" fill="#263238"/>
<path d="M48.3374 171.363C48.2788 171.363 48.2285 170.305 48.2285 169C48.2285 167.695 48.2788 166.634 48.3374 166.634C48.396 166.634 48.4462 167.691 48.4462 169C48.4462 170.305 48.4002 171.363 48.3374 171.363Z" fill="#263238"/>
<path d="M52.9175 171.363C52.8588 171.363 52.8086 170.305 52.8086 169C52.8086 167.695 52.8588 166.634 52.9175 166.634C52.9761 166.634 53.0263 167.691 53.0263 169C53.0263 170.305 52.9761 171.363 52.9175 171.363Z" fill="#263238"/>
<path d="M51.4858 171.363C51.4272 171.363 51.377 170.305 51.377 169C51.377 167.695 51.4272 166.634 51.4858 166.634C51.5444 166.634 51.5947 167.691 51.5947 169C51.5947 170.305 51.5444 171.363 51.4858 171.363Z" fill="#263238"/>
<path d="M56.0659 171.363C56.0073 171.363 55.957 170.305 55.957 169C55.957 167.695 56.0073 166.634 56.0659 166.634C56.1245 166.634 56.1748 167.691 56.1748 169C56.1748 170.305 56.1245 171.363 56.0659 171.363Z" fill="#263238"/>
<path d="M54.6303 171.363C54.5717 171.363 54.5215 170.305 54.5215 169C54.5215 167.695 54.5717 166.634 54.6303 166.634C54.689 166.634 54.7392 167.691 54.7392 169C54.7434 170.305 54.6931 171.363 54.6303 171.363Z" fill="#263238"/>
<path d="M59.2104 171.363C59.1518 171.363 59.1016 170.305 59.1016 169C59.1016 167.695 59.1518 166.634 59.2104 166.634C59.269 166.634 59.3193 167.691 59.3193 169C59.3193 170.305 59.2732 171.363 59.2104 171.363Z" fill="#263238"/>
<path d="M57.7788 171.363C57.7202 171.363 57.6699 170.305 57.6699 169C57.6699 167.695 57.7202 166.634 57.7788 166.634C57.8374 166.634 57.8876 167.691 57.8876 169C57.8876 170.305 57.8374 171.363 57.7788 171.363Z" fill="#263238"/>
<path d="M62.3589 171.363C62.3002 171.363 62.25 170.305 62.25 169C62.25 167.695 62.3002 166.634 62.3589 166.634C62.4175 166.634 62.4677 167.691 62.4677 169C62.4677 170.305 62.4175 171.363 62.3589 171.363Z" fill="#263238"/>
<path d="M60.9272 171.363C60.8686 171.363 60.8184 170.305 60.8184 169C60.8184 167.695 60.8686 166.634 60.9272 166.634C60.9858 166.634 61.0361 167.691 61.0361 169C61.0361 170.305 60.9858 171.363 60.9272 171.363Z" fill="#263238"/>
<path d="M65.5073 171.363C65.4487 171.363 65.3984 170.305 65.3984 169C65.3984 167.695 65.4487 166.634 65.5073 166.634C65.5659 166.634 65.6162 167.691 65.6162 169C65.6162 170.305 65.5659 171.363 65.5073 171.363Z" fill="#263238"/>
<path d="M64.0717 171.363C64.0131 171.363 63.9629 170.305 63.9629 169C63.9629 167.695 64.0131 166.634 64.0717 166.634C64.1304 166.634 64.1806 167.691 64.1806 169C64.1806 170.305 64.1346 171.363 64.0717 171.363Z" fill="#263238"/>
<path d="M68.6518 171.363C68.5932 171.363 68.543 170.305 68.543 169C68.543 167.695 68.5932 166.634 68.6518 166.634C68.7104 166.634 68.7607 167.691 68.7607 169C68.7607 170.305 68.7146 171.363 68.6518 171.363Z" fill="#263238"/>
<path d="M67.2202 171.363C67.1616 171.363 67.1113 170.305 67.1113 169C67.1113 167.695 67.1616 166.634 67.2202 166.634C67.2788 166.634 67.329 167.691 67.329 169C67.329 170.305 67.2788 171.363 67.2202 171.363Z" fill="#263238"/>
<path d="M71.8003 171.363C71.7417 171.363 71.6914 170.305 71.6914 169C71.6914 167.695 71.7417 166.634 71.8003 166.634C71.8589 166.634 71.9091 167.691 71.9091 169C71.9091 170.305 71.8589 171.363 71.8003 171.363Z" fill="#263238"/>
<path d="M70.3686 171.363C70.31 171.363 70.2598 170.305 70.2598 169C70.2598 167.695 70.31 166.634 70.3686 166.634C70.4272 166.634 70.4775 167.691 70.4775 169C70.4775 170.305 70.4272 171.363 70.3686 171.363Z" fill="#263238"/>
<path d="M73.3968 166.562C73.3968 166.621 67.4933 166.671 60.2082 166.671C52.923 166.671 47.0195 166.621 47.0195 166.562C47.0195 166.503 52.923 166.453 60.2082 166.453C67.4933 166.453 73.3968 166.503 73.3968 166.562Z" fill="#263238"/>
<path d="M71.3454 171.291H45.1523V176.058H71.3454V171.291Z" fill="#F5B61A"/>
<path d="M47.7182 176.091C47.6596 176.091 47.6094 175.033 47.6094 173.729C47.6094 172.424 47.6596 171.366 47.7182 171.366C47.7769 171.366 47.8271 172.424 47.8271 173.729C47.8271 175.033 47.7769 176.091 47.7182 176.091Z" fill="#263238"/>
<path d="M46.2866 176.091C46.228 176.091 46.1777 175.033 46.1777 173.729C46.1777 172.424 46.228 171.366 46.2866 171.366C46.3452 171.366 46.3955 172.424 46.3955 173.729C46.3955 175.033 46.3452 176.091 46.2866 176.091Z" fill="#263238"/>
<path d="M50.8667 176.091C50.8081 176.091 50.7578 175.033 50.7578 173.729C50.7578 172.424 50.8081 171.366 50.8667 171.366C50.9253 171.366 50.9755 172.424 50.9755 173.729C50.9755 175.033 50.9253 176.091 50.8667 176.091Z" fill="#263238"/>
<path d="M49.4311 176.091C49.3725 176.091 49.3223 175.033 49.3223 173.729C49.3223 172.424 49.3725 171.366 49.4311 171.366C49.4897 171.366 49.54 172.424 49.54 173.729C49.54 175.033 49.4939 176.091 49.4311 176.091Z" fill="#263238"/>
<path d="M54.0112 176.091C53.9526 176.091 53.9023 175.033 53.9023 173.729C53.9023 172.424 53.9526 171.366 54.0112 171.366C54.0698 171.366 54.1201 172.424 54.1201 173.729C54.1201 175.033 54.074 176.091 54.0112 176.091Z" fill="#263238"/>
<path d="M52.5796 176.091C52.5209 176.091 52.4707 175.033 52.4707 173.729C52.4707 172.424 52.5209 171.366 52.5796 171.366C52.6382 171.366 52.6884 172.424 52.6884 173.729C52.6884 175.033 52.6382 176.091 52.5796 176.091Z" fill="#263238"/>
<path d="M57.1596 176.091C57.101 176.091 57.0508 175.033 57.0508 173.729C57.0508 172.424 57.101 171.366 57.1596 171.366C57.2183 171.366 57.2685 172.424 57.2685 173.729C57.2685 175.033 57.2183 176.091 57.1596 176.091Z" fill="#263238"/>
<path d="M55.728 176.091C55.6694 176.091 55.6191 175.033 55.6191 173.729C55.6191 172.424 55.6694 171.366 55.728 171.366C55.7866 171.366 55.8369 172.424 55.8369 173.729C55.8369 175.033 55.7866 176.091 55.728 176.091Z" fill="#263238"/>
<path d="M60.3081 176.091C60.2495 176.091 60.1992 175.033 60.1992 173.729C60.1992 172.424 60.2495 171.366 60.3081 171.366C60.3667 171.366 60.4169 172.424 60.4169 173.729C60.4169 175.033 60.3667 176.091 60.3081 176.091Z" fill="#263238"/>
<path d="M58.8725 176.091C58.8139 176.091 58.7637 175.033 58.7637 173.729C58.7637 172.424 58.8139 171.366 58.8725 171.366C58.9311 171.366 58.9814 172.424 58.9814 173.729C58.9814 175.033 58.9353 176.091 58.8725 176.091Z" fill="#263238"/>
<path d="M63.4526 176.091C63.394 176.091 63.3438 175.033 63.3438 173.729C63.3438 172.424 63.394 171.366 63.4526 171.366C63.5112 171.366 63.5615 172.424 63.5615 173.729C63.5615 175.033 63.5154 176.091 63.4526 176.091Z" fill="#263238"/>
<path d="M62.021 176.091C61.9624 176.091 61.9121 175.033 61.9121 173.729C61.9121 172.424 61.9624 171.366 62.021 171.366C62.0796 171.366 62.1298 172.424 62.1298 173.729C62.1298 175.033 62.0796 176.091 62.021 176.091Z" fill="#263238"/>
<path d="M66.6011 176.091C66.5424 176.091 66.4922 175.033 66.4922 173.729C66.4922 172.424 66.5424 171.366 66.6011 171.366C66.6597 171.366 66.7099 172.424 66.7099 173.729C66.7099 175.033 66.6597 176.091 66.6011 176.091Z" fill="#263238"/>
<path d="M65.1694 176.091C65.1108 176.091 65.0605 175.033 65.0605 173.729C65.0605 172.424 65.1108 171.366 65.1694 171.366C65.228 171.366 65.2783 172.424 65.2783 173.729C65.2783 175.033 65.228 176.091 65.1694 176.091Z" fill="#263238"/>
<path d="M69.7456 176.091C69.687 176.091 69.6367 175.033 69.6367 173.729C69.6367 172.424 69.687 171.366 69.7456 171.366C69.8042 171.366 69.8544 172.424 69.8544 173.729C69.8544 175.033 69.8084 176.091 69.7456 176.091Z" fill="#263238"/>
<path d="M68.3139 176.091C68.2553 176.091 68.2051 175.033 68.2051 173.729C68.2051 172.424 68.2553 171.366 68.3139 171.366C68.3726 171.366 68.4228 172.424 68.4228 173.729C68.4228 175.033 68.3767 176.091 68.3139 176.091Z" fill="#263238"/>
<path d="M71.3455 171.291C71.3455 171.349 65.4545 171.4 58.1903 171.4C50.9219 171.4 45.0352 171.349 45.0352 171.291C45.0352 171.232 50.9261 171.182 58.1903 171.182C65.4545 171.182 71.3455 171.232 71.3455 171.291Z" fill="#263238"/>
<path d="M69.6618 176.092H43.4688V180.858H69.6618V176.092Z" fill="#F5B61A"/>
<path d="M46.0346 180.892C45.976 180.892 45.9258 179.834 45.9258 178.529C45.9258 177.224 45.976 176.167 46.0346 176.167C46.0933 176.167 46.1435 177.224 46.1435 178.529C46.1435 179.834 46.0933 180.892 46.0346 180.892Z" fill="#263238"/>
<path d="M44.603 180.892C44.5444 180.892 44.4941 179.834 44.4941 178.529C44.4941 177.224 44.5444 176.167 44.603 176.167C44.6616 176.167 44.7119 177.224 44.7119 178.529C44.7119 179.834 44.6616 180.892 44.603 180.892Z" fill="#263238"/>
<path d="M49.1831 180.892C49.1245 180.892 49.0742 179.834 49.0742 178.529C49.0742 177.224 49.1245 176.167 49.1831 176.167C49.2417 176.167 49.2919 177.224 49.2919 178.529C49.2919 179.834 49.2417 180.892 49.1831 180.892Z" fill="#263238"/>
<path d="M47.7514 180.892C47.6928 180.892 47.6426 179.834 47.6426 178.529C47.6426 177.224 47.6928 176.167 47.7514 176.167C47.8101 176.167 47.8603 177.224 47.8603 178.529C47.8603 179.834 47.8101 180.892 47.7514 180.892Z" fill="#263238"/>
<path d="M52.3276 180.892C52.269 180.892 52.2188 179.834 52.2188 178.529C52.2188 177.224 52.269 176.167 52.3276 176.167C52.3862 176.167 52.4365 177.224 52.4365 178.529C52.4365 179.834 52.3904 180.892 52.3276 180.892Z" fill="#263238"/>
<path d="M50.896 180.892C50.8373 180.892 50.7871 179.834 50.7871 178.529C50.7871 177.224 50.8373 176.167 50.896 176.167C50.9546 176.167 51.0048 177.224 51.0048 178.529C51.0048 179.834 50.9588 180.892 50.896 180.892Z" fill="#263238"/>
<path d="M55.476 180.892C55.4174 180.892 55.3672 179.834 55.3672 178.529C55.3672 177.224 55.4174 176.167 55.476 176.167C55.5347 176.167 55.5849 177.224 55.5849 178.529C55.5849 179.834 55.5347 180.892 55.476 180.892Z" fill="#263238"/>
<path d="M54.0444 180.892C53.9858 180.892 53.9355 179.834 53.9355 178.529C53.9355 177.224 53.9858 176.167 54.0444 176.167C54.103 176.167 54.1533 177.224 54.1533 178.529C54.1533 179.834 54.103 180.892 54.0444 180.892Z" fill="#263238"/>
<path d="M58.6245 180.892C58.5659 180.892 58.5156 179.834 58.5156 178.529C58.5156 177.224 58.5659 176.167 58.6245 176.167C58.6831 176.167 58.7333 177.224 58.7333 178.529C58.7333 179.834 58.6831 180.892 58.6245 180.892Z" fill="#263238"/>
<path d="M57.1889 180.892C57.1303 180.892 57.0801 179.834 57.0801 178.529C57.0801 177.224 57.1303 176.167 57.1889 176.167C57.2476 176.167 57.2978 177.224 57.2978 178.529C57.302 179.834 57.2517 180.892 57.1889 180.892Z" fill="#263238"/>
<path d="M61.769 180.892C61.7104 180.892 61.6602 179.834 61.6602 178.529C61.6602 177.224 61.7104 176.167 61.769 176.167C61.8276 176.167 61.8779 177.224 61.8779 178.529C61.8779 179.834 61.8318 180.892 61.769 180.892Z" fill="#263238"/>
<path d="M60.3374 180.892C60.2788 180.892 60.2285 179.834 60.2285 178.529C60.2285 177.224 60.2788 176.167 60.3374 176.167C60.396 176.167 60.4462 177.224 60.4462 178.529C60.4462 179.834 60.396 180.892 60.3374 180.892Z" fill="#263238"/>
<path d="M64.9175 180.892C64.8588 180.892 64.8086 179.834 64.8086 178.529C64.8086 177.224 64.8588 176.167 64.9175 176.167C64.9761 176.167 65.0263 177.224 65.0263 178.529C65.0263 179.834 64.9761 180.892 64.9175 180.892Z" fill="#263238"/>
<path d="M63.4858 180.892C63.4272 180.892 63.377 179.834 63.377 178.529C63.377 177.224 63.4272 176.167 63.4858 176.167C63.5444 176.167 63.5947 177.224 63.5947 178.529C63.5947 179.834 63.5444 180.892 63.4858 180.892Z" fill="#263238"/>
<path d="M68.0659 180.892C68.0073 180.892 67.957 179.834 67.957 178.529C67.957 177.224 68.0073 176.167 68.0659 176.167C68.1245 176.167 68.1748 177.224 68.1748 178.529C68.1748 179.834 68.1245 180.892 68.0659 180.892Z" fill="#263238"/>
<path d="M66.6303 180.892C66.5717 180.892 66.5215 179.834 66.5215 178.529C66.5215 177.224 66.5717 176.167 66.6303 176.167C66.689 176.167 66.7392 177.224 66.7392 178.529C66.7392 179.834 66.6931 180.892 66.6303 180.892Z" fill="#263238"/>
<path d="M69.6619 176.092C69.6619 176.15 63.7709 176.201 56.5067 176.201C49.2383 176.201 43.3516 176.15 43.3516 176.092C43.3516 176.033 49.2425 175.982 56.5067 175.982C63.7709 175.982 69.6619 176.033 69.6619 176.092Z" fill="#263238"/>
<g opacity="0.3">
<path d="M48.7109 171.342C52.6215 172.307 56.7916 172.491 60.811 172.223C64.8304 171.954 68.8875 171.363 72.9152 171.413L48.7109 171.342Z" fill="black"/>
</g>
<g opacity="0.3">
<path d="M43.7913 176.154C47.7018 177.119 51.8719 177.304 55.8913 177.035C59.9107 176.767 63.9678 176.175 67.9956 176.225L43.7913 176.154Z" fill="black"/>
</g>
<path d="M47.7858 166.956C47.9685 166.956 48.1166 166.908 48.1166 166.847C48.1166 166.787 47.9685 166.738 47.7858 166.738C47.6032 166.738 47.4551 166.787 47.4551 166.847C47.4551 166.908 47.6032 166.956 47.7858 166.956Z" fill="white"/>
<path d="M51.7503 166.86C51.7503 166.919 51.0762 166.969 50.2472 166.969C49.4182 166.969 48.7441 166.919 48.7441 166.86C48.7441 166.801 49.4182 166.751 50.2472 166.751C51.0762 166.751 51.7503 166.801 51.7503 166.86Z" fill="white"/>
<path d="M55.9046 166.86C55.9046 166.919 55.2305 166.969 54.4015 166.969C53.5725 166.969 52.8984 166.919 52.8984 166.86C52.8984 166.801 53.5725 166.751 54.4015 166.751C55.2347 166.751 55.9046 166.801 55.9046 166.86Z" fill="white"/>
<path d="M193.072 166.537H166.879V171.304H193.072V166.537Z" fill="#F5B61A"/>
<path d="M169.445 171.337C169.386 171.337 169.336 170.28 169.336 168.975C169.336 167.67 169.386 166.608 169.445 166.608C169.503 166.608 169.554 167.666 169.554 168.975C169.554 170.28 169.503 171.337 169.445 171.337Z" fill="#263238"/>
<path d="M168.013 171.337C167.955 171.337 167.904 170.28 167.904 168.975C167.904 167.67 167.955 166.608 168.013 166.608C168.072 166.608 168.122 167.666 168.122 168.975C168.122 170.28 168.072 171.337 168.013 171.337Z" fill="#263238"/>
<path d="M172.593 171.337C172.535 171.337 172.484 170.28 172.484 168.975C172.484 167.67 172.535 166.608 172.593 166.608C172.652 166.608 172.702 167.666 172.702 168.975C172.702 170.28 172.652 171.337 172.593 171.337Z" fill="#263238"/>
<path d="M171.158 171.337C171.099 171.337 171.049 170.28 171.049 168.975C171.049 167.67 171.099 166.608 171.158 166.608C171.217 166.608 171.267 167.666 171.267 168.975C171.267 170.28 171.221 171.337 171.158 171.337Z" fill="#263238"/>
<path d="M175.738 171.337C175.679 171.337 175.629 170.28 175.629 168.975C175.629 167.67 175.679 166.608 175.738 166.608C175.796 166.608 175.847 167.666 175.847 168.975C175.847 170.28 175.801 171.337 175.738 171.337Z" fill="#263238"/>
<path d="M174.306 171.337C174.248 171.337 174.197 170.28 174.197 168.975C174.197 167.67 174.248 166.608 174.306 166.608C174.365 166.608 174.415 167.666 174.415 168.975C174.415 170.28 174.365 171.337 174.306 171.337Z" fill="#263238"/>
<path d="M178.886 171.337C178.828 171.337 178.777 170.28 178.777 168.975C178.777 167.67 178.828 166.608 178.886 166.608C178.945 166.608 178.995 167.666 178.995 168.975C178.995 170.28 178.945 171.337 178.886 171.337Z" fill="#263238"/>
<path d="M177.455 171.337C177.396 171.337 177.346 170.28 177.346 168.975C177.346 167.67 177.396 166.608 177.455 166.608C177.513 166.608 177.563 167.666 177.563 168.975C177.563 170.28 177.513 171.337 177.455 171.337Z" fill="#263238"/>
<path d="M182.035 171.337C181.976 171.337 181.926 170.28 181.926 168.975C181.926 167.67 181.976 166.608 182.035 166.608C182.093 166.608 182.144 167.666 182.144 168.975C182.144 170.28 182.093 171.337 182.035 171.337Z" fill="#263238"/>
<path d="M180.599 171.337C180.541 171.337 180.49 170.28 180.49 168.975C180.49 167.67 180.541 166.608 180.599 166.608C180.658 166.608 180.708 167.666 180.708 168.975C180.708 170.28 180.662 171.337 180.599 171.337Z" fill="#263238"/>
<path d="M185.179 171.337C185.121 171.337 185.07 170.28 185.07 168.975C185.07 167.67 185.121 166.608 185.179 166.608C185.238 166.608 185.288 167.666 185.288 168.975C185.288 170.28 185.242 171.337 185.179 171.337Z" fill="#263238"/>
<path d="M183.748 171.337C183.689 171.337 183.639 170.28 183.639 168.975C183.639 167.67 183.689 166.608 183.748 166.608C183.806 166.608 183.856 167.666 183.856 168.975C183.856 170.28 183.806 171.337 183.748 171.337Z" fill="#263238"/>
<path d="M188.328 171.337C188.269 171.337 188.219 170.28 188.219 168.975C188.219 167.67 188.269 166.608 188.328 166.608C188.386 166.608 188.436 167.666 188.436 168.975C188.436 170.28 188.386 171.337 188.328 171.337Z" fill="#263238"/>
<path d="M186.896 171.337C186.837 171.337 186.787 170.28 186.787 168.975C186.787 167.67 186.837 166.608 186.896 166.608C186.955 166.608 187.005 167.666 187.005 168.975C187.005 170.28 186.955 171.337 186.896 171.337Z" fill="#263238"/>
<path d="M191.472 171.337C191.414 171.337 191.363 170.28 191.363 168.975C191.363 167.67 191.414 166.608 191.472 166.608C191.531 166.608 191.581 167.666 191.581 168.975C191.581 170.28 191.535 171.337 191.472 171.337Z" fill="#263238"/>
<path d="M190.041 171.337C189.982 171.337 189.932 170.28 189.932 168.975C189.932 167.67 189.982 166.608 190.041 166.608C190.099 166.608 190.15 167.666 190.15 168.975C190.15 170.28 190.104 171.337 190.041 171.337Z" fill="#263238"/>
<path d="M193.069 166.537C193.069 166.596 187.165 166.646 179.88 166.646C172.595 166.646 166.691 166.596 166.691 166.537C166.691 166.478 172.595 166.428 179.88 166.428C187.165 166.428 193.069 166.478 193.069 166.537Z" fill="#263238"/>
<path d="M191.021 171.266H164.828V176.032H191.021V171.266Z" fill="#F5B61A"/>
<path d="M167.394 176.065C167.335 176.065 167.285 175.008 167.285 173.703C167.285 172.398 167.335 171.341 167.394 171.341C167.453 171.341 167.503 172.398 167.503 173.703C167.503 175.008 167.453 176.065 167.394 176.065Z" fill="#263238"/>
<path d="M165.958 176.065C165.9 176.065 165.85 175.008 165.85 173.703C165.85 172.398 165.9 171.341 165.958 171.341C166.017 171.341 166.067 172.398 166.067 173.703C166.067 175.008 166.021 176.065 165.958 176.065Z" fill="#263238"/>
<path d="M170.539 176.065C170.48 176.065 170.43 175.008 170.43 173.703C170.43 172.398 170.48 171.341 170.539 171.341C170.597 171.341 170.647 172.398 170.647 173.703C170.647 175.008 170.601 176.065 170.539 176.065Z" fill="#263238"/>
<path d="M169.107 176.065C169.048 176.065 168.998 175.008 168.998 173.703C168.998 172.398 169.048 171.341 169.107 171.341C169.166 171.341 169.216 172.398 169.216 173.703C169.216 175.008 169.166 176.065 169.107 176.065Z" fill="#263238"/>
<path d="M173.687 176.065C173.628 176.065 173.578 175.008 173.578 173.703C173.578 172.398 173.628 171.341 173.687 171.341C173.746 171.341 173.796 172.398 173.796 173.703C173.796 175.008 173.746 176.065 173.687 176.065Z" fill="#263238"/>
<path d="M172.255 176.065C172.197 176.065 172.146 175.008 172.146 173.703C172.146 172.398 172.197 171.341 172.255 171.341C172.314 171.341 172.364 172.398 172.364 173.703C172.364 175.008 172.314 176.065 172.255 176.065Z" fill="#263238"/>
<path d="M176.832 176.065C176.773 176.065 176.723 175.008 176.723 173.703C176.723 172.398 176.773 171.341 176.832 171.341C176.89 171.341 176.94 172.398 176.94 173.703C176.945 175.008 176.894 176.065 176.832 176.065Z" fill="#263238"/>
<path d="M175.4 176.065C175.341 176.065 175.291 175.008 175.291 173.703C175.291 172.398 175.341 171.341 175.4 171.341C175.458 171.341 175.509 172.398 175.509 173.703C175.509 175.008 175.463 176.065 175.4 176.065Z" fill="#263238"/>
<path d="M179.98 176.065C179.921 176.065 179.871 175.008 179.871 173.703C179.871 172.398 179.921 171.341 179.98 171.341C180.039 171.341 180.089 172.398 180.089 173.703C180.089 175.008 180.043 176.065 179.98 176.065Z" fill="#263238"/>
<path d="M178.548 176.065C178.49 176.065 178.439 175.008 178.439 173.703C178.439 172.398 178.49 171.341 178.548 171.341C178.607 171.341 178.657 172.398 178.657 173.703C178.657 175.008 178.607 176.065 178.548 176.065Z" fill="#263238"/>
<path d="M183.128 176.065C183.07 176.065 183.02 175.008 183.02 173.703C183.02 172.398 183.07 171.341 183.128 171.341C183.187 171.341 183.237 172.398 183.237 173.703C183.237 175.008 183.187 176.065 183.128 176.065Z" fill="#263238"/>
<path d="M181.697 176.065C181.638 176.065 181.588 175.008 181.588 173.703C181.588 172.398 181.638 171.341 181.697 171.341C181.755 171.341 181.806 172.398 181.806 173.703C181.806 175.008 181.755 176.065 181.697 176.065Z" fill="#263238"/>
<path d="M186.273 176.065C186.214 176.065 186.164 175.008 186.164 173.703C186.164 172.398 186.214 171.341 186.273 171.341C186.332 171.341 186.382 172.398 186.382 173.703C186.382 175.008 186.336 176.065 186.273 176.065Z" fill="#263238"/>
<path d="M184.841 176.065C184.783 176.065 184.732 175.008 184.732 173.703C184.732 172.398 184.783 171.341 184.841 171.341C184.9 171.341 184.95 172.398 184.95 173.703C184.95 175.008 184.904 176.065 184.841 176.065Z" fill="#263238"/>
<path d="M189.421 176.065C189.363 176.065 189.312 175.008 189.312 173.703C189.312 172.398 189.363 171.341 189.421 171.341C189.48 171.341 189.53 172.398 189.53 173.703C189.53 175.008 189.48 176.065 189.421 176.065Z" fill="#263238"/>
<path d="M187.99 176.065C187.931 176.065 187.881 175.008 187.881 173.703C187.881 172.398 187.931 171.341 187.99 171.341C188.048 171.341 188.099 172.398 188.099 173.703C188.099 175.008 188.048 176.065 187.99 176.065Z" fill="#263238"/>
<path d="M191.017 171.265C191.017 171.324 185.126 171.374 177.862 171.374C170.594 171.374 164.707 171.324 164.707 171.265C164.707 171.207 170.598 171.156 177.862 171.156C185.126 171.156 191.017 171.207 191.017 171.265Z" fill="#263238"/>
<path d="M189.338 176.066H163.145V180.833H189.338V176.066Z" fill="#F5B61A"/>
<path d="M165.71 180.866C165.652 180.866 165.602 179.809 165.602 178.504C165.602 177.199 165.652 176.142 165.71 176.142C165.769 176.142 165.819 177.199 165.819 178.504C165.819 179.809 165.769 180.866 165.71 180.866Z" fill="#263238"/>
<path d="M164.279 180.866C164.22 180.866 164.17 179.809 164.17 178.504C164.17 177.199 164.22 176.142 164.279 176.142C164.337 176.142 164.388 177.199 164.388 178.504C164.388 179.809 164.337 180.866 164.279 180.866Z" fill="#263238"/>
<path d="M168.855 180.866C168.796 180.866 168.746 179.809 168.746 178.504C168.746 177.199 168.796 176.142 168.855 176.142C168.914 176.142 168.964 177.199 168.964 178.504C168.964 179.809 168.918 180.866 168.855 180.866Z" fill="#263238"/>
<path d="M167.423 180.866C167.365 180.866 167.314 179.809 167.314 178.504C167.314 177.199 167.365 176.142 167.423 176.142C167.482 176.142 167.532 177.199 167.532 178.504C167.532 179.809 167.486 180.866 167.423 180.866Z" fill="#263238"/>
<path d="M172.003 180.866C171.945 180.866 171.895 179.809 171.895 178.504C171.895 177.199 171.945 176.142 172.003 176.142C172.062 176.142 172.112 177.199 172.112 178.504C172.112 179.809 172.062 180.866 172.003 180.866Z" fill="#263238"/>
<path d="M170.572 180.866C170.513 180.866 170.463 179.809 170.463 178.504C170.463 177.199 170.513 176.142 170.572 176.142C170.63 176.142 170.681 177.199 170.681 178.504C170.681 179.809 170.63 180.866 170.572 180.866Z" fill="#263238"/>
<path d="M175.152 180.866C175.093 180.866 175.043 179.809 175.043 178.504C175.043 177.199 175.093 176.142 175.152 176.142C175.21 176.142 175.261 177.199 175.261 178.504C175.261 179.809 175.21 180.866 175.152 180.866Z" fill="#263238"/>
<path d="M173.716 180.866C173.658 180.866 173.607 179.809 173.607 178.504C173.607 177.199 173.658 176.142 173.716 176.142C173.775 176.142 173.825 177.199 173.825 178.504C173.825 179.809 173.779 180.866 173.716 180.866Z" fill="#263238"/>
<path d="M178.296 180.866C178.238 180.866 178.188 179.809 178.188 178.504C178.188 177.199 178.238 176.142 178.296 176.142C178.355 176.142 178.405 177.199 178.405 178.504C178.405 179.809 178.359 180.866 178.296 180.866Z" fill="#263238"/>
<path d="M176.865 180.866C176.806 180.866 176.756 179.809 176.756 178.504C176.756 177.199 176.806 176.142 176.865 176.142C176.923 176.142 176.974 177.199 176.974 178.504C176.974 179.809 176.923 180.866 176.865 180.866Z" fill="#263238"/>
<path d="M181.445 180.866C181.386 180.866 181.336 179.809 181.336 178.504C181.336 177.199 181.386 176.142 181.445 176.142C181.503 176.142 181.554 177.199 181.554 178.504C181.554 179.809 181.503 180.866 181.445 180.866Z" fill="#263238"/>
<path d="M180.013 180.866C179.955 180.866 179.904 179.809 179.904 178.504C179.904 177.199 179.955 176.142 180.013 176.142C180.072 176.142 180.122 177.199 180.122 178.504C180.122 179.809 180.072 180.866 180.013 180.866Z" fill="#263238"/>
<path d="M184.593 180.866C184.535 180.866 184.484 179.809 184.484 178.504C184.484 177.199 184.535 176.142 184.593 176.142C184.652 176.142 184.702 177.199 184.702 178.504C184.702 179.809 184.652 180.866 184.593 180.866Z" fill="#263238"/>
<path d="M183.158 180.866C183.099 180.866 183.049 179.809 183.049 178.504C183.049 177.199 183.099 176.142 183.158 176.142C183.216 176.142 183.267 177.199 183.267 178.504C183.267 179.809 183.22 180.866 183.158 180.866Z" fill="#263238"/>
<path d="M187.738 180.866C187.679 180.866 187.629 179.809 187.629 178.504C187.629 177.199 187.679 176.142 187.738 176.142C187.796 176.142 187.847 177.199 187.847 178.504C187.847 179.809 187.801 180.866 187.738 180.866Z" fill="#263238"/>
<path d="M186.306 180.866C186.248 180.866 186.197 179.809 186.197 178.504C186.197 177.199 186.248 176.142 186.306 176.142C186.365 176.142 186.415 177.199 186.415 178.504C186.415 179.809 186.365 180.866 186.306 180.866Z" fill="#263238"/>
<path d="M189.334 176.066C189.334 176.125 183.443 176.175 176.179 176.175C168.91 176.175 163.023 176.125 163.023 176.066C163.023 176.007 168.914 175.957 176.179 175.957C183.443 175.957 189.334 176.007 189.334 176.066Z" fill="#263238"/>
<g opacity="0.3">
<path d="M168.383 171.316C172.293 172.281 176.463 172.466 180.483 172.198C184.502 171.929 188.559 171.337 192.587 171.388L168.383 171.316Z" fill="black"/>
</g>
<g opacity="0.3">
<path d="M163.463 176.129C167.374 177.094 171.544 177.278 175.563 177.01C179.583 176.741 183.64 176.15 187.667 176.2L163.463 176.129Z" fill="black"/>
</g>
<path d="M167.458 166.931C167.64 166.931 167.788 166.882 167.788 166.822C167.788 166.762 167.64 166.713 167.458 166.713C167.275 166.713 167.127 166.762 167.127 166.822C167.127 166.882 167.275 166.931 167.458 166.931Z" fill="white"/>
<path d="M171.422 166.835C171.422 166.893 170.748 166.944 169.919 166.944C169.09 166.944 168.416 166.893 168.416 166.835C168.416 166.776 169.09 166.726 169.919 166.726C170.752 166.726 171.422 166.776 171.422 166.835Z" fill="white"/>
<path d="M175.58 166.835C175.58 166.893 174.906 166.944 174.077 166.944C173.248 166.944 172.574 166.893 172.574 166.835C172.574 166.776 173.248 166.726 174.077 166.726C174.906 166.726 175.58 166.776 175.58 166.835Z" fill="white"/>
<path d="M34.8295 156.995H8.63647V161.762H34.8295V156.995Z" fill="#F5B61A"/>
<path d="M11.2024 161.795C11.1437 161.795 11.0935 160.738 11.0935 159.433C11.0935 158.128 11.1437 157.066 11.2024 157.066C11.261 157.066 11.3112 158.124 11.3112 159.433C11.3112 160.738 11.261 161.795 11.2024 161.795Z" fill="#263238"/>
<path d="M9.77072 161.795C9.71211 161.795 9.66187 160.738 9.66187 159.433C9.66187 158.128 9.71211 157.066 9.77072 157.066C9.82934 157.066 9.87958 158.124 9.87958 159.433C9.87958 160.738 9.82934 161.795 9.77072 161.795Z" fill="#263238"/>
<path d="M14.3508 161.795C14.2922 161.795 14.2419 160.738 14.2419 159.433C14.2419 158.128 14.2922 157.066 14.3508 157.066C14.4094 157.066 14.4597 158.124 14.4597 159.433C14.4597 160.738 14.4094 161.795 14.3508 161.795Z" fill="#263238"/>
<path d="M12.9192 161.795C12.8605 161.795 12.8103 160.738 12.8103 159.433C12.8103 158.128 12.8605 157.066 12.9192 157.066C12.9778 157.066 13.028 158.124 13.028 159.433C13.028 160.738 12.9778 161.795 12.9192 161.795Z" fill="#263238"/>
<path d="M17.4953 161.795C17.4367 161.795 17.3865 160.738 17.3865 159.433C17.3865 158.128 17.4367 157.066 17.4953 157.066C17.554 157.066 17.6042 158.124 17.6042 159.433C17.6042 160.738 17.5581 161.795 17.4953 161.795Z" fill="#263238"/>
<path d="M16.0637 161.795C16.0051 161.795 15.9548 160.738 15.9548 159.433C15.9548 158.128 16.0051 157.066 16.0637 157.066C16.1223 157.066 16.1726 158.124 16.1726 159.433C16.1726 160.738 16.1265 161.795 16.0637 161.795Z" fill="#263238"/>
<path d="M20.6438 161.795C20.5852 161.795 20.5349 160.738 20.5349 159.433C20.5349 158.128 20.5852 157.066 20.6438 157.066C20.7024 157.066 20.7526 158.124 20.7526 159.433C20.7526 160.738 20.7024 161.795 20.6438 161.795Z" fill="#263238"/>
<path d="M19.2121 161.795C19.1535 161.795 19.1033 160.738 19.1033 159.433C19.1033 158.128 19.1535 157.066 19.2121 157.066C19.2707 157.066 19.321 158.124 19.321 159.433C19.321 160.738 19.2707 161.795 19.2121 161.795Z" fill="#263238"/>
<path d="M23.7922 161.795C23.7336 161.795 23.6833 160.738 23.6833 159.433C23.6833 158.128 23.7336 157.066 23.7922 157.066C23.8508 157.066 23.9011 158.124 23.9011 159.433C23.9011 160.738 23.8508 161.795 23.7922 161.795Z" fill="#263238"/>
<path d="M22.3569 161.795C22.2983 161.795 22.248 160.738 22.248 159.433C22.248 158.128 22.2983 157.066 22.3569 157.066C22.4155 157.066 22.4658 158.124 22.4658 159.433C22.47 160.738 22.4197 161.795 22.3569 161.795Z" fill="#263238"/>
<path d="M26.9367 161.795C26.8781 161.795 26.8279 160.738 26.8279 159.433C26.8279 158.128 26.8781 157.066 26.9367 157.066C26.9954 157.066 27.0456 158.124 27.0456 159.433C27.0456 160.738 26.9995 161.795 26.9367 161.795Z" fill="#263238"/>
<path d="M25.5051 161.795C25.4465 161.795 25.3962 160.738 25.3962 159.433C25.3962 158.128 25.4465 157.066 25.5051 157.066C25.5637 157.066 25.614 158.124 25.614 159.433C25.614 160.738 25.5637 161.795 25.5051 161.795Z" fill="#263238"/>
<path d="M30.0852 161.795C30.0266 161.795 29.9763 160.738 29.9763 159.433C29.9763 158.128 30.0266 157.066 30.0852 157.066C30.1438 157.066 30.194 158.124 30.194 159.433C30.194 160.738 30.1438 161.795 30.0852 161.795Z" fill="#263238"/>
<path d="M28.6535 161.795C28.5949 161.795 28.5447 160.738 28.5447 159.433C28.5447 158.128 28.5949 157.066 28.6535 157.066C28.7122 157.066 28.7624 158.124 28.7624 159.433C28.7624 160.738 28.7122 161.795 28.6535 161.795Z" fill="#263238"/>
<path d="M33.2336 161.795C33.175 161.795 33.1248 160.738 33.1248 159.433C33.1248 158.128 33.175 157.066 33.2336 157.066C33.2922 157.066 33.3425 158.124 33.3425 159.433C33.3425 160.738 33.2922 161.795 33.2336 161.795Z" fill="#263238"/>
<path d="M31.7983 161.795C31.7397 161.795 31.6895 160.738 31.6895 159.433C31.6895 158.128 31.7397 157.066 31.7983 157.066C31.8569 157.066 31.9072 158.124 31.9072 159.433C31.9072 160.738 31.8611 161.795 31.7983 161.795Z" fill="#263238"/>
<path d="M34.8296 156.995C34.8296 157.054 28.9387 157.104 21.6744 157.104C14.406 157.104 8.51929 157.054 8.51929 156.995C8.51929 156.936 14.4102 156.886 21.6744 156.886C28.9387 156.886 34.8296 156.936 34.8296 156.995Z" fill="#263238"/>
<path d="M33.1169 161.837H6.92383V166.603H33.1169V161.837Z" fill="#F5B61A"/>
<path d="M9.48972 166.637C9.4311 166.637 9.38086 165.579 9.38086 164.274C9.38086 162.969 9.4311 161.912 9.48972 161.912C9.54833 161.912 9.59858 162.969 9.59858 164.274C9.59858 165.579 9.54833 166.637 9.48972 166.637Z" fill="#263238"/>
<path d="M8.05417 166.637C7.99556 166.637 7.94531 165.579 7.94531 164.274C7.94531 162.969 7.99556 161.912 8.05417 161.912C8.11279 161.912 8.16303 162.969 8.16303 164.274C8.16303 165.579 8.11697 166.637 8.05417 166.637Z" fill="#263238"/>
<path d="M12.6342 166.637C12.5756 166.637 12.5254 165.579 12.5254 164.274C12.5254 162.969 12.5756 161.912 12.6342 161.912C12.6929 161.912 12.7431 162.969 12.7431 164.274C12.7431 165.579 12.6971 166.637 12.6342 166.637Z" fill="#263238"/>
<path d="M11.2026 166.637C11.144 166.637 11.0938 165.579 11.0938 164.274C11.0938 162.969 11.144 161.912 11.2026 161.912C11.2612 161.912 11.3115 162.969 11.3115 164.274C11.3115 165.579 11.2612 166.637 11.2026 166.637Z" fill="#263238"/>
<path d="M15.7827 166.637C15.7241 166.637 15.6738 165.579 15.6738 164.274C15.6738 162.969 15.7241 161.912 15.7827 161.912C15.8413 161.912 15.8915 162.969 15.8915 164.274C15.8915 165.579 15.8413 166.637 15.7827 166.637Z" fill="#263238"/>
<path d="M14.351 166.637C14.2924 166.637 14.2422 165.579 14.2422 164.274C14.2422 162.969 14.2924 161.912 14.351 161.912C14.4097 161.912 14.4599 162.969 14.4599 164.274C14.4599 165.579 14.4097 166.637 14.351 166.637Z" fill="#263238"/>
<path d="M18.9311 166.637C18.8725 166.637 18.8223 165.579 18.8223 164.274C18.8223 162.969 18.8725 161.912 18.9311 161.912C18.9897 161.912 19.04 162.969 19.04 164.274C19.04 165.579 18.9897 166.637 18.9311 166.637Z" fill="#263238"/>
<path d="M17.4956 166.637C17.437 166.637 17.3867 165.579 17.3867 164.274C17.3867 162.969 17.437 161.912 17.4956 161.912C17.5542 161.912 17.6044 162.969 17.6044 164.274C17.6044 165.579 17.5584 166.637 17.4956 166.637Z" fill="#263238"/>
<path d="M22.0757 166.637C22.017 166.637 21.9668 165.579 21.9668 164.274C21.9668 162.969 22.017 161.912 22.0757 161.912C22.1343 161.912 22.1845 162.969 22.1845 164.274C22.1845 165.579 22.1385 166.637 22.0757 166.637Z" fill="#263238"/>
<path d="M20.644 166.637C20.5854 166.637 20.5352 165.579 20.5352 164.274C20.5352 162.969 20.5854 161.912 20.644 161.912C20.7026 161.912 20.7529 162.969 20.7529 164.274C20.7529 165.579 20.7026 166.637 20.644 166.637Z" fill="#263238"/>
<path d="M25.2241 166.637C25.1655 166.637 25.1152 165.579 25.1152 164.274C25.1152 162.969 25.1655 161.912 25.2241 161.912C25.2827 161.912 25.333 162.969 25.333 164.274C25.333 165.579 25.2827 166.637 25.2241 166.637Z" fill="#263238"/>
<path d="M23.7925 166.637C23.7338 166.637 23.6836 165.579 23.6836 164.274C23.6836 162.969 23.7338 161.912 23.7925 161.912C23.8511 161.912 23.9013 162.969 23.9013 164.274C23.9013 165.579 23.8511 166.637 23.7925 166.637Z" fill="#263238"/>
<path d="M28.3686 166.637C28.31 166.637 28.2598 165.579 28.2598 164.274C28.2598 162.969 28.31 161.912 28.3686 161.912C28.4272 161.912 28.4775 162.969 28.4775 164.274C28.4775 165.579 28.4314 166.637 28.3686 166.637Z" fill="#263238"/>
<path d="M26.937 166.637C26.8784 166.637 26.8281 165.579 26.8281 164.274C26.8281 162.969 26.8784 161.912 26.937 161.912C26.9956 161.912 27.0458 162.969 27.0458 164.274C27.0458 165.579 26.9998 166.637 26.937 166.637Z" fill="#263238"/>
<path d="M31.5171 166.637C31.4584 166.637 31.4082 165.579 31.4082 164.274C31.4082 162.969 31.4584 161.912 31.5171 161.912C31.5757 161.912 31.6259 162.969 31.6259 164.274C31.6259 165.579 31.5757 166.637 31.5171 166.637Z" fill="#263238"/>
<path d="M30.0854 166.637C30.0268 166.637 29.9766 165.579 29.9766 164.274C29.9766 162.969 30.0268 161.912 30.0854 161.912C30.144 161.912 30.1943 162.969 30.1943 164.274C30.1943 165.579 30.144 166.637 30.0854 166.637Z" fill="#263238"/>
<path d="M33.113 161.837C33.113 161.895 27.2221 161.946 19.9579 161.946C12.6895 161.946 6.80273 161.895 6.80273 161.837C6.80273 161.778 12.6937 161.728 19.9579 161.728C27.2221 161.728 33.113 161.778 33.113 161.837Z" fill="#263238"/>
<path d="M35.2556 166.638H9.0625V171.404H35.2556V166.638Z" fill="#F5B61A"/>
<path d="M11.6284 171.438C11.5698 171.438 11.5195 170.38 11.5195 169.075C11.5195 167.77 11.5698 166.713 11.6284 166.713C11.687 166.713 11.7372 167.77 11.7372 169.075C11.7372 170.38 11.687 171.438 11.6284 171.438Z" fill="#263238"/>
<path d="M10.1967 171.438C10.1381 171.438 10.0879 170.38 10.0879 169.075C10.0879 167.77 10.1381 166.713 10.1967 166.713C10.2554 166.713 10.3056 167.77 10.3056 169.075C10.3056 170.38 10.2554 171.438 10.1967 171.438Z" fill="#263238"/>
<path d="M14.7729 171.438C14.7143 171.438 14.6641 170.38 14.6641 169.075C14.6641 167.77 14.7143 166.713 14.7729 166.713C14.8315 166.713 14.8818 167.77 14.8818 169.075C14.8818 170.38 14.8357 171.438 14.7729 171.438Z" fill="#263238"/>
<path d="M13.3413 171.438C13.2827 171.438 13.2324 170.38 13.2324 169.075C13.2324 167.77 13.2827 166.713 13.3413 166.713C13.3999 166.713 13.4501 167.77 13.4501 169.075C13.4501 170.38 13.4041 171.438 13.3413 171.438Z" fill="#263238"/>
<path d="M17.9214 171.438C17.8627 171.438 17.8125 170.38 17.8125 169.075C17.8125 167.77 17.8627 166.713 17.9214 166.713C17.98 166.713 18.0302 167.77 18.0302 169.075C18.0302 170.38 17.98 171.438 17.9214 171.438Z" fill="#263238"/>
<path d="M16.4897 171.438C16.4311 171.438 16.3809 170.38 16.3809 169.075C16.3809 167.77 16.4311 166.713 16.4897 166.713C16.5483 166.713 16.5986 167.77 16.5986 169.075C16.5986 170.38 16.5483 171.438 16.4897 171.438Z" fill="#263238"/>
<path d="M21.0698 171.438C21.0112 171.438 20.9609 170.38 20.9609 169.075C20.9609 167.77 21.0112 166.713 21.0698 166.713C21.1284 166.713 21.1787 167.77 21.1787 169.075C21.1787 170.38 21.1284 171.438 21.0698 171.438Z" fill="#263238"/>
<path d="M19.6382 171.438C19.5795 171.438 19.5293 170.38 19.5293 169.075C19.5293 167.77 19.5795 166.713 19.6382 166.713C19.6968 166.713 19.747 167.77 19.747 169.075C19.747 170.38 19.6968 171.438 19.6382 171.438Z" fill="#263238"/>
<path d="M24.2143 171.438C24.1557 171.438 24.1055 170.38 24.1055 169.075C24.1055 167.77 24.1557 166.713 24.2143 166.713C24.2729 166.713 24.3232 167.77 24.3232 169.075C24.3232 170.38 24.2771 171.438 24.2143 171.438Z" fill="#263238"/>
<path d="M22.7827 171.438C22.7241 171.438 22.6738 170.38 22.6738 169.075C22.6738 167.77 22.7241 166.713 22.7827 166.713C22.8413 166.713 22.8915 167.77 22.8915 169.075C22.8915 170.38 22.8455 171.438 22.7827 171.438Z" fill="#263238"/>
<path d="M27.3628 171.438C27.3041 171.438 27.2539 170.38 27.2539 169.075C27.2539 167.77 27.3041 166.713 27.3628 166.713C27.4214 166.713 27.4716 167.77 27.4716 169.075C27.4716 170.38 27.4214 171.438 27.3628 171.438Z" fill="#263238"/>
<path d="M25.9311 171.438C25.8725 171.438 25.8223 170.38 25.8223 169.075C25.8223 167.77 25.8725 166.713 25.9311 166.713C25.9897 166.713 26.04 167.77 26.04 169.075C26.04 170.38 25.9897 171.438 25.9311 171.438Z" fill="#263238"/>
<path d="M30.5112 171.438C30.4526 171.438 30.4023 170.38 30.4023 169.075C30.4023 167.77 30.4526 166.713 30.5112 166.713C30.5698 166.713 30.6201 167.77 30.6201 169.075C30.6201 170.38 30.5698 171.438 30.5112 171.438Z" fill="#263238"/>
<path d="M29.0757 171.438C29.017 171.438 28.9668 170.38 28.9668 169.075C28.9668 167.77 29.017 166.713 29.0757 166.713C29.1343 166.713 29.1845 167.77 29.1845 169.075C29.1887 170.38 29.1385 171.438 29.0757 171.438Z" fill="#263238"/>
<path d="M33.6557 171.438C33.5971 171.438 33.5469 170.38 33.5469 169.075C33.5469 167.77 33.5971 166.713 33.6557 166.713C33.7144 166.713 33.7646 167.77 33.7646 169.075C33.7646 170.38 33.7185 171.438 33.6557 171.438Z" fill="#263238"/>
<path d="M32.2241 171.438C32.1655 171.438 32.1152 170.38 32.1152 169.075C32.1152 167.77 32.1655 166.713 32.2241 166.713C32.2827 166.713 32.333 167.77 32.333 169.075C32.333 170.38 32.2869 171.438 32.2241 171.438Z" fill="#263238"/>
<path d="M35.2523 166.637C35.2523 166.696 29.3488 166.747 22.0636 166.747C14.7785 166.747 8.875 166.696 8.875 166.637C8.875 166.579 14.7785 166.528 22.0636 166.528C29.3488 166.528 35.2523 166.579 35.2523 166.637Z" fill="#263238"/>
<path d="M33.2009 171.366H7.00781V176.133H33.2009V171.366Z" fill="#F5B61A"/>
<path d="M9.5737 176.166C9.51509 176.166 9.46484 175.109 9.46484 173.804C9.46484 172.499 9.51509 171.441 9.5737 171.441C9.63232 171.441 9.68256 172.499 9.68256 173.804C9.68256 175.109 9.63651 176.166 9.5737 176.166Z" fill="#263238"/>
<path d="M8.14206 176.166C8.08345 176.166 8.0332 175.109 8.0332 173.804C8.0332 172.499 8.08345 171.441 8.14206 171.441C8.20068 171.441 8.25092 172.499 8.25092 173.804C8.25092 175.109 8.20486 176.166 8.14206 176.166Z" fill="#263238"/>
<path d="M12.7221 176.166C12.6635 176.166 12.6133 175.109 12.6133 173.804C12.6133 172.499 12.6635 171.441 12.7221 171.441C12.7808 171.441 12.831 172.499 12.831 173.804C12.831 175.109 12.7808 176.166 12.7221 176.166Z" fill="#263238"/>
<path d="M11.2905 176.166C11.2319 176.166 11.1816 175.109 11.1816 173.804C11.1816 172.499 11.2319 171.441 11.2905 171.441C11.3491 171.441 11.3994 172.499 11.3994 173.804C11.3994 175.109 11.3491 176.166 11.2905 176.166Z" fill="#263238"/>
<path d="M15.8706 176.166C15.812 176.166 15.7617 175.109 15.7617 173.804C15.7617 172.499 15.812 171.441 15.8706 171.441C15.9292 171.441 15.9794 172.499 15.9794 173.804C15.9794 175.109 15.9292 176.166 15.8706 176.166Z" fill="#263238"/>
<path d="M14.4389 176.166C14.3803 176.166 14.3301 175.109 14.3301 173.804C14.3301 172.499 14.3803 171.441 14.4389 171.441C14.4976 171.441 14.5478 172.499 14.5478 173.804C14.5478 175.109 14.4976 176.166 14.4389 176.166Z" fill="#263238"/>
<path d="M19.0151 176.166C18.9565 176.166 18.9062 175.109 18.9062 173.804C18.9062 172.499 18.9565 171.441 19.0151 171.441C19.0737 171.441 19.124 172.499 19.124 173.804C19.124 175.109 19.0779 176.166 19.0151 176.166Z" fill="#263238"/>
<path d="M17.5835 176.166C17.5249 176.166 17.4746 175.109 17.4746 173.804C17.4746 172.499 17.5249 171.441 17.5835 171.441C17.6421 171.441 17.6923 172.499 17.6923 173.804C17.6923 175.109 17.6463 176.166 17.5835 176.166Z" fill="#263238"/>
<path d="M22.1635 176.166C22.1049 176.166 22.0547 175.109 22.0547 173.804C22.0547 172.499 22.1049 171.441 22.1635 171.441C22.2222 171.441 22.2724 172.499 22.2724 173.804C22.2724 175.109 22.2222 176.166 22.1635 176.166Z" fill="#263238"/>
<path d="M20.7319 176.166C20.6733 176.166 20.623 175.109 20.623 173.804C20.623 172.499 20.6733 171.441 20.7319 171.441C20.7905 171.441 20.8408 172.499 20.8408 173.804C20.8408 175.109 20.7905 176.166 20.7319 176.166Z" fill="#263238"/>
<path d="M25.312 176.166C25.2534 176.166 25.2031 175.109 25.2031 173.804C25.2031 172.499 25.2534 171.441 25.312 171.441C25.3706 171.441 25.4208 172.499 25.4208 173.804C25.4208 175.109 25.3706 176.166 25.312 176.166Z" fill="#263238"/>
<path d="M23.8764 176.166C23.8178 176.166 23.7676 175.109 23.7676 173.804C23.7676 172.499 23.8178 171.441 23.8764 171.441C23.9351 171.441 23.9853 172.499 23.9853 173.804C23.9895 175.109 23.9392 176.166 23.8764 176.166Z" fill="#263238"/>
<path d="M28.4565 176.166C28.3979 176.166 28.3477 175.109 28.3477 173.804C28.3477 172.499 28.3979 171.441 28.4565 171.441C28.5151 171.441 28.5654 172.499 28.5654 173.804C28.5654 175.109 28.5193 176.166 28.4565 176.166Z" fill="#263238"/>
<path d="M27.0249 176.166C26.9663 176.166 26.916 175.109 26.916 173.804C26.916 172.499 26.9663 171.441 27.0249 171.441C27.0835 171.441 27.1337 172.499 27.1337 173.804C27.1337 175.109 27.0835 176.166 27.0249 176.166Z" fill="#263238"/>
<path d="M31.605 176.166C31.5463 176.166 31.4961 175.109 31.4961 173.804C31.4961 172.499 31.5463 171.441 31.605 171.441C31.6636 171.441 31.7138 172.499 31.7138 173.804C31.7138 175.109 31.6636 176.166 31.605 176.166Z" fill="#263238"/>
<path d="M30.1733 176.166C30.1147 176.166 30.0645 175.109 30.0645 173.804C30.0645 172.499 30.1147 171.441 30.1733 171.441C30.2319 171.441 30.2822 172.499 30.2822 173.804C30.2822 175.109 30.2319 176.166 30.1733 176.166Z" fill="#263238"/>
<path d="M33.2009 171.366C33.2009 171.425 27.31 171.475 20.0458 171.475C12.7774 171.475 6.89062 171.425 6.89062 171.366C6.89062 171.307 12.7816 171.257 20.0458 171.257C27.31 171.257 33.2009 171.307 33.2009 171.366Z" fill="#263238"/>
<path d="M35.8259 176.2H9.63281V180.967H35.8259V176.2Z" fill="#F5B61A"/>
<path d="M12.1987 181C12.1401 181 12.0898 179.943 12.0898 178.638C12.0898 177.333 12.1401 176.275 12.1987 176.275C12.2573 176.275 12.3076 177.333 12.3076 178.638C12.3076 179.943 12.2615 181 12.1987 181Z" fill="#263238"/>
<path d="M10.7671 181C10.7084 181 10.6582 179.943 10.6582 178.638C10.6582 177.333 10.7084 176.275 10.7671 176.275C10.8257 176.275 10.8759 177.333 10.8759 178.638C10.8759 179.943 10.8299 181 10.7671 181Z" fill="#263238"/>
<path d="M15.3471 181C15.2885 181 15.2383 179.943 15.2383 178.638C15.2383 177.333 15.2885 176.275 15.3471 176.275C15.4058 176.275 15.456 177.333 15.456 178.638C15.456 179.943 15.4058 181 15.3471 181Z" fill="#263238"/>
<path d="M13.9155 181C13.8569 181 13.8066 179.943 13.8066 178.638C13.8066 177.333 13.8569 176.275 13.9155 176.275C13.9741 176.275 14.0244 177.333 14.0244 178.638C14.0244 179.943 13.9741 181 13.9155 181Z" fill="#263238"/>
<path d="M18.4956 181C18.437 181 18.3867 179.943 18.3867 178.638C18.3867 177.333 18.437 176.275 18.4956 176.275C18.5542 176.275 18.6044 177.333 18.6044 178.638C18.6044 179.943 18.5542 181 18.4956 181Z" fill="#263238"/>
<path d="M17.06 181C17.0014 181 16.9512 179.943 16.9512 178.638C16.9512 177.333 17.0014 176.275 17.06 176.275C17.1186 176.275 17.1689 177.333 17.1689 178.638C17.1731 179.943 17.1228 181 17.06 181Z" fill="#263238"/>
<path d="M21.6401 181C21.5815 181 21.5312 179.943 21.5312 178.638C21.5312 177.333 21.5815 176.275 21.6401 176.275C21.6987 176.275 21.749 177.333 21.749 178.638C21.749 179.943 21.7029 181 21.6401 181Z" fill="#263238"/>
<path d="M20.2085 181C20.1499 181 20.0996 179.943 20.0996 178.638C20.0996 177.333 20.1499 176.275 20.2085 176.275C20.2671 176.275 20.3173 177.333 20.3173 178.638C20.3173 179.943 20.2671 181 20.2085 181Z" fill="#263238"/>
<path d="M24.7885 181C24.7299 181 24.6797 179.943 24.6797 178.638C24.6797 177.333 24.7299 176.275 24.7885 176.275C24.8472 176.275 24.8974 177.333 24.8974 178.638C24.8974 179.943 24.8472 181 24.7885 181Z" fill="#263238"/>
<path d="M23.3569 181C23.2983 181 23.248 179.943 23.248 178.638C23.248 177.333 23.2983 176.275 23.3569 176.275C23.4155 176.275 23.4658 177.333 23.4658 178.638C23.4658 179.943 23.4155 181 23.3569 181Z" fill="#263238"/>
<path d="M27.937 181C27.8784 181 27.8281 179.943 27.8281 178.638C27.8281 177.333 27.8784 176.275 27.937 176.275C27.9956 176.275 28.0458 177.333 28.0458 178.638C28.0458 179.943 27.9956 181 27.937 181Z" fill="#263238"/>
<path d="M26.5014 181C26.4428 181 26.3926 179.943 26.3926 178.638C26.3926 177.333 26.4428 176.275 26.5014 176.275C26.5601 176.275 26.6103 177.333 26.6103 178.638C26.6103 179.943 26.5642 181 26.5014 181Z" fill="#263238"/>
<path d="M31.0815 181C31.0229 181 30.9727 179.943 30.9727 178.638C30.9727 177.333 31.0229 176.275 31.0815 176.275C31.1401 176.275 31.1904 177.333 31.1904 178.638C31.1904 179.943 31.1443 181 31.0815 181Z" fill="#263238"/>
<path d="M29.6499 181C29.5913 181 29.541 179.943 29.541 178.638C29.541 177.333 29.5913 176.275 29.6499 176.275C29.7085 176.275 29.7587 177.333 29.7587 178.638C29.7587 179.943 29.7085 181 29.6499 181Z" fill="#263238"/>
<path d="M34.23 181C34.1713 181 34.1211 179.943 34.1211 178.638C34.1211 177.333 34.1713 176.275 34.23 176.275C34.2886 176.275 34.3388 177.333 34.3388 178.638C34.3388 179.943 34.2886 181 34.23 181Z" fill="#263238"/>
<path d="M32.7983 181C32.7397 181 32.6895 179.943 32.6895 178.638C32.6895 177.333 32.7397 176.275 32.7983 176.275C32.8569 176.275 32.9072 177.333 32.9072 178.638C32.9072 179.943 32.8569 181 32.7983 181Z" fill="#263238"/>
<path d="M35.8259 176.2C35.8259 176.259 29.935 176.309 22.6708 176.309C15.4024 176.309 9.51562 176.259 9.51562 176.2C9.51562 176.141 15.4066 176.091 22.6708 176.091C29.935 176.091 35.8259 176.141 35.8259 176.2Z" fill="#263238"/>
<g opacity="0.3">
<path d="M9.06445 166.637C12.975 167.602 17.1451 167.786 21.1645 167.518C25.1839 167.249 29.241 166.658 33.2688 166.708L9.06445 166.637Z" fill="black"/>
</g>
<g opacity="0.3">
<path d="M9.29883 161.892C13.2094 162.857 17.3795 163.041 21.3989 162.773C25.4183 162.504 29.4754 161.913 33.5031 161.963L9.29883 161.892Z" fill="black"/>
</g>
<g opacity="0.3">
<path d="M10.5664 171.412C14.4769 172.377 18.6471 172.562 22.6665 172.293C26.6859 172.025 30.7429 171.433 34.7707 171.483L10.5664 171.412Z" fill="black"/>
</g>
<g opacity="0.3">
<path d="M9.54102 176.17C13.4516 177.135 17.6217 177.32 21.6411 177.051C25.6605 176.783 29.7175 176.191 33.7453 176.241L9.54102 176.17Z" fill="black"/>
</g>
<path d="M9.11862 160.255C9.06001 160.255 9.00977 159.672 9.00977 158.95C9.00977 158.229 9.06001 157.646 9.11862 157.646C9.17724 157.646 9.22748 158.229 9.22748 158.95C9.22748 159.672 9.17724 160.255 9.11862 160.255Z" fill="white"/>
<path d="M7.46433 165.349C7.40571 165.349 7.35547 164.724 7.35547 163.947C7.35547 163.175 7.40571 162.546 7.46433 162.546C7.52294 162.546 7.57319 163.171 7.57319 163.947C7.57319 164.724 7.52713 165.349 7.46433 165.349Z" fill="white"/>
<path d="M9.81784 170.25C9.75923 170.25 9.70898 169.696 9.70898 169.008C9.70898 168.324 9.75923 167.766 9.81784 167.766C9.87646 167.766 9.9267 168.319 9.9267 169.008C9.9267 169.696 9.87646 170.25 9.81784 170.25Z" fill="white"/>
<path d="M7.40183 174.773C7.34321 174.773 7.29297 174.274 7.29297 173.661C7.29297 173.044 7.34321 172.545 7.40183 172.545C7.46044 172.545 7.51069 173.044 7.51069 173.661C7.51069 174.274 7.46463 174.773 7.40183 174.773Z" fill="white"/>
<path d="M16.9933 162.231C16.9933 162.29 15.0589 162.34 12.6724 162.34C10.2859 162.34 8.35156 162.29 8.35156 162.231C8.35156 162.172 10.2859 162.122 12.6724 162.122C15.0589 162.122 16.9933 162.168 16.9933 162.231Z" fill="white"/>
<path d="M19.7902 157.645C19.7902 157.704 17.8433 157.754 15.44 157.754C13.0367 157.754 11.0898 157.704 11.0898 157.645C11.0898 157.586 13.0367 157.536 15.44 157.536C17.8391 157.536 19.7902 157.586 19.7902 157.645Z" fill="white"/>
<path d="M23.9824 157.708C23.9824 157.766 23.3418 157.817 22.5547 157.817C21.7634 157.817 21.127 157.766 21.127 157.708C21.127 157.649 21.7675 157.599 22.5547 157.599C23.3418 157.599 23.9824 157.649 23.9824 157.708Z" fill="white"/>
</g>
<defs>
<clipPath id="clip0_165_2204">
<rect width="196" height="181" fill="white"/>
</clipPath>
</defs>
</svg>
