<svg width="69" height="69" viewBox="0 0 69 69" fill="none" xmlns="http://www.w3.org/2000/svg">
<path d="M47.434 33.3595C47.4311 33.3595 47.4297 33.3595 47.4268 33.3595C47.9172 32.0475 47.9302 30.5307 47.3093 29.0895C47.1482 28.7175 47.2034 28.5228 47.4442 28.2555C49.2142 26.284 50.9697 24.3022 52.7296 22.322C53.6755 21.257 54.6345 20.2037 55.5602 19.1213C56.1071 18.482 56.1492 17.7338 55.7517 17.0756C55.373 16.448 54.6447 16.0818 53.9222 16.307C53.5044 16.4363 53.0865 16.7313 52.7905 17.0611C50.1834 19.9552 47.5965 22.8682 45.0213 25.79C44.7326 26.1169 44.5048 26.1924 44.0681 26.0588C43.3978 25.8539 42.6869 25.7043 41.9891 25.681C40.3467 25.6273 38.7015 25.6519 37.0562 25.6723C36.605 25.6781 36.28 25.5561 35.9594 25.1972C35.16 24.3008 34.3287 23.4349 33.4292 22.6372C32.2221 21.5679 31.0774 19.4714 29.4045 18.4108C27.324 17.0829 25.9719 16.849 23.5577 17.7062C23.2878 17.7221 22.6451 18.1028 21.7702 18.6927C19.7623 20.0482 17.2233 20.4303 14.9528 19.5905C14.5944 19.4583 14.2506 19.3 13.9285 19.1169C12.3877 18.2365 11.2691 17.5638 9.58178 17.6582C4.50966 17.9459 0.406709 23.4247 0.305151 28.347C0.202142 33.3827 0.24421 38.4242 0.299342 43.4613C0.33126 46.3308 2.72658 48.7091 5.58908 48.8079C6.39139 48.8355 7.1995 48.6684 8.01487 48.5885V65.5247C7.7189 65.5247 7.47663 65.5247 7.23579 65.5247C5.50204 65.5247 3.76973 65.516 2.03599 65.532C1.2801 65.5393 0.715743 65.9025 0.419773 66.6115C0.132507 67.2987 0.273238 67.938 0.782481 68.4595C1.00736 68.6891 1.33089 68.8213 1.60945 68.9986H33.181V68.971C34.4157 68.9695 35.6518 68.9652 36.8865 68.9622C38.2677 68.9593 39.0134 68.352 39.0279 67.2435C39.0424 66.1117 38.3489 65.516 36.9286 65.5073C34.2619 65.4899 31.5938 65.4768 28.9272 65.5102V65.5233C28.6022 65.5233 28.2787 65.5233 27.9537 65.5233C27.6955 65.5233 27.4387 65.5233 27.192 65.5233V32.4354C27.4749 32.6868 27.6389 32.8204 27.7897 32.9701C28.5471 33.7241 29.2972 34.4854 30.0545 35.238C30.2852 35.4661 30.5246 35.6754 30.7741 35.8628C30.9874 36.2812 31.3704 36.611 31.8579 36.733C32.1756 36.813 32.5166 36.8275 32.8474 36.8275C32.8532 36.8275 32.8575 36.8275 32.8633 36.8275C33.181 36.8929 33.5104 36.9306 33.8513 36.9335C36.7748 36.9597 39.704 37.0527 42.6202 36.903C42.8436 36.8914 43.0612 36.8653 43.273 36.8304C45.6988 35.9659 46.9016 34.6772 47.434 33.3595ZM42.9364 33.3261C42.8987 33.3391 42.8596 33.3493 42.8204 33.3609C39.6953 33.3609 36.5702 33.3609 33.4451 33.3609C33.0592 33.2316 32.7095 33.0108 32.3961 32.681C31.6301 31.8746 30.8307 31.0988 30.0429 30.3128C28.8256 29.1011 27.3197 28.7335 25.9037 29.3597C24.3498 30.0469 23.6592 31.3065 23.6592 32.9803C23.6592 40.1153 23.6592 47.249 23.6592 54.3841C23.6592 57.7954 23.6592 61.2068 23.6592 64.6181C23.6592 64.884 23.6592 65.1513 23.6592 65.4899C22.1866 65.4899 20.7967 65.4899 19.3372 65.4899C19.3372 65.1993 19.3372 64.9392 19.3372 64.6777C19.3372 58.0337 19.3386 51.3897 19.3328 44.7457C19.3328 44.3926 19.3183 44.0265 19.2226 43.6909C18.9933 42.8889 18.2781 42.437 17.438 42.5039C16.6459 42.5664 15.9887 43.1969 15.8929 44.0076C15.8639 44.2502 15.8769 44.4972 15.8769 44.7428C15.8769 51.365 15.8769 57.9872 15.8769 64.608C15.8769 64.8753 15.8769 65.1426 15.8769 65.4652C14.4479 65.4652 13.0406 65.4652 11.5302 65.4652C11.5302 65.2487 11.5302 65.0119 11.5302 64.7765C11.5302 57.9988 11.5302 51.2211 11.5302 44.442C11.5302 40.0078 11.5331 35.5722 11.5273 31.138C11.5259 29.8057 10.828 29.0488 9.69349 29.1098C8.90134 29.1519 8.26297 29.7084 8.12949 30.5002C8.08161 30.7835 8.07728 31.077 8.07583 31.3661C8.07293 34.6438 8.07582 37.9215 8.07147 41.1992C8.07002 41.8893 8.04244 42.5794 8.02213 43.2695C7.98586 44.5016 7.10809 45.369 5.9039 45.3661C4.72872 45.3646 3.7857 44.4609 3.74943 43.2666C3.72477 42.4196 3.74217 41.5726 3.74217 40.7256C3.74362 36.8013 3.73637 32.8771 3.74798 28.9529C3.75958 25.1478 6.93689 20.7122 10.6902 21.1538C10.8919 21.1771 11.0863 21.3267 11.2662 21.4386C16.6851 24.8209 21.4452 23.2315 22.8555 22.3176C24.4064 21.3122 25.6324 20.4637 27.1108 21.3107C28.344 22.0052 29.8383 23.9434 30.8989 25.0127C32.0262 26.1517 33.1694 27.2748 34.288 28.4226C34.7683 28.9166 35.3152 29.1476 36.0073 29.1403C38.0297 29.12 40.0522 29.1214 42.0732 29.1389C43.1729 29.149 44.1174 29.9292 44.2828 30.9099C44.4598 31.9734 43.9216 32.9745 42.9364 33.3261Z" fill="white"/>
<path d="M45.7202 65.5324C44.7337 65.4859 43.9169 66.2065 43.8762 67.1596C43.8385 68.0619 44.6669 68.9278 45.5955 68.9554C46.508 68.983 47.2654 68.2406 47.2973 67.2889C47.3307 66.2908 46.6923 65.5789 45.7202 65.5324Z" fill="white"/>
<path d="M66.8565 65.5046C64.7383 65.4974 62.6186 65.4799 60.5004 65.5061C58.2995 65.4901 56.0986 65.4945 53.8962 65.5104C52.5861 65.5206 51.8143 66.1584 51.7896 67.1871C51.7649 68.2506 52.5948 68.9596 53.9049 68.9639C56.0246 68.9712 58.1428 68.9886 60.261 68.9625C62.462 68.9785 64.6629 68.9741 66.8638 68.9581C68.1739 68.948 68.9472 68.3101 68.9704 67.2815C68.9965 66.218 68.1666 65.509 66.8565 65.5046Z" fill="white"/>
<path d="M17.52 17.2836C21.5547 17.3636 25.147 14.3619 25.8492 10.3229C26.55 6.29117 24.2083 2.31464 20.3259 0.966374C19.7876 0.778953 19.2276 0.654005 18.6777 0.5C17.9668 0.5 17.2559 0.5 16.545 0.5C16.4014 0.545039 16.2592 0.607513 16.1126 0.633665C11.7355 1.42258 8.72789 5.5502 9.31548 9.96695C9.87405 14.1614 13.2806 17.1994 17.52 17.2836ZM17.6404 3.97819C20.3433 3.99853 22.5457 6.24904 22.5137 8.95575C22.4818 11.6363 20.2707 13.82 17.5881 13.8185C14.8881 13.8171 12.6756 11.5826 12.6872 8.86858C12.6988 6.1546 14.9244 3.95785 17.6404 3.97819Z" fill="white"/>
<path d="M35.4063 19.396C35.7806 19.5922 36.2463 19.6822 36.6729 19.6939C38.0483 19.7302 39.4237 19.7069 40.8005 19.7069C40.8005 19.6982 40.8005 19.6895 40.8005 19.6808C42.3529 19.6808 43.9082 19.7229 45.4592 19.6648C46.4036 19.6299 47.0652 18.8207 47.0376 17.9242C47.0101 17.0118 46.3253 16.2709 45.3735 16.2622C42.334 16.236 39.2931 16.2404 36.2536 16.2622C35.4745 16.268 34.8739 16.7852 34.6853 17.4826C34.4807 18.2323 34.7418 19.0473 35.4063 19.396Z" fill="#FFC20E"/>
<path d="M63.1154 36.8278C65.8284 36.8234 67.7711 35.2892 68.4327 32.6696C68.453 32.5883 68.5081 32.5171 68.5473 32.4401C68.5473 20.2214 68.5473 17.134 68.5473 4.9153C68.4269 4.56225 68.3224 4.20339 68.1817 3.85905C67.4621 2.10107 66.165 1.03321 64.3167 0.630759C64.1687 0.598796 64.0265 0.543586 63.8814 0.5C52.2805 0.5 40.6797 0.5 29.0802 0.5C28.9874 0.552304 28.8989 0.610419 28.8031 0.655458C27.9588 1.04774 27.567 1.7887 27.7455 2.66334C27.9022 3.43045 28.5696 3.95785 29.4386 3.99708C29.6824 4.00725 29.9275 4.00289 30.1713 4.00289C41.0598 4.00289 51.9498 4.00289 62.8383 4.00289C64.4922 4.00289 65.0842 4.59712 65.0842 6.25485C65.0842 17.5597 65.0842 19.7317 65.0842 31.0366C65.0842 32.783 64.5111 33.3597 62.773 33.3597C57.6603 33.3597 52.5475 33.3597 47.4347 33.3597C46.9023 34.6775 45.6996 35.9662 43.2738 36.8292C44.4199 36.8292 45.5675 36.8307 46.7137 36.8307C52.1819 36.8307 57.6486 36.8379 63.1154 36.8278Z" fill="white"/>
<path d="M63.1154 36.8278C65.8284 36.8234 67.7711 35.2892 68.4327 32.6696C68.453 32.5883 68.5081 32.5171 68.5473 32.4401C68.5473 20.2214 68.5473 17.134 68.5473 4.9153C68.4269 4.56225 68.3224 4.20339 68.1817 3.85905C67.4621 2.10107 66.165 1.03321 64.3167 0.630759C64.1687 0.598796 64.0265 0.543586 63.8814 0.5C52.2805 0.5 40.6797 0.5 29.0802 0.5C28.9874 0.552304 28.8989 0.610419 28.8031 0.655458C27.9588 1.04774 27.567 1.7887 27.7455 2.66334C27.9022 3.43045 28.5696 3.95785 29.4386 3.99708C29.6824 4.00725 29.9275 4.00289 30.1713 4.00289C41.0598 4.00289 51.9498 4.00289 62.8383 4.00289C64.4922 4.00289 65.0842 4.59712 65.0842 6.25485C65.0842 17.5597 65.0842 19.7317 65.0842 31.0366C65.0842 32.783 64.5111 33.3597 62.773 33.3597C57.6603 33.3597 52.5475 33.3597 47.4347 33.3597C46.9023 34.6775 45.6996 35.9662 43.2738 36.8292C44.4199 36.8292 45.5675 36.8307 46.7137 36.8307C52.1819 36.8307 57.6486 36.8379 63.1154 36.8278Z" fill="#FFC20E"/>
<path d="M36.5791 11.8601C40.7096 11.8659 44.8416 11.8616 48.9721 11.8616C50.6827 11.8616 52.3918 11.8587 54.1023 11.863C54.8509 11.8645 55.4501 11.5899 55.8056 10.907C56.428 9.70987 55.5676 8.40083 54.1386 8.39356C51.1847 8.37903 48.2308 8.3892 45.2769 8.3892C42.3447 8.3892 39.414 8.38339 36.4819 8.39211C35.3952 8.39501 34.651 9.08368 34.6219 10.0702C34.5915 11.1279 35.3793 11.8587 36.5791 11.8601Z" fill="white"/>
<path d="M36.5791 11.8601C40.7096 11.8659 44.8416 11.8616 48.9721 11.8616C50.6827 11.8616 52.3918 11.8587 54.1023 11.863C54.8509 11.8645 55.4501 11.5899 55.8056 10.907C56.428 9.70987 55.5676 8.40083 54.1386 8.39356C51.1847 8.37903 48.2308 8.3892 45.2769 8.3892C42.3447 8.3892 39.414 8.38339 36.4819 8.39211C35.3952 8.39501 34.651 9.08368 34.6219 10.0702C34.5915 11.1279 35.3793 11.8587 36.5791 11.8601Z" fill="#FFC20E"/>
</svg>
