<svg width="65" height="71" viewBox="0 0 65 71" fill="none" xmlns="http://www.w3.org/2000/svg">
<path d="M63.8792 44.004C63.8241 43.8485 63.7574 43.696 63.6935 43.5434C62.427 40.4895 61.1647 37.434 59.8909 34.3815C58.736 31.6138 57.5725 28.849 56.4075 26.0842C54.9682 22.6684 52.3335 21.0194 48.6934 20.8843C46.6404 20.8088 44.5846 20.8146 42.536 20.6838C41.8687 20.6417 41.1621 20.3831 40.5803 20.0417C39.7911 19.5796 39.1048 18.9433 38.3765 18.3781C37.1592 17.4352 37.2013 16.6477 38.5085 15.8007C41.8179 13.6562 43.186 9.62307 41.8367 5.99233C40.4788 2.33689 36.8415 0.15901 32.9591 0.674781C28.962 1.20653 25.7542 4.86054 25.8834 8.73391C25.9487 10.6779 27.1978 12.0741 29.0143 12.2368C30.8119 12.3981 32.2801 11.2503 32.6573 9.38625C32.7182 9.0855 32.7284 8.77459 32.8096 8.47966C32.9983 7.7939 33.4335 7.49751 34.1168 7.55272C34.7538 7.60502 35.144 7.91448 35.3123 8.56101C35.514 9.33249 35.1571 9.79305 34.5463 10.1243C31.9 11.5612 30.6726 13.7943 30.6522 16.7901C30.6493 17.2812 30.3041 17.871 29.9384 18.2357C29.2899 18.8808 28.5007 19.382 27.7782 19.953C27.1238 20.4703 26.4042 20.7318 25.5555 20.7172C23.8072 20.6896 22.059 20.7056 20.3093 20.71C15.9988 20.7187 13.1117 22.6394 11.4388 26.6174C10.4044 29.0771 9.37431 31.5397 8.35437 34.0053C6.99204 37.3004 5.63407 40.5984 4.2877 43.9008C3.81182 45.0704 4.00333 45.5135 5.14949 46.0162C5.97066 46.3765 6.79763 46.7223 7.6275 47.0608C8.47479 47.4066 9.1828 47.177 9.47732 46.4797C9.78344 45.7547 9.41495 45.0559 8.5488 44.7057C8.0323 44.4979 7.5187 44.2815 6.98189 44.0606C7.06169 43.8035 7.10232 43.619 7.17341 43.449C9.39319 38.0806 11.5941 32.7035 13.8487 27.3496C14.9542 24.7243 16.9767 23.3295 19.8421 23.2423C20.9868 23.2075 22.133 23.2365 23.2574 23.2365C23.932 27.2479 25.9675 30.1261 29.5278 31.8492C31.3066 32.7093 33.2028 33.026 35.1745 32.7892C35.7287 32.7224 36.2438 32.4681 36.3163 31.8971C36.3656 31.5078 36.222 30.9847 35.9681 30.6956C35.7461 30.4443 35.2557 30.3905 34.8713 30.3266C33.551 30.1101 32.193 30.0462 30.909 29.7004C29.6802 29.3691 28.698 28.5352 27.8594 27.4644C29.6294 27.1114 31.0179 26.2469 32.2816 25.1427C33.3653 24.1954 34.851 24.2012 35.9377 25.1529C37.1622 26.2251 38.4955 27.091 40.1233 27.4179C40.2437 27.4426 40.3496 27.5443 40.4759 27.617C40.0406 28.0034 39.585 28.31 39.2615 28.7197C38.8901 29.189 38.9148 29.7367 39.3369 30.2103C39.7548 30.6782 40.2626 30.7784 40.8038 30.4661C41.107 30.2917 41.387 30.0622 41.6409 29.8181C43.3238 28.1938 44.3888 26.2309 44.7921 23.9208C44.8806 23.4109 44.9937 23.0535 45.6771 23.1406C46.5868 23.2583 47.5138 23.2351 48.4337 23.2787C51.2599 23.4123 53.2127 24.7286 54.2994 27.4063C56.4742 32.7674 58.7187 38.1009 60.9312 43.4475C61.0081 43.6335 61.0574 43.8325 61.1314 44.0635C58.9667 44.9585 56.8616 45.8288 54.6635 46.7383C54.6635 46.3722 54.6635 46.1179 54.6635 45.8636C54.6635 43.4969 54.665 41.1316 54.6607 38.7649C54.6607 38.483 54.6534 38.1954 54.6026 37.9179C54.4808 37.2612 54.0411 36.9473 53.3984 36.9415C52.7383 36.9343 52.3306 37.2844 52.2276 37.9396C52.1725 38.2883 52.1536 38.6443 52.1522 38.9973C52.1478 48.3437 52.1493 57.6915 52.1493 67.0379C52.1493 67.3662 52.1493 67.6946 52.1493 68.1275C50.8392 68.1275 49.6393 68.1319 48.438 68.1261C47.3949 68.1203 46.8305 68.5547 46.8218 69.3872C46.8131 70.227 47.3818 70.7006 48.396 70.6977C50.2153 70.6933 52.0347 70.6933 53.854 70.6861C54.1035 70.6846 54.3531 70.6614 54.6607 70.6454C54.6607 70.2909 54.6607 70.0105 54.6607 69.7301C54.6491 63.7907 54.6258 57.8528 54.6302 51.9134C54.6316 49.0033 54.3125 49.6222 56.9008 48.5355C58.945 47.6768 61.0022 46.8472 63.0421 45.9755C64.0766 45.5368 64.2521 45.0602 63.8792 44.004ZM40.0986 24.7228C39.1846 24.3189 38.2532 23.793 37.551 23.0985C35.7896 21.3536 32.0305 21.7546 30.5507 23.206C29.5975 24.1417 28.4571 24.6197 27.2254 24.9873C26.4739 25.2125 26.2287 25.0904 26.0618 24.3436C25.9907 24.0225 25.9327 23.7 25.8427 23.2453C27.6403 23.3513 28.8619 22.4142 30.0226 21.326C30.381 20.9889 30.8017 20.71 31.2181 20.4456C32.4963 19.6363 33.1985 18.5205 33.1564 16.9761C33.0983 14.8316 34.0051 13.2654 35.9043 12.2368C37.6612 11.2852 38.3664 9.50393 37.7889 7.67185C37.2492 5.96036 35.5227 4.79806 33.7556 4.95788C31.8884 5.12641 30.5057 6.51827 30.2547 8.47529C30.2271 8.68451 30.2344 8.95328 30.1096 9.08404C29.8586 9.34846 29.5119 9.72621 29.2348 9.70297C28.9504 9.67827 28.5384 9.26565 28.4717 8.9591C28.254 7.9784 28.5369 7.03548 28.9968 6.16085C30.1169 4.03529 32.6152 2.7713 34.9337 3.13887C37.3275 3.51808 39.2963 5.3734 39.733 7.66023C40.2132 10.1795 39.2934 12.7308 36.9634 13.7057C34.1676 14.8767 34.6537 19.2644 36.9068 20.4121C37.4451 20.6867 37.9209 21.1037 38.3765 21.5105C39.4922 22.5028 40.6528 23.3687 42.2299 23.2772C42.2604 23.3702 42.2923 23.4138 42.2865 23.453C42.0326 25.3141 41.8222 25.4827 40.0986 24.7228Z" fill="white"/>
<path d="M17.5424 44.4243C20.978 41.9036 24.7109 41.597 28.4773 43.5845C31.6474 45.2568 33.4217 47.9897 33.8802 51.6887H36.2552C36.2538 51.2543 36.2277 50.8242 36.1508 50.4029C34.8929 43.4727 28.7094 39.0559 21.7396 40.0192C16.2889 40.7718 11.739 45.328 11.1297 50.7865C11.0963 51.0857 11.0746 51.3865 11.0586 51.6887H13.4916C13.7557 48.6028 15.1398 46.1881 17.5424 44.4243Z" fill="white"/>
<path d="M46.2296 61.7363C45.407 61.2743 44.5685 60.8399 43.7386 60.388C42.9609 59.9652 42.1876 59.5381 41.2446 59.0223C41.4752 58.9453 41.6494 58.8872 41.8002 58.8364C39.6878 59.3725 37.1329 59.063 35.4267 58.7289C38.2472 60.2268 41.0545 61.7537 43.8648 63.2734C43.9446 63.317 44.0171 63.3766 44.139 63.4623C41.3041 67.6931 35.6037 69.4351 30.6332 67.6248C27.6198 66.5264 24.6325 65.3525 21.5959 64.3239C17.0737 62.7926 12.3962 62.0501 7.63164 61.8467C7.46625 61.8395 7.30087 61.838 7.13692 61.822C6.94977 61.8046 6.7655 61.7741 6.45792 61.7348C6.6712 61.5808 6.79596 61.4661 6.94105 61.3876C8.62256 60.4767 10.2925 59.5439 11.9972 58.6823C12.4818 58.4383 13.0708 58.3075 13.6163 58.2944C11.1514 58.2944 10.9337 56.9433 10.9889 56.2343C10.9163 56.4013 10.7858 56.5292 10.5696 56.6367C9.76582 57.0333 8.98528 57.4765 8.19602 57.9036C5.8921 59.1502 3.57947 60.3837 1.28715 61.6535C0.139539 62.2884 -0.044712 62.9553 0.548679 63.9679C3.62445 69.2085 9.90656 71.9529 15.7621 70.4289C18.2634 69.778 20.6601 68.7334 23.1237 67.9256C23.572 67.7788 24.1566 67.789 24.605 67.943C26.0326 68.4312 27.4341 68.9978 28.8283 69.576C31.2977 70.6003 33.8424 71.0754 36.5091 70.7035C41.0545 70.07 44.5191 67.7803 46.8564 63.8226C47.428 62.855 47.2365 62.3029 46.2296 61.7363ZM13.1579 68.3367C9.53515 68.4355 6.52466 67.1802 4.06114 64.5505C4.00021 64.4851 3.95524 64.4038 3.81887 64.2091C9.31898 64.1815 14.5797 64.8542 19.9072 66.3594C17.6105 67.2282 15.5547 68.2714 13.1579 68.3367Z" fill="white"/>
<path d="M43.9697 57.9121C43.7521 58.0138 43.5171 58.1315 43.2617 58.2724C43.504 58.1605 43.7405 58.0414 43.9697 57.9121Z" fill="black"/>
<path d="M33.5337 58.2773L33.5234 58.289C33.5395 58.289 33.5556 58.289 33.5716 58.289C33.5483 58.2817 33.5337 58.2773 33.5337 58.2773Z" fill="black"/>
<path opacity="0.5" d="M10.9883 56.2368C11.0391 56.1176 11.0623 55.9796 11.0623 55.8125C11.0623 55.8111 11.0071 55.984 10.9883 56.2368Z" fill="black"/>
<path opacity="0.5" d="M41.7988 58.8376C42.3168 58.7054 42.8101 58.5238 43.2555 58.2768C43.2584 58.2754 43.2598 58.2739 43.2627 58.2725C42.8957 58.4424 42.517 58.5935 42.1253 58.7272C42.0223 58.7621 41.9178 58.797 41.7988 58.8376Z" fill="black"/>
<path d="M13.6161 58.2955C15.505 58.249 17.3955 58.2853 19.2859 58.2737C20.1448 58.2679 20.7281 57.7666 20.6976 57.1056C20.67 56.5055 20.2159 56.1103 19.4658 56.1031C17.7408 56.0871 16.0157 56.1074 14.2921 56.0827C13.9889 56.0784 13.4478 55.9694 13.4289 55.8445C13.3433 55.2982 13.3752 54.7228 13.4579 54.1737C13.471 54.0865 13.9628 54.0298 14.2327 54.0298C18.2964 54.0211 22.3602 54.024 26.424 54.024C28.6917 54.024 30.9608 54.0429 33.2284 54.0124C33.8595 54.0037 34.1004 54.2245 34.0235 54.8347C34.0061 54.9742 34.0047 55.1209 34.0235 55.2604C34.1207 55.9447 33.7739 56.1089 33.1602 56.1031C31.412 56.0871 29.6637 56.0973 27.9155 56.1234C27.1335 56.135 26.7737 56.4895 26.7621 57.1637C26.749 57.9293 27.103 58.2693 27.9808 58.2751C29.8291 58.2853 31.6775 58.2679 33.5244 58.2882L33.5346 58.2766C33.5346 58.2766 33.5476 58.2809 33.5723 58.2882C33.6927 58.2897 33.8131 58.2897 33.9335 58.2911C34.3369 58.2969 34.7823 58.3884 35.1348 58.5759C35.232 58.6267 35.3278 58.679 35.4236 58.7299C37.1283 59.064 39.6846 59.3735 41.7971 58.8374C41.916 58.7982 42.019 58.7633 42.1235 58.727C42.5152 58.5933 42.8939 58.4422 43.261 58.2722C43.5163 58.1313 43.7513 58.0136 43.969 57.9119C44.9831 57.3424 45.8754 56.5985 46.595 55.6265C46.8474 55.2851 46.9316 54.6952 46.8532 54.2637C46.7546 53.7175 46.1902 53.6768 45.6969 53.6797C45.0353 53.684 44.3737 53.6637 43.7122 53.684C43.187 53.7 42.8649 53.5533 42.8039 52.959C42.7532 52.4694 42.5936 51.9914 42.492 51.5062C42.3788 50.9642 42.1583 50.4165 41.562 50.415C41.1573 50.4136 40.6625 50.6548 40.3622 50.9468C39.3626 51.9173 38.4442 52.9707 37.4707 53.9703C37.1384 54.3117 36.7395 54.5863 36.371 54.8914C36.3086 54.858 36.2462 54.8231 36.1838 54.7897C36.1838 54.5412 36.1838 54.2913 36.1838 54.0429C36.1823 53.2627 36.2563 52.4694 36.252 51.6892H33.877C28.3203 51.6892 22.8651 51.6892 17.3578 51.6892C16.0709 51.6892 14.7825 51.6892 13.4898 51.6892H11.0568C10.9828 53.0564 11.0582 54.4395 11.0611 55.8125C11.0611 55.981 11.0394 56.1191 10.9871 56.2367C10.9335 56.9457 11.1511 58.2955 13.6161 58.2955ZM40.751 53.9949C40.9425 55.3432 41.5403 56.0682 42.8866 55.8532C42.2555 56.7845 39.4192 57.2523 37.7884 56.6523C38.7968 55.7486 39.7079 54.9306 40.751 53.9949Z" fill="black"/>
<path d="M13.6161 58.2955C15.505 58.249 17.3955 58.2853 19.2859 58.2737C20.1448 58.2679 20.7281 57.7666 20.6976 57.1056C20.67 56.5055 20.2159 56.1103 19.4658 56.1031C17.7408 56.0871 16.0157 56.1074 14.2921 56.0827C13.9889 56.0784 13.4478 55.9694 13.4289 55.8445C13.3433 55.2982 13.3752 54.7228 13.4579 54.1737C13.471 54.0865 13.9628 54.0298 14.2327 54.0298C18.2964 54.0211 22.3602 54.024 26.424 54.024C28.6917 54.024 30.9608 54.0429 33.2284 54.0124C33.8595 54.0037 34.1004 54.2245 34.0235 54.8347C34.0061 54.9742 34.0047 55.1209 34.0235 55.2604C34.1207 55.9447 33.7739 56.1089 33.1602 56.1031C31.412 56.0871 29.6637 56.0973 27.9155 56.1234C27.1335 56.135 26.7737 56.4895 26.7621 57.1637C26.749 57.9293 27.103 58.2693 27.9808 58.2751C29.8291 58.2853 31.6775 58.2679 33.5244 58.2882L33.5346 58.2766C33.5346 58.2766 33.5476 58.2809 33.5723 58.2882C33.6927 58.2897 33.8131 58.2897 33.9335 58.2911C34.3369 58.2969 34.7823 58.3884 35.1348 58.5759C35.232 58.6267 35.3278 58.679 35.4236 58.7299C37.1283 59.064 39.6846 59.3735 41.7971 58.8374C41.916 58.7982 42.019 58.7633 42.1235 58.727C42.5152 58.5933 42.8939 58.4422 43.261 58.2722C43.5163 58.1313 43.7513 58.0136 43.969 57.9119C44.9831 57.3424 45.8754 56.5985 46.595 55.6265C46.8474 55.2851 46.9316 54.6952 46.8532 54.2637C46.7546 53.7175 46.1902 53.6768 45.6969 53.6797C45.0353 53.684 44.3737 53.6637 43.7122 53.684C43.187 53.7 42.8649 53.5533 42.8039 52.959C42.7532 52.4694 42.5936 51.9914 42.492 51.5062C42.3788 50.9642 42.1583 50.4165 41.562 50.415C41.1573 50.4136 40.6625 50.6548 40.3622 50.9468C39.3626 51.9173 38.4442 52.9707 37.4707 53.9703C37.1384 54.3117 36.7395 54.5863 36.371 54.8914C36.3086 54.858 36.2462 54.8231 36.1838 54.7897C36.1838 54.5412 36.1838 54.2913 36.1838 54.0429C36.1823 53.2627 36.2563 52.4694 36.252 51.6892H33.877C28.3203 51.6892 22.8651 51.6892 17.3578 51.6892C16.0709 51.6892 14.7825 51.6892 13.4898 51.6892H11.0568C10.9828 53.0564 11.0582 54.4395 11.0611 55.8125C11.0611 55.981 11.0394 56.1191 10.9871 56.2367C10.9335 56.9457 11.1511 58.2955 13.6161 58.2955ZM40.751 53.9949C40.9425 55.3432 41.5403 56.0682 42.8866 55.8532C42.2555 56.7845 39.4192 57.2523 37.7884 56.6523C38.7968 55.7486 39.7079 54.9306 40.751 53.9949Z" fill="#FFC20E"/>
<path d="M23.6544 58.2769C24.2043 58.2871 24.6787 57.8367 24.715 57.2715C24.7643 56.5117 24.3972 56.1252 23.5848 56.0831C22.9537 56.0497 22.5735 56.4318 22.5474 57.1204C22.5271 57.6856 23.0828 58.2668 23.6544 58.2769Z" fill="black"/>
<path d="M23.6544 58.2769C24.2043 58.2871 24.6787 57.8367 24.715 57.2715C24.7643 56.5117 24.3972 56.1252 23.5848 56.0831C22.9537 56.0497 22.5735 56.4318 22.5474 57.1204C22.5271 57.6856 23.0828 58.2668 23.6544 58.2769Z" fill="#FFC20E"/>
</svg>
