<svg width="15" height="15" viewBox="0 0 15 15" fill="none" xmlns="http://www.w3.org/2000/svg">
<path d="M10.9159 9.66689H10.2576L10.0242 9.44189C10.545 8.83686 10.9257 8.1242 11.1389 7.3549C11.3521 6.5856 11.3926 5.77868 11.2576 4.99189C10.8659 2.67522 8.93258 0.825223 6.59925 0.54189C5.77893 0.438111 4.94574 0.523366 4.16343 0.791131C3.38113 1.0589 2.67045 1.50207 2.08577 2.08675C1.5011 2.67143 1.05792 3.38211 0.790154 4.16441C0.52239 4.94671 0.437135 5.7799 0.540913 6.60022C0.824247 8.93356 2.67425 10.8669 4.99091 11.2586C5.77771 11.3936 6.58463 11.3531 7.35392 11.1398C8.12322 10.9266 8.83589 10.546 9.44091 10.0252L9.66591 10.2586V10.9169L13.2076 14.4586C13.5492 14.8002 14.1076 14.8002 14.4492 14.4586C14.7909 14.1169 14.7909 13.5586 14.4492 13.2169L10.9159 9.66689ZM5.91591 9.66689C3.84091 9.66689 2.16591 7.99189 2.16591 5.91689C2.16591 3.84189 3.84091 2.16689 5.91591 2.16689C7.99091 2.16689 9.66591 3.84189 9.66591 5.91689C9.66591 7.99189 7.99091 9.66689 5.91591 9.66689Z" fill="white"/>
</svg>
