<svg width="12" height="12" viewBox="0 0 12 12" fill="none" xmlns="http://www.w3.org/2000/svg">
<path d="M8.33429 7.33332H7.80763L7.62096 7.15332C8.03759 6.66929 8.34209 6.09917 8.51266 5.48373C8.68323 4.86829 8.71566 4.22275 8.60763 3.59332C8.29429 1.73998 6.74763 0.259983 4.88096 0.0333165C4.2247 -0.0497063 3.55815 0.0184976 2.93231 0.232709C2.30647 0.446921 1.73792 0.801462 1.27018 1.2692C0.802439 1.73695 0.447897 2.30549 0.233686 2.93133C0.0194742 3.55718 -0.0487297 4.22373 0.0342931 4.87998C0.26096 6.74665 1.74096 8.29332 3.59429 8.60665C4.22373 8.71468 4.86926 8.68226 5.4847 8.51168C6.10014 8.34111 6.67027 8.03662 7.15429 7.61998L7.33429 7.80665V8.33332L10.1676 11.1667C10.441 11.44 10.8876 11.44 11.161 11.1667C11.4343 10.8933 11.4343 10.4467 11.161 10.1733L8.33429 7.33332ZM4.33429 7.33332C2.67429 7.33332 1.33429 5.99332 1.33429 4.33332C1.33429 2.67332 2.67429 1.33332 4.33429 1.33332C5.99429 1.33332 7.33429 2.67332 7.33429 4.33332C7.33429 5.99332 5.99429 7.33332 4.33429 7.33332Z" fill="#1E1E1E"/>
</svg>
