<svg width="73" height="64" viewBox="0 0 73 64" fill="none" xmlns="http://www.w3.org/2000/svg">
<path d="M70.6864 17.2105C70.3803 17.2004 70.0742 17.2091 69.768 17.2091C68.0401 17.2091 66.3121 17.2091 64.5073 17.2091C64.5073 17.1713 64.5073 17.1379 64.5073 17.103H60.1519C60.1519 17.1147 60.1519 17.1263 60.1519 17.1394C55.9967 17.1394 51.8778 17.1394 47.7095 17.1394C47.7095 17.1277 47.7095 17.1161 47.7095 17.103H43.3033C40.5714 17.103 37.8598 17.103 35.0916 17.103H30.6826C30.6811 17.1147 30.6811 17.1263 30.6796 17.1379C28.2582 17.1379 25.9238 17.1379 23.6112 17.1379C23.5662 17.0478 23.5285 17.0057 23.5241 16.9592C23.144 13.5595 22.7059 10.1655 22.4041 6.75854C22.0443 2.68031 19.5822 0.322291 15.5213 0.317933C11.6433 0.313574 7.76516 0.29614 3.88708 0.300498C3.40831 0.300498 2.91212 0.341179 2.45511 0.473391C1.48885 0.752343 1.03329 1.49331 0.949142 2.43623C0.864994 3.38932 1.71519 4.20148 2.45801 4.40343C2.89471 4.52256 3.36043 4.57777 3.81454 4.57922C7.79563 4.5923 11.7753 4.58068 15.7564 4.59085C17.1651 4.59375 17.9355 5.2461 18.0893 6.60163C18.6653 11.6751 19.221 16.75 19.7839 21.8249C20.4919 28.1929 21.1912 34.5623 21.9152 40.9288C22.0559 42.1681 22.2314 43.3696 20.6616 43.8505C20.6152 43.865 20.5789 43.9086 20.5383 43.9406C18.5202 45.5155 17.6439 48.1932 18.3403 50.666C19.0367 53.1402 21.0954 54.9476 23.6315 55.2338C24.663 55.35 25.7091 55.3399 26.8001 55.3907C26.0979 58.5173 26.8291 61.0962 29.6263 62.8483C31.8113 64.217 34.0209 64.1545 36.187 62.8004C38.9712 61.0584 39.6255 58.4795 38.9625 55.3922C43.3425 55.3922 47.6747 55.3922 52.078 55.3922C52.004 55.8818 51.9344 56.3089 51.8734 56.7361C51.4048 60.0719 54.0744 63.4353 57.4287 63.7927C60.1446 64.0818 63.969 62.2018 64.4536 58.2703C64.8685 54.8997 62.7808 51.8283 59.3438 51.2224C57.9539 50.9769 56.5001 51.051 55.074 51.0495C45.2243 51.0364 35.376 51.0437 25.5263 51.0423C25.0925 51.0423 24.6543 51.08 24.2278 51.0234C23.1368 50.8795 22.3707 49.9904 22.3751 48.9312C22.3809 47.8517 23.1368 47.0352 24.2742 46.9103C24.679 46.8652 25.0881 46.8551 25.4958 46.8551C37.8714 46.8522 50.2471 46.8551 62.6227 46.8522C66.0699 46.8507 68.4666 45.0273 69.2022 41.8296C69.3908 41.0101 69.4967 40.1718 69.636 39.3422C70.7227 32.8493 71.8166 26.3564 72.8902 19.8606C73.1456 18.3278 72.2301 17.2628 70.6864 17.2105ZM58.1802 55.337C59.3235 55.3457 60.2578 56.3017 60.2404 57.4436C60.223 58.5711 59.2306 59.53 58.112 59.4995C56.9949 59.469 56.0576 58.4679 56.0881 57.3376C56.1171 56.2407 57.0718 55.3283 58.1802 55.337ZM32.9067 55.337C34.0151 55.3486 34.9436 56.2741 34.9567 57.3826C34.9712 58.5071 34.0021 59.4966 32.8849 59.4995C31.762 59.5024 30.7943 58.526 30.8015 57.3972C30.8102 56.2436 31.7475 55.3253 32.9067 55.337ZM67.7194 24.9646C66.8634 30.1237 66.0089 35.2829 65.1384 40.4392C64.8773 41.9879 64.2259 42.5342 62.6648 42.6068C62.4616 42.6156 62.257 42.6098 62.0525 42.6098C50.4966 42.6098 38.9407 42.6098 27.3848 42.6098C27.0816 42.6098 26.7783 42.6098 26.3576 42.6098C25.5756 35.5546 24.8038 28.5866 24.0247 21.5561C38.7913 21.5561 53.4693 21.5561 68.2577 21.5561C68.0749 22.7184 67.9066 23.8429 67.7194 24.9646Z" fill="white"/>
<path d="M45.5497 38.3676C46.7887 38.3575 47.5983 37.5221 47.6331 36.1331C47.6679 34.7572 47.6404 33.3799 47.6404 32.0026C47.6404 30.6514 47.6621 29.3002 47.6345 27.9491C47.607 26.5703 46.796 25.7131 45.5628 25.6927C44.2875 25.6724 43.4184 26.5165 43.3996 27.936C43.3618 30.663 43.3618 33.393 43.3981 36.12C43.4155 37.5482 44.2642 38.3778 45.5497 38.3676Z" fill="white"/>
<path d="M33.0478 38.3658C34.1969 38.312 34.9673 37.4403 34.9803 36.1414C34.9934 34.7626 34.9832 33.3824 34.9832 32.0022C34.9832 30.6481 34.9934 29.294 34.9803 27.9399C34.9673 26.6091 34.1751 25.7344 32.9796 25.6923C31.7406 25.6487 30.8179 26.4158 30.7889 27.7409C30.725 30.6001 30.7236 33.4623 30.7859 36.323C30.8164 37.6713 31.7536 38.4268 33.0478 38.3658Z" fill="white"/>
<path d="M56.0659 36.0922C56.0789 37.4477 56.8508 38.3267 58.0303 38.3674C59.3346 38.4125 60.2283 37.6787 60.2602 36.2927C60.327 33.4596 60.3241 30.6236 60.2602 27.7905C60.2298 26.4189 59.2998 25.6373 58.0376 25.6954C56.8537 25.7506 56.0775 26.634 56.0659 27.9721C56.0543 29.3262 56.063 30.6788 56.063 32.0329C56.063 33.3869 56.0514 34.7381 56.0659 36.0922Z" fill="white"/>
<path d="M35.0902 13.0759C37.8613 13.0759 40.5569 13.0759 43.3019 13.0759C43.3019 14.4198 43.3019 15.7332 43.3019 17.1033H47.7081C47.7081 14.3269 47.7081 11.6143 47.7081 8.88147C51.8706 8.88147 55.9895 8.88147 60.1505 8.88147C60.1505 11.6419 60.1505 14.3501 60.1505 17.1033H64.5059C64.5059 16.804 64.5059 16.5556 64.5059 16.31C64.5059 13.1675 64.516 10.0234 64.5015 6.88086C64.4943 5.3655 63.6905 4.54318 62.1846 4.54027C56.699 4.52719 51.2119 4.52719 45.7263 4.53882C44.2261 4.54172 43.4282 5.35388 43.3817 6.86633C43.3629 7.47218 43.3788 8.07803 43.3788 8.75071C43.0234 8.75071 42.7492 8.75071 42.475 8.75071C39.4384 8.75071 36.4018 8.74781 33.3652 8.75216C31.5197 8.75507 30.7595 9.50621 30.7464 11.3514C30.7363 12.9873 30.7479 14.6218 30.7406 16.2577C30.7392 16.541 30.7029 16.8229 30.6797 17.1033H35.0888C35.0902 15.7638 35.0902 14.4503 35.0902 13.0759Z" fill="#FFC20E"/>
</svg>
