<svg width="13" height="7" viewBox="0 0 13 7" fill="none" xmlns="http://www.w3.org/2000/svg">
<path d="M12.7427 1.38709L6.98021 6.82257C6.91161 6.88709 6.83729 6.93289 6.75726 6.95999C6.67722 6.98709 6.59147 7.00042 6.5 6.99999C6.40853 6.99999 6.32278 6.98666 6.24274 6.95999C6.16271 6.93332 6.08839 6.88752 6.01979 6.82257L0.240105 1.38709C0.0800349 1.23656 -2.60153e-07 1.04839 -2.70024e-07 0.82258C-2.79894e-07 0.596774 0.0857517 0.403226 0.257256 0.241936C0.42876 0.0806455 0.628847 4.49349e-07 0.857519 4.39354e-07C1.08619 4.29358e-07 1.28628 0.0806455 1.45778 0.241936L6.5 4.98386L11.5422 0.241935C11.7023 0.0913977 11.8996 0.0161285 12.1342 0.0161285C12.3689 0.0161285 12.5717 0.0967736 12.7427 0.258064C12.9142 0.419354 13 0.607526 13 0.822579C13 1.03763 12.9142 1.2258 12.7427 1.38709Z" fill="#1E1E1E"/>
</svg>
