<svg width="69" height="69" viewBox="0 0 69 69" fill="none" xmlns="http://www.w3.org/2000/svg">
<path d="M67.8191 28.4971C67.6741 27.6646 67.2316 27.1678 66.4655 26.9774L65.9722 26.8568C65.257 26.6825 64.517 26.5009 63.8061 26.28C63.6465 26.2307 63.4391 26.0258 63.3607 25.8413C62.9864 24.9652 62.6179 24.0673 62.2596 23.1999C61.8446 22.1931 61.4166 21.1528 60.977 20.1358C60.8406 19.8191 60.8493 19.6564 61.0176 19.4108C61.3122 18.9822 61.5936 18.5362 61.8664 18.1047C62.0477 17.817 62.2291 17.5294 62.4148 17.2461C62.8486 16.5821 62.8428 15.9167 62.3945 15.2672C60.0122 11.8094 57.0438 8.8397 53.572 6.43955C52.9162 5.98625 52.2502 5.97172 51.5945 6.39887L51.1679 6.67782C50.5687 7.0701 49.9492 7.47545 49.3225 7.83722C49.1933 7.91131 48.9351 7.92294 48.7784 7.86046C47.921 7.51613 47.0519 7.15582 46.2119 6.80567C45.1615 6.36981 44.0762 5.91796 42.9997 5.49372C42.6762 5.36587 42.5572 5.24092 42.4919 4.95616C42.3889 4.51303 42.2714 4.067 42.1568 3.63695C42.0494 3.23159 41.9392 2.81316 41.8419 2.40055C41.6562 1.61599 41.1905 1.16851 40.4172 1.03194C36.4013 0.322931 32.3158 0.322931 28.2738 1.03048C27.4961 1.16705 27.0289 1.61309 26.8447 2.39473C26.6474 3.23595 26.4312 4.13092 26.1628 4.99103C26.1091 5.16247 25.9118 5.37749 25.742 5.45159C23.8922 6.24341 21.9873 7.03087 19.9169 7.85756C19.7574 7.92148 19.4991 7.91277 19.3729 7.84157C18.7389 7.4769 18.1136 7.06864 17.5086 6.67201L17.1009 6.40613C16.4393 5.97608 15.7734 5.98625 15.1234 6.43664C11.6385 8.84697 8.67008 11.8166 6.29796 15.2629C5.84675 15.9181 5.8366 16.5821 6.2646 17.2402C6.4445 17.5163 6.62005 17.7952 6.79561 18.0742C7.08432 18.5333 7.38319 19.0069 7.69802 19.4617C7.85616 19.6898 7.83875 19.8351 7.71253 20.13C6.887 22.0565 6.09339 23.9801 5.35347 25.8514C5.23595 26.1493 5.11989 26.2597 4.85584 26.3207C4.45686 26.4137 4.05497 26.5212 3.6676 26.6244C3.22219 26.7421 2.76083 26.8656 2.30672 26.9658C1.44202 27.159 0.970504 27.6821 0.863142 28.564C0.751428 29.4807 0.625207 30.412 0.501886 31.3128C0.449656 31.6964 0.397432 32.0814 0.345202 32.465L0.34375 36.4589L0.345202 36.4909C0.397432 36.8773 0.449656 37.2638 0.501886 37.6503C0.623756 38.5496 0.751427 39.4794 0.86169 40.3948C0.969052 41.2738 1.44202 41.7953 2.30962 41.9886C3.26572 42.2021 4.11446 42.4244 4.90081 42.6671C5.04734 42.7121 5.23886 42.8966 5.3085 43.0608C6.13257 44.9946 6.94213 46.956 7.71543 48.8912C7.77927 49.0525 7.77056 49.3154 7.69657 49.4433C7.33241 50.0767 6.92183 50.7029 6.52575 51.3073L6.2588 51.7156C5.83226 52.3708 5.8453 53.0362 6.29941 53.6929C8.67878 57.1435 11.6487 60.1118 15.1278 62.5177C15.7676 62.9594 16.4132 62.9783 17.0472 62.5744C17.2619 62.4364 17.4766 62.2983 17.6914 62.1589C18.2398 61.8029 18.8071 61.4353 19.3787 61.1055C19.5006 61.0358 19.7603 61.0314 19.9228 61.0954C21.877 61.8756 23.8371 62.6848 25.7493 63.4984C25.9162 63.5696 26.1019 63.7585 26.1468 63.9023C26.4283 64.8017 26.6372 65.6066 26.7867 66.3635C26.984 67.3616 27.5846 67.8919 28.6263 67.9835C29.9901 68.1026 31.3524 68.2319 32.7148 68.3627L33.4765 68.4353C33.6041 68.4469 33.7303 68.4687 33.858 68.4905C33.9204 68.5007 33.9813 68.5108 34.0437 68.521L34.6226 68.5239L34.6386 68.521C34.7068 68.5108 34.7764 68.5007 34.8446 68.4905C34.9882 68.4687 35.1304 68.4469 35.274 68.4339C35.6817 68.3946 36.0879 68.3554 36.4956 68.3147C37.6403 68.2028 38.8257 68.0866 39.9907 67.9951C41.0904 67.9094 41.7273 67.334 41.9377 66.2356C42.0813 65.4918 42.2772 64.7276 42.5369 63.9009C42.5819 63.7585 42.769 63.5696 42.9359 63.4984C44.8582 62.6805 46.8183 61.8712 48.761 61.0939C48.9249 61.0285 49.1846 61.0329 49.3065 61.1026C49.9376 61.4658 50.5615 61.8741 51.165 62.2693L51.5785 62.5395C52.2415 62.9725 52.9075 62.9638 53.5574 62.5163C57.0264 60.1219 59.9963 57.1537 62.3858 53.6929C62.8384 53.0377 62.8515 52.3708 62.4235 51.7141C62.2479 51.4424 62.0753 51.1693 61.9026 50.8962C61.611 50.4327 61.3078 49.9532 60.9915 49.4927C60.8421 49.2747 60.8377 49.1367 60.9712 48.8244C61.8098 46.8673 62.6034 44.9423 63.3303 43.1029C63.4434 42.8182 63.5653 42.7048 63.8352 42.6409C64.2965 42.5305 64.755 42.4099 65.2149 42.2893C65.6269 42.1818 66.0375 42.0743 66.451 41.9726C67.2287 41.7823 67.6755 41.2897 67.8177 40.4645C68.5054 36.4822 68.5054 32.4577 67.8191 28.4971ZM64.9334 38.8416C64.8986 39.1031 64.8145 39.1961 64.562 39.2542C64.0818 39.3647 63.5987 39.4911 63.1301 39.6117C62.734 39.7148 62.3393 39.8165 61.9418 39.9124C61.2585 40.0766 60.8261 40.5008 60.6564 41.172C60.0311 43.655 59.0343 46.0639 57.6952 48.3318C57.3311 48.9493 57.3499 49.5755 57.7533 50.1915C57.939 50.4748 58.1203 50.761 58.3017 51.0473C58.5744 51.4788 58.8573 51.9248 59.1519 52.3549C59.3042 52.5771 59.3013 52.6716 59.1403 52.8881C57.2759 55.3768 55.1098 57.5242 52.7058 59.2705C52.6362 59.3214 52.3939 59.333 52.2981 59.2778C51.5727 58.8594 50.8574 58.3872 50.1654 57.931L50.0827 57.8758C49.4559 57.4632 48.8118 57.4486 48.1647 57.8351C46.0131 59.1194 43.6265 60.106 41.0716 60.7714C40.3737 60.953 39.9501 61.3859 39.7774 62.0935L39.7165 62.3463C39.5279 63.1207 39.3335 63.9227 39.0926 64.6912C39.0564 64.8075 38.8489 64.9862 38.7299 65.0051C35.8166 65.4482 32.8598 65.4482 29.9408 65.0036C29.8262 64.9862 29.6245 64.8031 29.5868 64.6811C29.3532 63.9299 29.1617 63.1468 28.9774 62.3899L28.902 62.0833C28.7293 61.3787 28.3028 60.9472 27.5991 60.7641C25.0587 60.1045 22.6735 59.1165 20.5074 57.8264C20.2013 57.6448 19.8952 57.5532 19.5905 57.5532C19.2539 57.5532 18.9188 57.6637 18.588 57.886C18.2485 58.1141 17.8959 58.3363 17.555 58.5514C17.1836 58.7853 16.7991 59.0279 16.4277 59.2793C16.2115 59.4246 16.1419 59.426 15.9547 59.2865C13.513 57.4603 11.3541 55.3042 9.53478 52.8793C9.37954 52.6716 9.37955 52.5771 9.53769 52.3447C9.83946 51.9016 10.1296 51.4424 10.4111 50.9993C10.5852 50.7262 10.7578 50.4516 10.9348 50.1799C11.3324 49.5697 11.3469 48.9435 10.9798 48.3202C9.64069 46.0508 8.64686 43.6419 8.02301 41.159C7.85616 40.495 7.42092 40.0737 6.72887 39.9051C6.3415 39.8107 5.95701 39.7105 5.57109 39.6087C5.11553 39.4896 4.64401 39.3661 4.17539 39.2557C3.87362 39.1845 3.78222 39.093 3.74595 38.8242C3.36003 35.9344 3.36002 33.0098 3.74304 30.1331C3.77932 29.8556 3.87652 29.7524 4.15653 29.687C4.60339 29.5824 5.05315 29.4633 5.48695 29.3485C5.88738 29.2425 6.29942 29.1335 6.70711 29.0362C7.41366 28.8676 7.86052 28.4303 8.03462 27.7329C8.65268 25.2747 9.63924 22.8861 10.9697 20.6342C11.3469 19.9949 11.3266 19.3484 10.9102 18.7149L10.7941 18.5391C10.369 17.8955 9.93086 17.2301 9.53914 16.5559C9.47095 16.4383 9.46803 16.1971 9.50721 16.139C11.3643 13.5833 13.5449 11.4113 16.1723 9.50367C16.39 9.64314 16.6061 9.77971 16.8209 9.91483C17.4259 10.2984 17.999 10.6616 18.572 11.0423C19.2206 11.4709 19.8662 11.4854 20.5466 11.0844C22.7533 9.78407 25.0993 8.81355 27.5179 8.20044C28.2955 8.00284 28.7583 7.52485 28.9295 6.73593C29.0267 6.29281 29.1472 5.84532 29.2647 5.41236C29.3619 5.0535 29.462 4.68302 29.549 4.31399C29.6172 4.02196 29.6796 3.93769 29.9799 3.89701C32.8874 3.50619 35.8283 3.50764 38.7198 3.90137C38.9969 3.93914 39.0593 4.02196 39.1187 4.27185C39.2537 4.82831 39.3973 5.3833 39.5409 5.9383C39.6236 6.25648 39.7063 6.57321 39.7861 6.89284C39.9559 7.56407 40.3824 7.99122 41.0527 8.16411C43.5917 8.81645 45.9783 9.80296 48.1458 11.096C48.8074 11.4912 49.4734 11.4694 50.1233 11.0335C50.4483 10.8156 50.7863 10.602 51.1128 10.3957C51.4798 10.1633 51.8614 9.92355 52.2285 9.67365C52.4505 9.52255 52.5346 9.50657 52.7566 9.67365C55.1809 11.4898 57.3238 13.6313 59.1257 16.0387C59.2969 16.2668 59.3028 16.3613 59.1577 16.5705C58.8646 16.9947 58.586 17.4364 58.3147 17.8635C58.1305 18.1541 57.9462 18.4461 57.7576 18.7323C57.3412 19.3643 57.3282 19.992 57.717 20.6501C59.0372 22.889 60.018 25.2572 60.6303 27.6879C60.8174 28.4303 61.2628 28.872 61.9926 29.0376C62.4598 29.1437 62.9327 29.2686 63.3897 29.3907C63.7728 29.4924 64.1558 29.5941 64.5403 29.6856C64.8101 29.7495 64.8928 29.8352 64.9276 30.0851C65.3266 32.9793 65.3266 35.9257 64.9334 38.8416Z" fill="white"/>
<path d="M56.547 39.004C55.7288 38.7425 54.9279 39.1348 54.6 39.9571C54.555 40.0719 54.5216 40.1867 54.4897 40.2971C54.4723 40.3567 54.4564 40.4162 54.4375 40.4744C52.6312 46.0854 49.2174 50.258 44.2715 52.9226C44.2251 52.9473 44.1787 52.972 44.1322 52.9982C44.0669 53.033 44.0017 53.0679 43.9364 53.1013C43.4199 53.3716 42.8918 53.6214 42.3521 53.8481C41.9124 54.037 41.4627 54.2171 41.0013 54.3842C40.7663 54.4699 40.5255 54.5382 40.2687 54.6109C40.2338 54.621 40.199 54.6312 40.1642 54.6414C40.1642 54.6356 40.1642 54.6312 40.1642 54.6254C38.8889 55.0002 37.5629 55.2559 36.1991 55.3809C35.6521 55.4404 34.9847 55.471 34.3173 55.4695C34.3028 55.4695 34.2883 55.4695 34.2738 55.4695C34.2303 55.4695 34.1853 55.4681 34.1418 55.4681C34.0736 55.4681 34.0039 55.4666 33.9358 55.4651C23.7465 55.3024 15.3303 47.8332 13.685 38.0597C13.2889 35.8193 13.2512 33.4875 13.6299 31.1469C15.2461 21.1612 23.6421 13.7414 33.5934 13.5046C41.6368 13.3128 47.9146 16.7198 52.2583 23.6311C52.9722 24.7673 53.4756 26.0792 53.9616 27.3461C54.1473 27.8329 54.3403 28.3356 54.5434 28.8223C54.7509 29.3206 55.0904 29.9032 55.8927 29.9904C56.6051 30.0688 57.1651 29.7812 57.3551 29.2422C57.5336 28.7351 57.5597 28.1278 57.4219 27.6585C54.0066 15.9425 42.3405 8.65342 30.2869 10.7078C24.147 11.7539 18.7136 15.1057 14.985 20.1486C11.2563 25.1915 9.65169 31.3575 10.4671 37.5148C12.034 49.35 21.6936 58.1878 33.4367 58.5293C33.7312 58.538 34.0243 58.5423 34.3144 58.5423C43.1906 58.5423 50.1807 54.5542 55.0991 46.6796C56.1872 44.9376 57.0113 42.9791 57.5481 40.8608C57.7556 40.0385 57.3363 39.2568 56.547 39.004Z" fill="white"/>
<path d="M56.9408 32.9186C56.5216 32.8997 56.1255 33.045 55.8208 33.3298C55.5132 33.6175 55.3391 34.0112 55.3304 34.4383C55.313 35.2883 55.9572 35.9842 56.7958 36.0249C56.8175 36.0263 56.8407 36.0263 56.8625 36.0263C57.2455 36.0263 57.6285 35.8723 57.9216 35.5977C58.2321 35.3072 58.4149 34.9091 58.425 34.5052C58.4439 33.6828 57.7635 32.9579 56.9408 32.9186Z" fill="white"/>
<path d="M44.2721 52.9229C44.2257 52.9476 44.1792 52.9737 44.1328 52.9984C44.1792 52.9737 44.2257 52.949 44.2721 52.9229Z" fill="#FCC110"/>
<path d="M36.6927 55.324C37.8824 55.1874 39.0445 54.9564 40.1646 54.6281C40.1631 54.615 40.1631 54.6019 40.1631 54.5903C40.1631 53.6706 40.1631 52.7509 40.1631 51.8298C40.1646 49.2059 40.166 46.4934 40.1457 43.8245C40.1428 43.5223 40.2691 43.4511 40.5418 43.2942L40.5955 43.2636C45.1337 40.6339 47.4362 36.7518 47.4405 31.7249C47.4434 26.6384 45.1279 22.7446 40.5549 20.1513C39.8599 19.7575 39.207 19.698 38.7167 19.9842C38.219 20.2748 37.9434 20.8864 37.9419 21.7073L37.9405 22.6168C37.9376 24.6348 37.9347 26.7226 37.9492 28.7755C37.9521 29.0995 37.865 29.2681 37.6082 29.4439C36.5433 30.1703 35.593 30.8488 34.7022 31.5215C34.4077 31.7438 34.2844 31.7481 34.016 31.5418C33.1904 30.9098 32.2648 30.2502 31.107 29.4671C30.827 29.2768 30.7327 29.0952 30.7371 28.7479C30.7588 26.3216 30.7516 23.8198 30.7458 21.6129C30.7429 20.8588 30.4716 20.2849 29.9812 19.9973C29.4966 19.7125 28.8727 19.7517 28.2271 20.1106C23.612 22.672 21.2631 26.5686 21.2501 31.6915C21.2356 36.7271 23.5293 40.6136 28.0661 43.2419C28.4433 43.4598 28.5449 43.6211 28.542 43.9872C28.5246 46.4861 28.526 49.0272 28.5275 51.4855C28.5275 52.4197 28.5289 53.3553 28.5275 54.291C28.5275 54.4 28.5216 54.5104 28.5144 54.631C28.3708 54.5975 31.9703 55.3283 31.9688 55.3211C31.8644 55.3036 31.7657 55.2862 31.6772 55.2659V44.7311H37.009V55.2528M35.934 41.6146C31.2971 42.3265 26.83 39.816 25.073 35.5082C23.4727 31.5869 24.5812 26.8621 27.6395 24.2978C27.641 24.7075 27.6424 25.1114 27.6453 25.5138C27.654 26.8665 27.6613 28.1435 27.6221 29.4352C27.5931 30.3911 27.9413 31.0609 28.7523 31.6087C29.7679 32.2944 30.7792 33.0252 31.7585 33.7313C32.2227 34.0655 32.687 34.4011 33.1527 34.7323C34.1117 35.4137 34.5847 35.4108 35.5611 34.7164C36.0283 34.3837 36.494 34.048 36.9597 33.7124C37.955 32.9947 38.9851 32.2537 40.0152 31.5534C40.7638 31.0449 41.0873 30.4028 41.0656 29.4744C41.0336 28.1668 41.0409 26.833 41.0467 25.5429C41.0481 25.1303 41.0511 24.7177 41.0511 24.3036C42.8515 25.354 44.5824 29.5412 44.3416 32.4731C43.9556 37.1543 40.4983 40.9129 35.934 41.6146Z" fill="#FFC20E"/>
</svg>
