<svg width="72" height="72" viewBox="0 0 72 72" fill="none" xmlns="http://www.w3.org/2000/svg">
<path d="M63.7344 42.5674C62.9103 41.8642 61.8759 41.9252 61.1795 42.7199C60.4729 43.5263 60.531 44.7075 61.3115 45.386C62.05 46.0281 63.3441 45.909 63.9955 45.1404C64.6354 44.3849 64.5193 43.2386 63.7344 42.5674Z" fill="white"/>
<path d="M68.7622 16.2487C65.3701 10.8222 60.8725 6.33569 55.3927 2.91562C51.1055 0.239417 46.4411 -0.600338 41.5271 0.418129C37.9653 1.15764 34.8184 2.78486 31.9023 4.39029C31.7862 4.45422 31.6948 4.4949 31.6092 4.51524C32.8613 5.11818 33.9813 5.94923 34.9229 6.95172C37.5968 5.53226 40.2736 4.28132 43.226 3.83819C46.8647 3.29482 50.4178 4.1157 53.7881 6.28049C58.454 9.27778 62.3582 13.1671 65.3919 17.8396C68.4111 22.4888 68.884 27.4184 66.7963 32.4904C66.2043 33.875 65.4165 35.1957 64.7027 36.6238C64.2007 37.6292 64.607 38.8526 65.6109 39.3553C65.9026 39.502 66.213 39.5703 66.5192 39.5703C67.2649 39.5703 67.9831 39.1577 68.3385 38.4443C69.3947 36.3304 70.2551 34.1641 70.8978 32.008C70.9326 31.8889 70.9558 31.7698 70.9689 31.6506C72.5488 26.2997 71.8104 21.1274 68.7622 16.2487Z" fill="white"/>
<path d="M55.68 49.1785C53.5182 51.288 51.9267 52.4634 51.8904 52.4896C51.8033 52.5535 51.725 52.6232 51.651 52.6973C50.0319 53.739 48.3939 54.4655 46.663 54.9115C46.5571 54.9391 46.4483 54.9624 46.3409 54.9856C46.1712 55.0234 46.0029 55.0597 45.8361 55.1091C44.8393 55.3968 44.1632 55.1948 43.3406 54.3638C35.2421 46.1695 26.9505 37.8969 18.9318 29.8959L16.77 27.7383C16.5249 27.4928 16.461 27.3243 16.4958 27.0192C16.7178 25.1028 17.2256 23.3942 18.0381 21.8266C17.1255 20.7166 16.4218 19.4279 15.9851 18.0215C15.9677 18.0578 15.946 18.0956 15.917 18.1377C13.5768 21.6668 12.5365 25.3367 12.8267 29.0474C13.0385 31.7599 13.5289 34.4622 14.0135 36.9975C14.189 37.9128 14.4473 38.8136 14.6983 39.6853C15.0131 40.7794 15.3105 41.8138 15.457 42.8759C15.8444 45.6945 15.045 48.0278 13.0806 49.8119C11.0509 51.6571 9.01243 53.5574 7.04075 55.3968C5.58411 56.7552 4.07815 58.1602 2.58814 59.5302C1.71038 60.3366 0.847138 61.262 0.467019 62.558L0.439453 62.651V64.2332L0.465568 64.3247C0.848588 65.6643 1.72634 66.613 2.44596 67.2886C3.01178 67.8203 3.5718 68.3884 4.11297 68.9391C4.35525 69.1846 4.59609 69.4301 4.83983 69.6742C5.94537 70.7813 7.11329 71.3421 8.31313 71.3421C8.33634 71.3421 8.35956 71.3421 8.38277 71.3407C9.59857 71.3189 10.7578 70.7246 11.83 69.5725C13.1154 68.1908 14.3994 66.8077 15.6819 65.4245C18.0178 62.9082 20.3551 60.3918 22.6967 57.8798C22.8635 57.701 23.0957 57.5296 23.4076 57.3538C25.7899 56.0171 28.3782 55.8254 31.319 56.7698C34.5341 57.8013 37.4923 58.4565 40.3635 58.7689C42.5006 59.0028 44.8016 59.1438 47.1375 58.6047C48.7827 58.2255 50.3699 57.6357 51.918 56.8264C51.918 56.8264 51.918 56.8264 51.9194 56.8264C53.1555 56.1755 53.7213 55.853 54.0826 55.5886C54.1566 55.5348 56.1152 54.4364 58.5164 52.0929C59.3201 51.3084 59.3375 50.0197 58.5541 49.2148C57.7706 48.4099 56.4837 48.3939 55.68 49.1785ZM23.5788 40.0442L19.2016 44.1079C19.2089 43.643 19.1987 43.1882 19.1378 42.7291C18.9332 41.1993 18.6779 39.9629 18.3326 38.8383C17.729 36.8711 17.2865 35.0841 16.9949 33.4307L23.5788 40.0442ZM9.18943 67.0009C8.79916 67.4222 8.50464 67.6373 8.31458 67.6402C8.31313 67.6402 8.31168 67.6402 8.31023 67.6402C8.11727 67.6402 7.80969 67.431 7.39765 67.0183C7.08718 66.7074 6.77525 66.398 6.46332 66.0885C5.80319 65.4333 5.1213 64.7548 4.46117 64.0792C4.29867 63.9121 4.10426 63.6651 4.11006 63.4341C4.11587 63.206 4.31753 62.9721 4.48583 62.8152C10.5489 57.1795 16.6163 51.5466 22.6851 45.9153L26.2701 42.5882L29.1602 45.4823C22.5037 52.6566 15.8473 59.8295 9.18943 67.0009ZM36.4535 54.374C35.4423 54.1313 34.418 53.8248 33.4285 53.5284C33.0078 53.402 32.587 53.2756 32.1648 53.1535C30.7053 52.7307 29.314 52.5215 27.9444 52.5215C27.8501 52.5215 27.7558 52.523 27.6615 52.5244L31.7398 48.128L38.3396 54.7517C37.6954 54.6398 37.073 54.5221 36.4535 54.374Z" fill="white"/>
<path d="M18.0634 21.7789C20.4761 24.6498 23.3705 25.5274 25.4525 25.7438C28.6443 26.0751 32.0102 25.0087 34.2373 22.9601C36.5223 20.8578 37.8441 17.8315 37.8644 14.6555C37.8818 11.8166 36.8241 9.12292 34.8698 6.97992C34.8873 6.96975 34.9061 6.96104 34.9235 6.95087C33.9819 5.94984 32.8604 5.11879 31.6098 4.51439C31.4676 4.54781 31.3429 4.52311 31.1557 4.44611C26.8714 2.69103 22.8221 3.31287 19.446 6.24332C16.0685 9.17523 14.8759 13.1009 15.9974 17.5947C16.0482 17.7981 16.0438 17.9027 15.9872 18.0203C16.4239 19.4267 17.129 20.714 18.0402 21.8254C18.0489 21.8109 18.0561 21.7949 18.0634 21.7789ZM21.4453 9.39751C22.8526 7.97369 24.7227 7.18623 26.7089 7.18187C26.7147 7.18187 26.7205 7.18187 26.7263 7.18187C30.8365 7.18187 34.185 10.5351 34.1952 14.6627C34.1996 16.6619 33.4219 18.5448 32.003 19.9672C30.5899 21.3838 28.7198 22.164 26.735 22.164C26.7321 22.164 26.7292 22.164 26.7278 22.164C22.6263 22.1596 19.2806 18.818 19.269 14.7136C19.2647 12.7101 20.0365 10.8228 21.4453 9.39751Z" fill="#FFC20E"/>
</svg>
