<svg width="73" height="43" viewBox="0 0 73 43" fill="none" xmlns="http://www.w3.org/2000/svg">
<path d="M64.565 19.3868C63.4145 19.0381 62.4409 18.717 61.4544 18.4467C59.4566 17.9019 57.4573 17.3556 55.4465 16.866C54.3932 16.6103 53.5676 16.0873 52.848 15.2795C50.4077 12.5408 47.9892 9.77743 45.4488 7.13174C42.8895 4.46716 39.6875 3.17991 35.9705 3.18717C28.2245 3.20025 20.4785 3.19153 12.7325 3.19153C12.4452 3.19153 12.1579 3.19153 11.7807 3.19153C11.8649 3.64047 11.9301 4.03129 12.0143 4.41776C12.3161 5.79945 11.875 6.93995 10.8768 7.88868C8.93562 9.73384 6.99732 11.5848 5.03579 13.4096C4.4453 13.9588 4.17254 14.5763 4.1827 15.3884C4.21171 17.636 4.19865 19.8836 4.18559 22.1298C4.18414 22.4349 4.15367 22.772 4.02165 23.0378C2.83051 25.4322 2.75653 27.9093 3.47469 30.433C3.62993 30.9807 3.93315 31.4921 4.21171 31.9948C4.48736 32.4932 4.91246 32.7678 5.51891 32.7184C6.16163 32.6661 6.36039 32.2055 6.60558 31.7072C7.12208 30.6538 7.56023 29.5133 8.29145 28.6227C10.0194 26.5175 12.319 25.5644 15.0451 26.0395C18.0585 26.564 19.9315 28.476 20.9804 31.2771C21.0486 31.4573 21.0936 31.6461 21.1429 31.8321C21.3083 32.4539 21.6812 32.7329 22.3515 32.7213C24.1607 32.6893 25.9713 32.7053 27.7805 32.7067C28.046 32.7067 28.3115 32.714 28.5756 32.7344C29.5578 32.8128 29.9959 33.2661 29.9974 34.1945C29.9988 35.1069 29.5331 35.6546 28.5901 35.6779C26.7098 35.7244 24.8266 35.7331 22.9449 35.7084C21.4723 35.6895 21.4882 35.6619 20.9732 37.0872C20.0098 39.7547 18.2761 41.6681 15.4528 42.3292C11.9766 43.1442 8.55696 41.2758 7.05969 37.8412C6.83917 37.3342 6.67378 36.8024 6.49533 36.2779C6.33864 35.8159 6.06297 35.6503 5.55808 35.7345C3.99118 35.999 2.85373 35.505 2.09204 34.116C0.168233 30.6088 -0.327953 26.9199 0.948781 23.0843C1.4972 21.4397 1.52621 19.7805 1.44787 18.0806C1.38113 16.6583 1.43046 15.2315 1.44497 13.8063C1.45368 13.0101 1.82799 12.3868 2.40107 11.8492C4.47866 9.90237 6.54901 7.94535 8.61499 5.98541C9.4173 5.22411 9.42601 5.01634 8.70494 4.1853C8.06077 3.44433 7.54718 2.64815 7.42385 1.64131C7.30924 0.707108 7.74739 0.150656 8.69479 0.11724C9.44197 0.0910879 10.1906 0.109976 10.9392 0.109976C19.1916 0.109976 27.4439 0.136128 35.6977 0.0998058C40.5957 0.0780127 44.6668 1.86941 47.9573 5.46964C50.1553 7.87561 52.3373 10.2961 54.5063 12.7282C55.1084 13.4053 55.8193 13.8092 56.6898 14.0489C59.5668 14.8407 62.5135 15.4683 65.2817 16.5478C69.9853 18.3799 72.295 22.14 72.826 27.0696C72.9116 27.8585 72.8913 28.6605 72.9247 29.4552C73.0219 31.6868 71.6697 33.3576 70.6628 35.1432C70.4815 35.4629 69.8547 35.6706 69.4253 35.6851C67.6901 35.7462 65.952 35.7302 64.2139 35.704C63.0706 35.6866 63.0155 35.7098 62.6354 36.8358C61.6938 39.6253 59.9499 41.6419 57.0047 42.335C53.5589 43.1471 50.106 41.2526 48.6145 37.8296C48.4506 37.4548 48.2837 37.0712 48.1996 36.6731C48.04 35.9118 47.58 35.6619 46.8474 35.6779C45.2558 35.7113 43.6628 35.7084 42.0712 35.7157C41.7825 35.7171 41.4924 35.7084 41.2036 35.6837C40.2722 35.6009 39.7528 35.0691 39.7499 34.2105C39.747 33.3387 40.2475 32.775 41.1891 32.7416C42.5863 32.6908 43.9878 32.7111 45.3864 32.7024C45.7244 32.7009 46.0625 32.7024 46.4005 32.7024C47.8499 32.7024 47.8499 32.7024 48.3142 31.3309C49.884 26.6976 54.7109 24.5982 58.8226 26.7805C60.7057 27.78 61.894 29.3768 62.5701 31.3774C63.0198 32.7082 63.0184 32.7082 64.4576 32.7038C65.2773 32.7009 66.0985 32.7038 66.9182 32.7038C68.8798 32.7038 69.8649 31.8031 70.0245 29.8228C70.0723 29.2227 70.0375 28.6169 70.0404 28.0125C70.0433 27.4212 69.7561 27.1161 69.1612 27.1117C68.0992 27.103 67.0386 27.0899 65.9766 27.0856C63.9513 27.0768 62.7384 26.2865 62.1725 24.5997C61.6024 22.8969 62.1261 21.277 63.6248 20.1088C63.8816 19.9112 64.1442 19.7108 64.565 19.3868ZM60.2313 34.0419C60.2241 33.9315 60.2183 33.6656 60.1907 33.4027C59.9789 31.418 58.4076 29.5584 56.5331 29.0673C54.7399 28.598 52.8974 29.3012 51.7091 30.9081C50.2946 32.8215 50.2946 35.6328 51.7294 37.5419C52.5854 38.6824 53.7287 39.3537 55.165 39.4161C58.013 39.5411 60.227 37.2441 60.2313 34.0419ZM18.6678 34.257C18.7099 32.7794 18.1861 31.5081 17.1894 30.4504C16.1825 29.3811 14.9377 28.768 13.4419 28.9656C10.4633 29.3593 8.44379 32.483 9.18952 35.473C9.75389 37.7337 11.5631 39.3493 13.6117 39.4234C16.4234 39.5237 18.6388 37.2586 18.6678 34.257ZM69.0466 24.02C69.0872 23.9502 69.1278 23.8791 69.1699 23.8093C68.5954 23.0814 68.0383 22.3376 67.4318 21.6387C67.3259 21.5181 66.9501 21.4847 66.8007 21.5762C66.2088 21.938 65.6226 22.3245 65.1032 22.7807C64.6317 23.1948 64.8218 23.9633 65.4123 23.9982C66.6194 24.0708 67.8351 24.02 69.0466 24.02Z" fill="white"/>
<path d="M48.5964 16.2699C48.4455 17.6748 47.5823 18.4231 46.262 18.3039C42.5914 17.9741 38.9179 17.6734 35.2473 17.3494C31.1443 16.9876 27.0428 16.6113 22.9398 16.2496C19.941 15.9851 16.9406 15.7323 13.9403 15.4723C13.4369 15.4287 12.9334 15.3633 12.43 15.3313C11.6814 15.2834 11.1417 14.926 10.8645 14.2359C10.5729 13.5123 10.4569 12.7162 11.0328 12.1161C12.8536 10.2201 14.7035 8.35027 16.6098 6.53998C16.9856 6.18257 17.6603 5.98498 18.2 5.98208C24.2528 5.94721 30.3072 5.87311 36.3586 6.00532C39.5432 6.07506 42.0749 7.75604 44.1119 10.1417C45.3958 11.6468 46.6276 13.1971 47.8376 14.7633C48.1756 15.2035 48.3483 15.7658 48.5964 16.2699ZM14.5032 12.5505C15.8569 12.9602 44.0176 15.3037 44.5094 15.0364C44.4281 14.894 44.3687 14.7357 44.2642 14.6151C43.3052 13.4993 42.3665 12.3646 41.3654 11.2865C40.1786 10.008 38.6872 9.19003 36.9709 8.96048C35.4997 8.76434 33.9981 8.73383 32.5095 8.72075C28.0729 8.68298 23.6348 8.68588 19.1981 8.68879C18.8253 8.68879 18.3334 8.6946 18.1013 8.91398C16.8812 10.0734 15.7277 11.2996 14.5032 12.5505Z" fill="#FFC20E"/>
<path d="M21.6202 21.3335C21.0427 21.3335 20.4639 21.364 19.8893 21.3262C19.1596 21.2768 18.7156 20.7494 18.6764 19.9634C18.6358 19.1644 19.0725 18.4742 19.7936 18.435C20.992 18.3682 22.1991 18.3653 23.3974 18.4277C24.1853 18.4684 24.5973 19.1019 24.5567 19.9751C24.5175 20.8119 24.0837 21.2739 23.2785 21.335C23.1349 21.3466 22.9912 21.3611 22.8461 21.3626C22.437 21.3669 22.0279 21.364 21.6187 21.364C21.6202 21.3524 21.6202 21.3422 21.6202 21.3335Z" fill="white"/>
<path d="M36.3676 34.213C36.3604 35.0804 35.8076 35.6964 35.0415 35.6891C34.261 35.6804 33.64 34.9961 33.6545 34.1607C33.6691 33.3471 34.2726 32.7354 35.0561 32.7413C35.8642 32.7456 36.3749 33.318 36.3676 34.213Z" fill="white"/>
</svg>
