<svg width="22" height="22" viewBox="0 0 22 22" fill="none" xmlns="http://www.w3.org/2000/svg">
<path d="M12.1368 12.6253L16.6327 9.75449C16.9757 9.55588 17.1473 9.24894 17.1473 8.83366C17.1473 8.41838 16.9757 8.11144 16.6327 7.91282L12.1368 5.04199C11.7757 4.80727 11.4056 4.78921 11.0264 4.98782C10.6473 5.18644 10.4577 5.50241 10.4577 5.93574V11.7316C10.4577 12.1649 10.6473 12.4809 11.0264 12.6795C11.4056 12.8781 11.7757 12.86 12.1368 12.6253ZM6.66602 17.5003C6.07018 17.5003 5.56029 17.2884 5.13635 16.8644C4.71168 16.4397 4.49935 15.9295 4.49935 15.3337V2.33366C4.49935 1.73783 4.71168 1.22758 5.13635 0.802909C5.56029 0.378964 6.07018 0.166992 6.66602 0.166992H19.666C20.2618 0.166992 20.7721 0.378964 21.1968 0.802909C21.6207 1.22758 21.8327 1.73783 21.8327 2.33366V15.3337C21.8327 15.9295 21.6207 16.4397 21.1968 16.8644C20.7721 17.2884 20.2618 17.5003 19.666 17.5003H6.66602ZM6.66602 15.3337H19.666V2.33366H6.66602V15.3337ZM2.33268 21.8337C1.73685 21.8337 1.22696 21.6217 0.803016 21.1977C0.378349 20.7731 0.166016 20.2628 0.166016 19.667V5.58366C0.166016 5.27671 0.270016 5.01924 0.478016 4.81124C0.685293 4.60396 0.942404 4.50033 1.24935 4.50033C1.55629 4.50033 1.81377 4.60396 2.02177 4.81124C2.22904 5.01924 2.33268 5.27671 2.33268 5.58366V19.667H16.416C16.723 19.667 16.9801 19.771 17.1873 19.979C17.3953 20.1863 17.4993 20.4434 17.4993 20.7503C17.4993 21.0573 17.3953 21.3144 17.1873 21.5217C16.9801 21.7297 16.723 21.8337 16.416 21.8337H2.33268Z" fill="#1E1E1E"/>
</svg>
