<svg width="16" height="16" viewBox="0 0 16 16" fill="none" xmlns="http://www.w3.org/2000/svg">
<path d="M12.5846 9.45547L10.0846 8.20547C10.0107 8.16875 9.92852 8.15215 9.84622 8.15737C9.76392 8.16258 9.68445 8.18941 9.61583 8.23516L8.39083 9.05156C7.77067 8.73409 7.26612 8.22954 6.94865 7.60938L7.76583 6.38516C7.81158 6.31654 7.83841 6.23707 7.84362 6.15477C7.84883 6.07247 7.83224 5.99025 7.79552 5.91641L6.54552 3.41641C6.50665 3.33819 6.44671 3.27239 6.37244 3.22642C6.29818 3.18046 6.21255 3.15615 6.12521 3.15625C5.33785 3.15625 4.58273 3.46903 4.02599 4.02578C3.46924 4.58253 3.15646 5.33764 3.15646 6.125C3.15853 7.90629 3.86706 9.61403 5.12662 10.8736C6.38618 12.1332 8.09392 12.8417 9.87521 12.8438C10.6626 12.8438 11.4177 12.531 11.9744 11.9742C12.5312 11.4175 12.844 10.6624 12.844 9.875C12.844 9.78788 12.8197 9.70247 12.7739 9.62836C12.7281 9.55425 12.6625 9.49438 12.5846 9.45547ZM9.87521 11.9062C8.3425 11.9044 6.87309 11.2947 5.7893 10.2109C4.70551 9.12711 4.09582 7.65771 4.09396 6.125C4.094 5.63476 4.27134 5.16108 4.59326 4.79135C4.91518 4.42162 5.35995 4.18078 5.84552 4.11328L6.83458 6.09141L6.02286 7.30859C5.98021 7.37279 5.95405 7.44651 5.94669 7.52323C5.93933 7.59995 5.95101 7.6773 5.98068 7.74844C6.41171 8.77325 7.22696 9.5885 8.25177 10.0195C8.3229 10.0492 8.40025 10.0609 8.47698 10.0535C8.5537 10.0462 8.62742 10.02 8.69162 9.97734L9.9088 9.16562L11.8869 10.1547C11.8194 10.6403 11.5786 11.085 11.2089 11.4069C10.8391 11.7289 10.3654 11.9062 9.87521 11.9062ZM8.00021 0.0312502C6.61879 0.0309602 5.26103 0.389787 4.06012 1.07253C2.85922 1.75527 1.85642 2.73847 1.15012 3.92567C0.443816 5.11287 0.0582697 6.46329 0.0313039 7.84445C0.00433801 9.2256 0.336879 10.59 0.996302 11.8039L0.0884896 14.5281C0.0242213 14.7208 0.0148945 14.9276 0.0615546 15.1254C0.108215 15.3231 0.209018 15.5039 0.352665 15.6475C0.496313 15.7912 0.677129 15.892 0.874846 15.9387C1.07256 15.9853 1.27937 15.976 1.47208 15.9117L4.1963 15.0039C5.2627 15.5826 6.44715 15.9102 7.65936 15.9616C8.87157 16.013 10.0795 15.787 11.1911 15.3007C12.3027 14.8144 13.2885 14.0806 14.0735 13.1555C14.8584 12.2303 15.4218 11.1381 15.7205 9.96218C16.0193 8.78624 16.0456 7.55761 15.7974 6.36996C15.5492 5.18232 15.0331 4.06703 14.2884 3.10914C13.5438 2.15124 12.5902 1.37604 11.5004 0.842639C10.4107 0.309236 9.21351 0.0317194 8.00021 0.0312502ZM8.00021 15.0312C6.76422 15.0315 5.54999 14.706 4.4799 14.0875C4.40856 14.0465 4.3278 14.0247 4.24552 14.0242C4.19508 14.0245 4.145 14.0327 4.09708 14.0484L1.17599 15.0219C1.14846 15.0311 1.11892 15.0324 1.09067 15.0257C1.06242 15.0191 1.03659 15.0047 1.01607 14.9841C0.995552 14.9636 0.981151 14.9378 0.974486 14.9095C0.96782 14.8813 0.969152 14.8517 0.978333 14.8242L1.95177 11.9062C1.97283 11.8432 1.98024 11.7764 1.97351 11.7103C1.96677 11.6441 1.94605 11.5802 1.91271 11.5227C1.13713 10.1829 0.825378 8.62461 1.02583 7.08957C1.22628 5.55454 1.92771 4.12856 3.02132 3.03288C4.11493 1.93719 5.53957 1.23304 7.07423 1.02968C8.60888 0.826321 10.1677 1.13511 11.509 1.90815C12.8502 2.68119 13.8989 3.87525 14.4922 5.3051C15.0855 6.73495 15.1904 8.32064 14.7905 9.81618C14.3907 11.3117 13.5084 12.6335 12.2807 13.5764C11.0529 14.5193 9.54827 15.0307 8.00021 15.0312Z" fill="#F5B61A"/>
</svg>
